<svg xmlns="http://www.w3.org/2000/svg" viewBox="0 0 900 350" width="900" height="350" style="width:100%;height:100%"><defs><clipPath id="a"><path d="M0 0h900v350H0z"/></clipPath></defs><g clip-path="url(#a)"><g display="block"><path fill="#DDDDDC" d="M798.25499344 8.9269991l-42.2140007 10.01700019 40.46700096 22.64400005 35.3720007-6.75 19.5050001 4.35599995 42.65000153-16.7670002L846.2899952 7.18599892l-31.15000057 9.579-16.88500118-7.83799983z"/><path fill="#ECECEB" d="M803.9319706 0l-47.8900013 18.94299984 56.4780016 4.79099941 28.23900031-9.14599967 53.27700139 7.83900047L849.20197105.21799945 826.057971 10.45199967 803.9319706 0z"/><path fill="#DDDDDC" d="M43.04899597 57.7970028L6.60299683 64.9080026l34.93700027 16.0769999 30.53899956-4.7919998 16.8409996 3.092 36.8220005-11.90400005L84.5209961 56.56100273l-26.8949995 6.80100012-14.57700062-5.56500006z"/><path fill="#ECECEB" d="M125.74199677 67.38099909L87.03299713 51.61299896l-19.98100006 7.26599992-19.10299957-7.4200002L6.60199738 64.90799904l48.76299953 3.40100002 24.37899971-6.49300015 45.99800015 5.56500018z"/></g><g display="block"><path fill="#5E5E5E" d="M350.91998291 261.53700256l43.7579956-42.92500305-25.75499725-97.14499664-47.7559967-47.1930008-11.625-16.94599914-158.39499664 37.90499878s-22.2539978 52.5889988-24.2559967 47.8199997c-2.12400819-4.76900101 0 58.99300002 0 58.99300002l27.87899016 50.32799912 20.51399994 10.84999847 175.76500702-1.81199646-.12900543.125z"/><path fill="#686868" d="M198.810997 95.86699677l29.0340004 35.1800022-4.00499725 74.88300134 27.03199768 18.59500122 15.07300043-7.49100113 71.52800131 4.97900009-22.52600097-121.12000275-116.1360016-5.02600097z"/><path fill="#A0A0A0" d="M421.90299988 255.18200207l-49.2400055-52.29400158-208.39099884-.72699738-8.67700958 77.14500046 266.30801392-24.1240015z"/><path fill="#5E5E5E" d="M672.08800888 266.0550003l-47.63199997-26.22999954-36.87999725-30.7520008 20.6309967-75.68499947 58.38000107-39.53500366 77.01300049 26.3560028 27.87500381 54.22299958 49.3829956 70.66400146-71.25899886 30.74900055-77.51100159-9.79000091z"/><path fill="#686868" d="M676.53198624 113.62399673l-35.70799876 34.00700188-4.00399994 74.04599953-47.38899923-8.04100037.66699982-63.3239994 67.74499893-45.56699944 18.68899918 8.8789978z"/><path fill="#A0A0A0" d="M602.1129837 243.45500517l-4.96499633-35.51500082 40.92300033-3.14100075 123.894001 4.64900208 18.0209961 31.9969995-27.6989975 30.15400147-150.1740036-28.14400148z"/><path fill="#BE8E00" d="M835.2339902 141.79900575l-9.87600041-.6270001 8.87600016 6.27400017 2.00000024-2.25700009-1-3.38999998z"/><path fill="#CBAC14" d="M821.73100471 218.23500824l15.75499917-88.86400223 14.7510004-1.88100052 13.1279993 6.77600098 5.74900056 16.4449997-45.00699997 81.33100128-4.37599946-13.80699921z"/><path fill="#BE8E00" d="M821.85701561 217.85700226l4.25099945-23.72100067 23.87800074-73.9280014 1.62799978-1.25399781-2.37799978 12.92899704-27.37900019 86.10000229v-.12599945zm10.38000011 3.39099884l-6.00400066 10.79299927-1.87399864-6.02299881 25.62699938-81.4619999 13.62700033-6.90099907-31.3760004 83.5929985z"/><path fill="#E4C728" d="M837.4869957 129.3710041l14.00199914-10.54199981 16.6240003 8.40999985 3.0019989 23.47200012-7.6269989-13.05500007-13.62700032 6.90200019-.625-12.8000002-11.74899912-2.38700008z"/><path fill="#BE8E00" d="M805.48196411 160.6249981l9.62599999 52.59000015 11.62400001-1.88199997-2.24800014-56.6060009-3.62599993-3.76600075-15.37599993 9.66400146z"/><path fill="#CBAC14" d="M818.61001343 212.71299744l2.9960001-.50099945-2.12400007-60.49900055-5.74900007 3.6420002 4.87700004 57.3579998z"/><path fill="#E4C728" d="M805.4820013 160.62500954l19.00200081-5.89800024-.25-5.90099979-9.75000041-4.01300025-9.0020004 15.81200028z"/><path fill="#BE8E00" d="M848.11200905 178.57500553l19.12699997 8.15999985 6.99899996 8.78100014-2.87299991-8.91099978 17.12899995-11.29500008-4.12599945-7.40199995-34.63199997 6.6500001-1.62400055 4.01699972z"/><path fill="#E4C728" d="M851.36397171 169.91399705l-1.62800026 4.6450001 23.37799978 3.51499987 11.25400019-10.16599989-11.25400019-2.63800001-13.25299978 5.64699996-8.49699974-1.00300003z"/><path fill="#6F7173" d="M588.4520111 260.65900421l-195.27200317-12.67399597-66.49500274-37.83799744-35.76599884-136.89600372 106.00799942-38.7669983 97.88800049-3.39099883L599.4560089 64.2290039l18.8769989 58.11600303-10.125 11.04399967-5.42799377 22.2840004-8.34300232 55.61800099-5.98500061 49.36799621z"/><path fill="#DDDDDC" d="M371.17797852 263.22300744l21.3580017-20.77299905 56.73200226-38.19599914 138.74499893 2.80599975 149.9239998 39.07499886 14.78500365 36.99099922-119.9070053 33.70399857L478.6359787 279.975008l-107.45800018-16.75200057zM143.24698639 292.37200165l25.27900696-41.4620018 86.85099697-20.52199936 90.10399723 9.7159996 2.6700058 23.78900051-53.22800446 47.07399845-105.98999786 2.80900193-45.68600464-21.40399933z"/><path fill="#CFCECD" d="M260.0490036 233.7389994l25.94700623-10.63799957 86.666996-20.2140007 70.26400375 24.8210001-94.77600288 36.18500042-88.1020031-30.15400025z"/><path fill="#858686" d="M71.38698578 162.00500107l43.00499916-1.3789978 24.37700057-28.49100113 15.75000024-2.38700104 15.38100052-27.73999977 29.8769989-8.90600014-17.5039978-17.57400131-6.9980011-12.42699814-42.75500083 14.43299866-61.13299966 84.47100067z"/><path fill="#DDDDDC" d="M255.7109909 7.2460022L171.772995 51.55600357l-5.5 5.27199936-6.62400818 9.78899956 2.4980011 6.65100097 33.37900543 3.76600075L315.29299223 65.8650036l108.8879999-24.48000038 43.00400543-8.15600026-26.00000763-14.93500042-54.75899506 3.38700104L255.71099091 7.2460022z"/><path fill="#BFBFBF" d="M166.02398586 57.07700157L139.26898575 73.3910017l-3.25200081 3.0149994 11.25400066-3.76699973 6.49999976-.375 8.3770001 1.00200033 15.25099945-13.4300003.24900055-3.00899983-2.1229992-3.3909998-9.5010004 3.6409998z"/><path fill="#8F8F8F" d="M243.1559906 99.24900055l-39.62799835-10.79199982-21.25500488-12.92999935 241.90800476-34.14199924-17.62900544 34.5189991-163.39599609 23.3449993z"/><path fill="#858686" d="M141.875 167.02399826l30.73900032-36.81499958 9.79000092-15.39599895-25.16600085-12.80500031-16.5600009 28.49599934L141.875 167.02399826z"/><path fill="#6C6D6D" d="M130.10899734 132.13400602l-5.4470005 21.08400011 17.2140001 13.80699921 15.36200012-65.01599884-27.12899972 30.12499952z"/><path fill="#C4C4C3" d="M243.1559906 99.25000381L172.6139927 130.208004l-15.26799966-28.82700014 24.92699814-25.85300017 60.88299942 23.72200012z"/><path fill="#9DA1A2" d="M641.07500458 39.82900262l-72.33399582 29.40100074-88.8030014-21.8180008-12.75300217-14.18200016-80.7579956-11.55000019L537.03700637 7.58000183l104.0379982 32.24900079z"/><path fill="#858584" d="M768.85201836 105.77400208l-21.63000054-6.77499962-22.25000053-19.07800007 24.50200057-36.39899922 19.3780005 62.2519989z"/><path fill="#8F8F8F" d="M536.19499207 83.68300056l11.87999725-24.7249993-9.12799835-11.79599965L467.18498993 33.229002l-43.0039978 8.15600014 39.50699806 36.77599907 72.50700188 5.52199935z"/><path fill="#DDDDDC" d="M583.45096779 46.2840004l-2.87400055 20.58300078-44.38299942 16.81700074 2.7519989-36.52200126 44.50500107-.87800026z"/><path fill="#9DA1A2" d="M609.08097076 75.15100098l7.25-17.44699955-32.87900066-11.41899968-47.25700092 37.39799977 61.9130001 8.99999904 9.34500122-3.72499847 1.62800026-13.80700111z"/><path fill="#858686" d="M602.27997541 155.00300217l-4.17299985-62.31899834 10.9729998-17.53299904 12.37499977 29.24399853-1.48899937 26.65200043-17.68600035 23.95599842z"/><path fill="#DDDDDC" d="M736.84798431 80.42200089l-127.76800155-5.27099991-25.62800217-28.86699915 86.76200152-27.9899993 79.26000165 25.22699929-12.62599945 36.90099907z"/><path fill="#818181" d="M753.10097504 123.47300339l-26.00600052-4.5189991-24.62700081-12.80299998-33.12900066.88199997-41.69700146-14.18300008-18.56200028-17.6989994 127.7670021 5.2709999 20.75500108 37.02799988-4.50099945 6.0229988z"/><path fill="#C4C4C3" d="M731.97198105 132.1340065l-112.00499725-1.08800125-10.51200104-55.61800003 52.00799942 16.66500091 39.75699997 13.55599976 22.125 12.05099964 8.6269989 14.43400097z"/><path fill="#9DA1A2" d="M753.10100365 123.47300577l-21.13000012 8.66200018-30.75199985-26.48600006 51.88199997 17.82399988z"/><path fill="#858686" d="M771.09900284 242.70900345l-14.83399916-41.92200089-24.2939992-68.65299987 21.12999917-8.6609993 10.8739996 41.04500007 7.12399959 78.19099999z"/><path fill="#C4C4C3" d="M806.60500908 271.20000458l-35.50700092-28.49099732L753.100008 123.4730072l55.37899971 107.18999863-1.87399864 40.53699875z"/><path fill="#9DA1A2" d="M871.75797653 286.34100342l-52.72800064 18.00899505-22.67500019-20.34600067-10.61399937-29.8279953-32.6400013-130.70300293-16.2539978-43.05099487 32.0039978 25.35299683 65.38400078 111.70800018 46.00599862 16.6949997-8.4829979 52.163002z"/><path fill="#858686" d="M844.9849739 235.80800056l54.88299943-2.51200103.13199997 16.60900116-28.24199945 36.43599891-24.14499968-46.01399994-2.62800026-4.5189991z"/><path fill="#9DA1A2" d="M874.86699486 217.7339964l25.00099945 15.56299972-54.88299942 2.51099968 7.7520008-12.67799974 22.12999917-5.39599967z"/><path fill="#8F8F8F" d="M834.23499489 217.48300457l40.63199997.25099945-29.88199997 18.07400036-10.75-18.32499981z"/><path fill="#6F7173" d="M29.50699234 194.01100826l8.3729992 11.421 21.1289997-2.50800037 3.62599945-12.30200004-33.12799835 3.38900041z"/><path fill="#858686" d="M22.37799263 216.60500431l7.12800026-22.59399986 29.5020008 8.9130001-15.50000047 15.68799973-21.13000059-2.00699997z"/><path fill="#9DA1A2" d="M-.00100708 226.01900816l22.37899923-9.41400027 36.6309991-13.68100047-8.62699891 28.24000072-23.37900019 5.77299976-27.00399923-10.91799974z"/><path fill="#6F7173" d="M.49899292 244.84600496l-.5-18.82799959 29.00799942 3.01399994 21.375 2.13199997-6.49900055 21.71500015-43.38399887-8.03300047z"/><path fill="#818181" d="M418.43098855 127.11400032L243.1559906 99.25000024l77.88600159-24.97600007 56.88199615 5.64699936 74.01000023.2520008 84.2610035 3.51000023 61.91299438 9-149.17599869 31.29199982-30.50099921 3.13899994z"/><path fill="#9DA1A2" d="M424.18198824 41.38500214l112.0129962 42.29799938-81.37199593 8.6050005-76.77300072 13.4869995-57.00699615-31.50099968 80.25999641-25.60700012 22.87900019-7.28199958z"/><path fill="#C4C4C3" d="M348.15100098 263.89299965l30.26999664 20.82499885 30.38400078-4.15699768 22.52600014 3.77000046 44.30100143-5.02600097 19.27199936-2.26099968 17.11699676-24.23000098-6.01999664-17.06500005-12.57600021.26000022-47.96100045-27.92099857-97.31299781 55.8049984z"/><path fill="#CFCECD" d="M423.32199097 280.81300354l-27.28200531 23.6209991-2.0019989 11.0570004-14.24100495 8.2329998-19.79799652 17.90100097-195.81700897-14.41700172 24.75100708-13.4319992 159.21900177-49.88300133 75.1700058 16.92000198z"/><path fill="#DDDDDC" d="M475.96697617 350.0010147l-115.96899796-8.3769989 62.07299995-61.81600188 53.56200028-.50299836 21.77400017 7.53800011 30.03699875 59.3050003-51.4770012 3.85299874z"/><path fill="#CFCECD" d="M475.63300323 279.30500412l51.8110013 66.84199905 40.29600096-53.4399991-1.60900116-37.46800184-46.11399972-7.42899704-7.99499953 5.0039978-36.38900185 26.49100113z"/><path fill="#C4C4C3" d="M566.13201904 255.2389946l-38.68900299 90.90799713 229.51600647-10.05099869-19.02100372-21.1079998-16.0189972 7.8729992-155.78700256-67.62199784z"/><path fill="#CFCECD" d="M566.13100433 255.23901367l10.95200348-13.45899963 20.83899689 4.68600082 87.95400333.3390007 88.77000332 34.51099885-41.38200378 34.8440007-11.34600067 6.70100021-155.78700257-67.62200165z"/><path fill="#C4C4C3" d="M585.42701721 204.58900642l84.29999924 24.11499978 5.80299759 16.0909996-28.36499787 2.01000023-49.24200058-.3390007-23.50899887-19.42899907 11.0130005-22.44799984z"/><g opacity=".1"><path fill="#2B2B2B" d="M534.5169859 330.84300928l11.3139997-3.83200006 11.25900025 4.27000004-10.27700031 3.20200008-12.29599965-3.64000006zM510.47697783 287.90298755l5.50699995-1.866 5.48199989 2.07899999-5.00499988 1.55900001-5.98399996-1.772zM565.80600023 307.03798975l7.28000002-2.46500005 7.246 2.74800006-6.61400002 2.06099996-7.912-2.34399997zM331.69498444 324.15298926l7.53199993-2.551 7.49599994 2.843-6.84299993 2.13199991-8.18499994-2.4239999zM345.85198069 280.1410105l5.71100002-1.93500004 5.68300003 2.15600005-5.18700004 1.61600003-6.20700001-1.83700004zM616.96096611 329.33600659l11.61300044-3.93300004 11.55800004 4.38300002-10.55000007 3.28700006-12.62100041-3.73700004zM298.14499283 292.78399414l7.67799985-2.60100001 7.64199984 2.898-6.97599983 2.17400002-8.34399986-2.47100001zM264.14100075 320.36398901l11.03700023-3.73800005 10.98399968 4.16500008L276.135001 323.914989l-11.99400025-3.55099998z"/></g><path fill="#846400" d="M545.31198806 332.15699673l-2.01800007-16.96999932 5.39899993-.32800007-2.2349999 17.62599946-1.14599996-.32800007z"/><path fill="#BB8E2D" d="M532.99001598 314.0379973l14.88499987 7.88299984 12.10400045-8.37699985-15.70300054-6.7329998-11.28599978 7.22699982z"/><path fill="#ECECEB" d="M545.74996656 311.41000009L542.2319665 313.381l4.3340001 2.7089999L548.61196662 313.627l-2.86200005-2.21699991z"/><path fill="#846400" d="M515.73199537 288.54201078l-.98200002-8.26200008 2.62800002-.15999985-1.08800001 8.58199978-.55799999-.15999985z"/><path fill="#BB8E2D" d="M509.73197126 279.72099733l7.24700016 3.83800006 5.89300019-4.07800007-5.57500017-2.55800008-7.56500018 2.7980001z"/><path fill="#ECECEB" d="M516.9789768 278.78198993l-1.71199997.95900005 2.10999996 1.32.99599999-1.19899999-1.39399998-1.08000006z"/><path fill="#846400" d="M572.75298607 307.8850112l-1.29799997-10.92000008 3.47399997-.2119999-1.44 11.34299994-.736-.21099996z"/><path fill="#BB8E2D" d="M564.82396507 296.22399244l7.19200003 5.354 10.176-5.671-8.98200002-4.26300002-8.386 4.58000002z"/><path fill="#ECECEB" d="M573.03401391 294.53300142l-2.26299993 1.26800004 2.78799992 1.74400005 2.03599996-1.53300005-2.56099995-1.47900004z"/><path fill="#846400" d="M338.88199145 325.02599049l-1.34400005-11.29599953 3.5940001-.21900034-1.48900005 11.7340002-.761-.21900033z"/><path fill="#BB8E2D" d="M330.6779871 312.96401173l7.65900016 5.75799984 10.30900025-6.08599985-10.45400023-4.48299992-7.51400018 4.81099993z"/><path fill="#ECECEB" d="M339.17198656 311.21500003L336.8309865 312.526l1.57900006 2.25899998L341.07898664 312.69l-1.90700008-1.47499997z"/><path fill="#846400" d="M351.300989 280.80399609l-1.01799997-8.56599999 2.72399997-.16599989-1.129 8.89799977-.577-.1659999z"/><path fill="#BB8E2D" d="M345.08100557 271.65799195l7.51399982 3.97900003 6.10999978-4.22800005-6.22099978-2.10000002-7.40299982 2.34900004z"/><path fill="#ECECEB" d="M352.40199 271.16098702l-2.60100001.74600005 2.188 1.36800003 1.802-1.24400005-1.389-.87000003z"/><path fill="#846400" d="M628.04401147 330.68500614l-2.0719999-17.42000007 5.54199981-.3369999-2.2949999 18.09399986-1.175-.33699989z"/><path fill="#BB8E2D" d="M615.39400196 312.08501148l15.27900028 8.09200001 12.4250002-8.59700012-12.6490003-4.27099991-15.05500018 4.77600002z"/><path fill="#ECECEB" d="M630.28199482 311.07399893l-5.28900003 1.51700008 4.45000007 2.7830001 3.6660001-2.53000008-2.82700014-1.7700001z"/><path fill="#846400" d="M305.47299755 293.6769991l-1.36899996-11.51699973 3.66199994-.22399998-1.51599997 11.96399975-.77700001-.22300005z"/><path fill="#BB8E2D" d="M297.1089983 281.37900949l7.77100003 7.35600018 10.54499995-7.69000006-9.04699999-2.89800024-9.269 3.23200012z"/><path fill="#ECECEB" d="M306.82299757 280.65500283l-3.2190001 2.1170001 1.83100009 2.2290001 3.33100009-2.84100008-1.94300008-1.50500012z"/><path fill="#846400" d="M274.6720056 321.64400482l-1.96799988-16.55300045 5.2659998-.32199955-2.18099991 17.19599915-1.11700002-.32099915z"/><path fill="#BB8E2D" d="M262.65197945 303.96899047l10.90399956 7.68899999 15.42399955-8.16899997-10.3719995-7.52999992-15.95599961 8.0099999z"/><path fill="#ECECEB" d="M276.53499633 300.92499757l-3.43199998 1.92199999 2.42000002 3.09799999 3.80399996-2.857-2.792-2.16299998z"/></g><g display="block"><path fill="#707070" d="M172.77200127 63.85199356l-36.63100052 12.42700005-.125.1260004-.7489996 16.44399977-6.12500095 24.34900045 16.75500059-18.07500076.24900007-11.67499948 26.6260004-23.59600043z"/><path fill="#F3D65D" d="M175.524014 53.43499374l-3.87600023-2.00600004-5.50000018 4.644.37400007 5.14599996 9.00200034-7.78399992z"/><path fill="#BB8E2D" d="M177.64700317 56.82499588l-2.123-3.38999999-2.877 2.51299999 3.251 2.507 1.749-1.63zM174.15001273 59.58399612l-2.12700003-3.13500005-2.49700004 2.13200003 2.99600005 2.51200002 1.62800002-1.509zM170.77401018 62.72299492l-1.87799993-3.63999998-2.37399992 2.13600004 2.62899994 2.75800001 1.62299991-1.25400007zM153.77001238 72.26299334l-3.75199992-2.00699997-5.49999994 4.64399999.37400008 5.14599997 8.87799978-7.783z"/><path fill="#F3D65D" d="M156.02301025 75.65199554l-2.253-3.38999999-2.747 2.512 3.24699998 2.50799998 1.75300002-1.62999999zM152.39601135 78.53699142l-2.128-3.26000005-2.372 2.13100002 3.00099999 2.51300003 1.49900001-1.384zM149.0200007 81.54999876l-1.74899996-3.51600003-2.37699997 2.012 2.50199997 2.75799998 1.62399996-1.25399995zM166.14800453 56.07299614l-8.62699985-2.51299954-12.8780005 7.2819996L129.767004 81.42499637l5.87400055 3.13899994 4.50099945-7.783 4.37600017-1.88100004 5.50000012-4.64399981 16.50500023-9.03699995-.375-5.14600038z"/><path fill="#BB8E2D" d="M166.14700794 56.07299328l-8.62600016-2.51299954-12.87799955 7.2819996 5.37499953 9.41399955 16.50400018-9.03699958-.375-5.14600003zM139.76800203 93.35099554l.375-16.56899977-10.3760004 4.64400006.99900007 10.91799974 3.75200012 3.38999987 5.25000021-2.3829999z"/><path fill="#F3D65D" d="M135.76800537 103.6419983l4.00099993-10.2920003-9.00099993-1.00600004 1.00300002 9.4130001.99900007 4.0170002 2.99799991-2.13199997z"/><path fill="#BB8E2D" d="M129.1430018 117.19899702l6.62400007-13.55700016-3.99700004-1.88500023-2.62700004 15.4420004z"/><g><path fill="#CBAC14" d="M162.89700413 46.15699673v8.90799999l-.125 8.2840004-17.37800026-4.64400053.37800026-6.52399981 13.24900007-7.53200043 3.87599993 1.50800038z"/><path fill="#F3D65D" d="M152.39601135 48.41399622l10.5 6.65099996-.125 8.28499991-8.75099992-2.3829999-1.62400008-12.55299997z"/><path fill="#DDDDDC" d="M162.44900668 40.69199562c-2.43799997-.82600021-5.08300007.48900008-5.90599978 2.93599999-.82299996 2.45200002.48799991 5.10600007 2.92499983 5.93299997 2.44199997.82500028 5.08600008-.48899984 5.9089998-2.936.82200003-2.45299994-.48599982-5.10699998-2.92799985-5.93299996zM145.42301393 49.6769948c-2.44200004-.82500029-5.0869999.48899984-5.91000009 2.94099975-.82200003 2.44700002.48699999 5.102 2.92900002 5.9280002 2.43800008.82999993 5.08200014-.48900007 5.90500009-2.9360001.82700014-2.45200002-.48600006-5.10700011-2.92400002-5.93299985z"/><path fill="#737474" d="M163.89500785 44.64899582l-4.12199998-1.50500006-.5020001 4.64400006 1.62600005-3.38900006 2.99800003.25000006zM146.89601135 53.93699402l-4.00100004-1.50500006-.49899996 4.64400005 1.62400002-3.38900005 2.87599998.25000006z"/></g></g><g display="block"><path fill="#9DA1A2" d="M71.38700485 162.00500584l8.27999878 18.3249998 18.73700047-2.13199996 25.60599994 8.7859993 17.86499977-19.95899916-11.76599884-34.89099932-58.72200012 29.87099934z"/><path fill="#6F7173" d="M116.81700134 210.83300018l-14.49200058-10.67299938-3.92199897-21.96099949 43.47200012-11.17399978 11.43999862 35.14599895-36.49799919 8.6619997z"/><path fill="#8F8F8F" d="M74.87000275 291.66100693l4.57899856-75.4319992 18.95600057-38.02999879 16.45099902 23.97200012 4.68400002 59.87199974-11.32799912 28.23900032-33.34199905 1.3789978z"/><path fill="#858686" d="M38.00500298 271.95800781L75.3840022 291.6620102l23.02000093-113.46300125-27.01700067-16.4450035-8.75099993 28.86800384-25.88099956 23.84699821 7.1289997 38.40999985-5.8789997 19.07900047z"/><g><path fill="#2B2B2B" d="M41.8049984 299.43100977c.74900055-.125 31.12999975-6.65500021 31.12999975-6.65500021l28.62799967 11.1740002-33.62799978 11.29400021-26.12999964-15.9380002v.125z" opacity=".1"/><path fill="#BE8E00" d="M54.18299985 301.68800735L43.9329996 248.2210064l-5.8789997-5.27599907 5.1289997.75699997-.125-4.644001 17.375-.37599945 5.125 42.54900074-2.87300014 24.34899807-4.37599993.62700271-4.1259997-4.519001z"/><path fill="#CBAC14" d="M49.05699873 238.93300629h3.62699991l5.62499994 67.27400207-4.12699991-4.519001-5.12499994-62.75500107zM71.31200123 236.67200851l-10.87800026 2.01099778 2.25100016 66.89699936 3.751-3.13899804 4.8760001-65.7689991z"/><path fill="#E4C728" d="M56.18200135 227.38300371l-13.12399983 11.6750002 17.49899983 3.76599979 10.75499988-6.15199983-15.12999988-9.28900016z"/><path fill="#BE8E00" d="M51.80600071 272.44499922l-13.6280005.125-6.3740003-8.03400019 2.87700032-7.6580002 7.37300007 10.04500008 9.25200041.12600016.5 5.39600015z"/><path fill="#E4C728" d="M42.80399948 263.78400344l-8.12200027-6.90599984 5.4990003 11.80099964 11.37500025.125-.375-4.14199984-8.37700028-.87799996z"/><path fill="#BE8E00" d="M69.93300176 254.2440095l7.62799978 1.631-7.87799978 2.51300005.25-4.14400006zM73.06000042 303.44399643l1.6239996-27.23300076 24.25599956 4.89500046-12.0029996 23.22000027-8.00200004 1.75500011-5.87499952-2.63700008z"/><path fill="#CBAC14" d="M80.68800414 277.46401024l8.74800002 1.63099956L78.935004 306.08201027l-2.99699998-1.25399971 4.75000012-27.36400032z"/><path fill="#E4C728" d="M88.81100404 270.55900097l-14.12799966 5.65199977 5.50499964 4.51799983 18.75299978.37599993-10.12999976-10.54599953z"/></g></g><g display="block"><path fill="#2B2B2B" d="M632.69300842 247.21299815l-93.65300178 20.02999997-64.95300102-25.4460001 24.57300186-9.06400013 73.22999954-1.38599968 33.8409996 8.39799977 26.9620018 7.46800017z" opacity=".1"/><path fill="#6F7173" d="M566.13200474 255.23900032l31.78999996-8.77200031-2.2290001-15.49800015-29.0029993 6.53200007-3.35200023 9.15200019 2.79399967 8.5860002z"/><path fill="#9DA1A2" d="M512.02100563 252.8139968l54.11000061 2.4249997.55799866-17.73799943-52.62399864-2.79799986-4.64999962 6.90799975 2.60599899 11.20299983z"/><path fill="#737373" d="M493.42600632 236.00899935l18.59599971 16.80499983 2.04399968-18.11100007-13.2029996-8.95899963-7.4369998 10.26499987z"/><path fill="#8F8F8F" d="M595.69300842 230.96699852l-29.18900108 11.76199966-52.99600029-2.98399925-12.64500046-14.0010004 16.73800087-5.7869997 63.58999825 1.30599975 14.50200271 9.70399994z"/></g><g display="block"><path fill="#CBAC14" d="M529.49796295 133.52100325l24.36099947 2.05900001 25.65499937 1.11800003.75-3.54900002-.18599891-5.59500003-25.66200051 2.61000001-24.91799942 3.357z"/><path fill="#E4C728" d="M580.07796288 127.5530026l-25.66300083-2.0580001-26.5910008-.56000017v3.55100023l1.6740017 5.0350002 50.57999993-5.96800016z"/><path fill="#755800" d="M553.30096442 119.52000356l-4.46500022 6.53499984 10.41600037.56500006-5.95100015-7.0999999zM580.07796264 127.55300331l3.34399992 2.61200023 2.97100013 4.29599991-7.25 6.15400014-.37200021-2.61100007.74300003-1.30400013.56400013-9.14700008z"/><path fill="#CBAC14" d="M580.0779624 127.55300248l.74100017-4.11000002 2.6029999-4.6689999 2.415 8.9649999.55500006 6.72099996-6.31400013-6.90699994z"/><path fill="#BE8E00" d="M583.42196226 118.77400398l10.04399967 12.32299996-7.07199979 3.36499977-2.97199988-15.68799973z"/><path fill="#846400" d="M580.07796252 127.55300236l3.34400022-8.77900017 2.04299974-4.8490001-12.63899994 6.72100014-1.86299991 6.53300006 9.11499989.37400007z"/><path fill="#BE8E00" d="M581.3789649 116.35000348l-8.18100023-10.45099997-3.34899998 4.10399985-2.04400015 3.55000009 2.60000038 4.47600017 2.97999978 2.98999977 7.9940002-4.6689999z"/><path fill="#CBAC14" d="M573.38396263 121.01900303l-5.58000004-7.46700012-4.09399998 4.8490001-4.45799995 8.21900021 11.71000004.55999995 2.42199993-6.16100014z"/><path fill="#CBAC14" d="M573.19896317 105.89900327l-17.11000062 2.79799986 7.62200028 3.54400014 4.09300012 1.3119998 5.39500022-7.6539998z"/><path fill="#BE8E00" d="M567.80396461 113.55200338l-11.7159996-4.85500002.55699968 6.7199998 2.60700012 11.204 8.5519998-13.06899978z"/><path fill="#755800" d="M522.24696398 134.27400184l8.5579996 5.22300005-.37799977-3.73100001-.92900014-2.24400014-3.3439999-.3729999-3.9069998 1.125z"/><path fill="#CBAC14" d="M559.25296354 126.62100315l-5.76699985-6.34800053-3.72100006-3.17599976-1.8579998-2.98500001 2.60199975-3.73699999 2.79200009-2.79699993 2.04300007-2.61900044.745 3.73900033 3.1639998 17.92300033z"/><path fill="#BE8E00" d="M547.90796357 114.11200333l-3.53600007-2.61800003-2.97200012-4.47600007.55700016-4.48200012 11.34500027 5.04200012-5.39400024 6.5340001z"/><path fill="#846400" d="M547.90796328 114.11200285l-6.50800017-7.09400034-5.76400015 4.10300016.92799998 6.16200018 2.2360003 8.2130003 6.32099986-6.72100043 2.78700018-4.66299987zM523.7329641 124.74900341l-5.2009998 10.08500004 10.9659996-1.31200004-1.67299985-8.5860002-1.671-.55999994-2.42099995.37300014z"/><path fill="#BE8E00" d="M535.63496399 111.12100267l-5.02200008 2.8039999-2.41600012 2.79799986 3.72200012 3.36300004 6.88000011 5.4089998-3.16400003-14.3739996z"/><path fill="#CBAC14" d="M535.63596344 111.12100339l-14.13199997-.18700004 6.69399998 5.78999996 7.43799999-5.60299992z"/><path fill="#CBAC14" d="M528.19696343 116.72300291l-10.40899956 7.83900023 10.03699955.37399983 10.97499958.55900025-10.60299957-8.7720003z"/><path fill="#BE8E00" d="M547.9079634 114.11200237l-9.10899985 11.38300038 3.15700006 8.77900028 6.87999988-8.21900034 4.65099978-5.78200007-5.57899987-6.16100025z"/><path fill="#DEBCA4" d="M579.51296234 136.69900322l-3.15699959 34.90799904-15.98899984.18599987-2.97799993 2.79900074-2.78700006 3.92099953-7.62300002 2.23900032-6.88000012 3.54999923-3.35000038-19.4159994-2.97299957-11.0159998-2.04299927-9.8909998.37199974-4.29699993-2.6079998-6.15999985 50.01599884 3.17700005z"/><path fill="#8A6651" d="M539.54196477 150.5130043l-1.11400008-5.04199981-3.53600002.74599993 4.6500001 4.29599988z"/><path fill="#C2977B" d="M549.20896482 134.64700508l1.30099988 37.33300018 9.85699964-.18700027-5.76399946 6.72100067 3.1500001 7.09399986-10.95900018-.55900001-7.56900018 2.27400017-.98399973-12.35900116-4.4659996-21.09299946 9.10999965-1.86600018-.92799997-5.60200023 4.83699983-.93200016-2.04999989-11.01000023 4.46499991.18600082zM555.15996408 142.11400223l4.27699996 1.306 2.786 8.5849998.37299991-13.25399972-7.43599987 3.36299992zM568.73396444 138.93600225l-.37199998 10.27200032 3.34400005-5.79000014 4.46400004-.93199998-7.4360001-3.5500002z"/><path fill="#846400" d="M562.59696317 138.75000298l-7.80999995.18800008.37199998 3.176 7.43799997-3.36400008zM568.7339623 138.93700182l7.80800009.37300003-.37199998 3.17699993-7.43600011-3.54999996z"/><path fill="#E7C9B5" d="M568.73396587 138.9360013l-6.138-.18700027-.37200023 13.25600004 6.13800002.18600035.37200021-13.25500012z"/><path fill="#8A6651" d="M568.36196494 152.19100177l-3.164 2.99199999-2.97400001-3.17799998 6.13800001.186z"/><path fill="#755800" d="M558.31896448 159.09800434l6.69300002-1.865 5.95100003 2.426-5.95100003 1.87-6.69300002-2.431z"/><path fill="#B48A00" d="M572.82496262 159.09800363l-8.00100002 2.05200006-8.73500005-2.79800012 8.54900003 5.60200024 8.18700004-4.85600018z"/><path fill="#755800" d="M543.628963 151.81700373l2.05000018 9.89299988-9.86000013 2.05699993-2.04400015-9.898 9.8540001-2.05199981zm-7.25099993 3.92299986l1.11299991 5.41000008 5.39499998-1.11899996-1.11399984-5.41000008-5.39400005 1.11899996z"/><path fill="#B48A00" d="M538.98496479 148.46100283l-2.23499996.55999994 1.49099994 7.46600008 2.41499996-.3729999-1.67099994-7.65300012z"/><path fill="#846400" d="M544.74396372 134.46000195l2.04999971 11.01099968-4.83699965.93200016-.92900014-4.28900004-9.29500008 1.86500025-2.23499965-10.45800018 15.2459998.93900013z"/><path fill="#8A6651" d="M560.36696196 171.79299998l-13.38799954.1869998 7.62299979 6.533 4.09399974-3.5499999 1.671-3.1699999z"/><path fill="#2B2B2B" d="M575.79996443 145.84400368l-5.58199978-.18699998.1869998 1.49199998 5.39499998-.373v-.932z"/><g><path fill="#2B2B2B" d="M553.85896373 145.2840026h6.13600015l-.18500018 1.49199999-5.95099997-.373v-1.11899999z"/></g></g><g display="block"><path fill="#464646" d="M558.6959877 174.96299744l10.22399902 3.55000019 7.9940014 15.49399948-1.66500092 1.74600029-6.94599915 7.09899998-38.18900108 1.40299987-6.04899979-9.6960001-1.75300026-1.19399976 7.92900086-15.03700018 8-3.36499977 8.55299973 10.08500003 11.9020002-10.08500003z"/><path fill="#846400" d="M569.1049881 224.24599743l-6.50900078 11.3909998h-28.44799995l-6.50699997-10.63899995 2.04300117-26.6960001 3.34999943-3.92199993 3.34299946-1.86600113 26.03299999-1.3069992 3.16599941 1.49399948 3.34300041 4.4829998.18600083 27.06200123z"/><path fill="#BE8E00" d="M568.91998959 178.51299667l-.05300022 22.26500035-6.45700001-9.56999994.7440002-14.74600005 5.76600003 2.05099964zM535.26298857 176.27499676l1.11400008 16.23900032-6.80600023 6.06500053.67000007-20.2510004 5.02200008-2.05300045z"/><path fill="#9D7700" d="M540.84198856 215.09899712h17.66200066v-17.91600037h-17.66200066v17.91600037z"/></g><path fill="#DEBCA4" d="M517.3170166 207.18399906l6.74799985-12.6260004 5.50599986 4.02100038-.62599993 9.44500017-3.53299987 4.65400029-5.58099997-4.11200047-2.51399994-1.38199997z" display="block"/><path fill="#C2977B" d="M520.12298346 202.34700012l-14.67699957 1.07599974.55700016 7.2800002 19.40899944 1.97399999-5.28900003-10.32999993z" display="block"/><path fill="#DEBCA4" d="M581.70200443 205.88500452l-5.82800024-10.69899988-7.0080002 5.59199977v5.21400022l4.33100033 6.68399978 5.57299995-4.10899973 2.93200016-2.68200016z" display="block"/><path fill="#C2977B" d="M578.69099808 201.21800232l15.32299995 2.50600004-.74400043 5.97400022-20.07199955 2.79200005 5.49300003-11.27200031z" display="block"/><g display="block"><path fill="#C2977B" d="M601.07801938 202.41799675l-7.80800009 7.27999987.74500013-5.97399986 2.97099992-8.39799988h2.60800007v4.10899996l1.48399997 2.9829999z"/><path fill="#DEBCA4" d="M603.40701962 204.79799676l-10.13700009 4.90099978.74399996-5.97499978 4.64300013-2.05199999-1.85700012-2.42399996 2.79400012-3.92299986 6.79200009 4.80299973-2.9790001 4.67000008z"/></g><g display="block"><path fill="#C2977B" d="M498.3809812 202.1149948l7.62200022 7.2819998-.55700016-5.9749998-2.97899994-8.3989998h-2.59899989v4.10999989l-1.48700022 2.9819999z"/><path fill="#DEBCA4" d="M494.65898132 204.3619951l11.34399987 6.3410002-.55599976-7.28100014-4.65100026-2.05200004 1.67199993-2.42400003-2.5999999-3.9230001-8.181 4.66800023 2.97200012 4.67099988z"/></g><g display="block"><path fill="#DEBCA4" d="M538.79900217 221.2619996l9.48000002 1.1199999v9.71199989l-1.3000002 1.86399984-1.11499976.55999994-8.37300015-8.95899987 1.3080001-4.2969997z"/><path fill="#C2977B" d="M548.27900529 222.38099861l-3.15899992-.37099933 3.15899992 3.1749997v-2.80400037zm0 3.17800045l-1.11399996 5.78799997-1.85999996 2.05100002-2.04799992 2.42499995 4.83599997 4.4829998v-14.74699974h.18599987z"/><path fill="#8A6651" d="M548.28000844 230.5939989l-1.67400003 8.033 1.67400003 1.6789999v-9.7119999zM537.4910028 225.55899823l.19200015-2.43299997 1.11599994-1.86400008 4.64400005.55999994-4.45900011 5.22800016-1.49300003-1.49100005z"/><path fill="#BE8E00" d="M510.90800667 228.91499853l1.30100012-18.48199987 16.35899973 2.8029995-2.41499997 9.5190004-3.72199988 9.33799994-11.523-3.17799997z"/><path fill="#E4C728" d="M528.5690046 213.23699856l6.1360001 2.42500067-5.39400012 8.3989998-6.88000006 8.03200043 6.13800009-18.8560009z"/><path fill="#CBAC14" d="M534.70500708 215.66099834l-12.27199984 16.43199969 11.71500015 3.54400015 1.11499977-9.89299992-.55800008-10.08299992z"/><path fill="#E4C728" d="M534.70400643 215.66099834l5.20899988 2.24399996-5.7659998 17.73199988.55699992-19.97599984z"/><path fill="#DEBCA4" d="M557.9460063 221.2619996l-9.6659999 1.1199999v9.71199989l1.48500014 1.86399984 1.11399985.55999994 8.37300014-8.95899987-1.30600023-4.2969997z"/><path fill="#C2977B" d="M548.28000855 222.38099861l3.15700001-.37099933-3.157 3.1749997v-2.80400037zm0 3.17800045l1.11399997 5.78799997 1.85700002 2.05100002 2.049 2.42499995-4.83599997 4.4829998v-14.74699974h-.18400002z"/><path fill="#8A6651" d="M548.28000784 230.5939989l1.85599995 8.033-1.85599995 1.6789999v-9.7119999zM559.25200868 225.55899823l-.18700004-2.43299997-1.12-1.86400008-4.6450001.55999994 4.45800006 5.22800016 1.49400008-1.49100005z"/><path fill="#BE8E00" d="M589.55800533 227.98299837l-2.22900009-17.35800028-14.13200044 1.86600018-5.02300025.74499988 2.41600037 9.51900018 3.7210002 9.33800017 15.24700021-4.11000013z"/><path fill="#E4C728" d="M568.17500305 213.23699856l-6.13700008 2.42500067 5.39400011 8.3989998 6.88000006 8.03200043-6.13700009-18.8560009z"/><path fill="#CBAC14" d="M562.04000378 215.66099834l12.2709999 16.43199969-11.71500015 3.54400015-1.11499977-9.89299992.55900002-10.08299992z"/><path fill="#E4C728" d="M562.03900504 215.66099834l-5.20899987 2.24399996 5.7659998 17.73199988-.55699993-19.97599984z"/></g><g display="block"><path fill="#6F7173" d="M736.101017 237.25499535l-1.33499909 24.12499904-18.06300044 15.13499928-12.7219994-1.81799889 7.92599964-32.7510004 24.19399929-4.69099903z"/><path fill="#8F8F8F" d="M742.44201756 252.16499138l-12.26500035 3.2670002-18.60400009 20.35400009 28.86699963 5.02499962 7.34100055-20.94000006-5.33899974-7.70599985z"/><path fill="#DDDDDC" d="M712.90801716 230.67999268l17.89600038 5.15100002 8.6340003-19.34699965-16.27500033-7.6369996-10.25500035 21.83299923z"/><path fill="#8F8F8F" d="M708.40301895 218.99499321l14.89199972 9.2970004 16.14300013-11.81000089 12.51499939 38.19600105-11.47999954-.17000007-10.21200008.75600052-21.85799962-36.26900101z"/><path fill="#DDDDDC" d="M747.44801766 242.11299515l16.01900047 14.32399988-21.7760005 4.52399969-11.51400042-5.5289998 17.27100045-13.31899977z"/></g><g display="block"><path fill="#CBAC14" d="M732.5490532 164.91199398l-29.47499961-7.17400026-30.69299967-9.04400015.42099953-4.43900013 2.50499916-6.49100018 29.19500089 13.28600037 28.0469997 13.86200035z"/><path fill="#E4C728" d="M675.30705643 137.76399326l31.15499972 7.7510004 31.47099973 10.11299992-1.34199906 4.05900002-4.04300117 5.22500038-57.24099922-27.14800072z"/><path fill="#846400" d="M709.90605497 138.958992l2.84399987 9.48600007-12.46399975-3.55500007 9.61999988-5.931zM675.307055 137.76399279l-4.98400012 1.6720004-5.4340001 3.9699998 6.33600008 10.05000019 1.39600003-2.8630004-.24000001-1.89899969 2.92600012-10.9300003z"/><path fill="#CBAC14" d="M675.30705547 137.76399207l.64100027-5.10899997-1.22700023-6.64299965-6.36400008 9.51099956-3.4690001 7.88299954 10.41900014-5.64199948z"/><path fill="#BB8E2D" d="M674.72205544 126.01199245l-17.62800026 11.01499963 7.79500007 6.37899947 9.83300019-17.3939991z"/><path fill="#846400" d="M675.307055 137.76399279l-.58599997-11.75199986-.35099983-6.46400022 12.12199974 12.78800034-.296 8.53400016-10.88899994-3.10600042z"/><path fill="#BB8E2D" d="M678.1900549 123.93499264l13.73999976-9.08800015 2.3790002 6.23300004.89899968 4.93200016-4.86699986 4.23599983-4.61499995 2.34500026-7.53599984-8.65800014z"/><path fill="#CBAC14" d="M685.72605371 132.59299302l9.48000026-6.58200002 2.96099973 7.42100025 2.11900043 11.45700001-14.09000015-4.01900005-.47000027-8.27700019zM691.93105698 114.8469925l19.19599914 10.22599982-10.49499959 1.14799977-5.425-.2079997-3.27599955-11.1659999z"/><path fill="#BB8E2D" d="M695.207057 126.0119934l15.92000008-.94000053-3.37300015 7.63700033-7.46799993 12.18100047-5.079-18.87800026z"/><path fill="#846400" d="M740.75305176 168.82199144l-12.08399964 2.68600011 1.8909998-4.26200008 1.98900008-2.33400011 4.01.97200012 4.19399976 2.93799996z"/><path fill="#CBAC14" d="M700.28605461 144.88899231l9.1069998-5.03100014 5.68599995-2.44099998 3.42299985-2.59000004-1.43599987-5.58499991-2.29400014-4.45500017-1.4219997-3.82800007-2.22300005 4.11299992-10.84099984 19.81700039z"/><path fill="#BB8E2D" d="M718.50205374 134.82599258l5.24300003-1.67099976 5.23399973-4.14600003 1.10800028-5.4649998-15.31400013 1.24199963 3.72900009 10.03999996z"/><path fill="#846400" d="M718.50205183 134.82599258l10.47699976-5.81599998 4.33099985 5.69400024-2.59599972 8.24699974-5.92800009 8.92700005-4.86799991-10.65100002-1.41599989-6.40100003zM742.7210586 157.05799389l2.37899996 13.8369999-12.55200005-5.98200012 5.38500005-9.28500009 2.28899997-.125 2.49900008 1.5550003z"/><path fill="#BB8E2D" d="M733.31005347 134.7049923l5.68600023 6.79699993 1.68899965 4.07800006-5.65899992 2.49900008-10.23899984 3.79999971 8.52299988-17.17399979z"/><path fill="#CBAC14" d="M733.31005573 134.70399237l17.6760006 6.99800014-10.30100036 3.87800026-7.37500024-10.8760004z"/><path fill="#CBAC14" d="M740.68505406 145.57899237l9.24799991 13.63399982-11.99899995-3.5849998-13.14699996-3.75000012 15.898-6.2989999z"/><path fill="#BB8E2D" d="M718.5020535 134.82599068l6.28400016 17.05200004-7.1220001 9.02400017-4.91500008-12.45700014-3.35500002-8.58600008 9.10800004-5.033z"/><path fill="#DEBCA4" d="M672.38105583 148.6939888l-10.30200004 42.42700148 18.73000145 6.69899988 2.47799873 4.4619999 1.73700046 5.76300048 8.0539999 5.6099987 6.69500018 6.96500206 11.66299963-21.61200142 7.94199943-11.72799992 6.34900093-10.77299953 1.34199906-5.30300045 5.48000145-6.29200077-60.16800118-16.21800041z"/><path fill="#8A6651" d="M714.05805683 180.96799397l3.18999988-5.38600015 5.18199986 2.69300008-4.49699986 2.12800002-3.87499988.56500005z"/><path fill="#C2977B" d="M708.72105694 158.4889927l-16.30900002 43.38700007-6.68599987-.03199958-2.88000107 14.95900058 16.92700077 3.81599999 10.20399975-17.35300064 1.15000058-3.68700028 1.88299942-1.46999931 6.36800098-10.8300004-9.84500122-5.87200022 3.23300075-6.15299988-5.38500022-3.17299938 6.90299987-12.09200096-5.56299972-1.5zM698.945055 164.83199161l-5.67500018-.28799993-6.6090002 9.1839999 1.25600003-10.52900004 3.63300014-5.34099984 7.39500022 6.97399991zM684.03205538 155.66399097l-4.74400008 15.82999993-.10099998-11.431-5.21900007-3.1099999 10.06400013-1.28900003z"/><path fill="#846400" d="M691.5520544 157.85899305l8.9619999 3.37499999-1.56799984 3.599-7.39400005-6.97399999zM684.03205538 155.66399276l-9.2290001-2.54900002-.83500003 3.83800006 10.06400013-1.28900004zM688.39605522 183.63099098l-7.2599999-4.93899989-7.78199992.52600002 6.2249999 4.67799998 8.81699992-.2650001z"/><path fill="#BB8E2D" d="M671.21005535 177.83999205l8.62500036 5.54200005 11.50900042.334-12.29100037 3.0560001-7.8430004-8.93200015z"/><path fill="#846400" d="M714.28405333 159.98899364l-6.9029994 12.09199977 5.38399982 3.17400003 2.80999994-4.58399987 10.15100002 5.83599972 6.82299948-11.59499979-18.26499986-4.92299986z"/><path fill="#8A6651" d="M680.80905437 197.81899357l15.80200005 5.52400017-8.32300001 11.44400024-7.47900004-16.96800041zM714.14205551 184.23299408l-4.08000183 18.8919983 9.21100235-15.90799714-5.13100052-2.98400116z"/><path fill="#8A6651" d="M709.5910542 184.72199154l2.41000009 9.5039997 5.00200009-5.53799986-7.41200018-3.96599984zM702.2120533 191.666996l7.76600027 11.59799957 3.00400019-5.17399978-3.58800018-3.86500001-7.18200028-2.55899978z"/><path fill="#846400" d="M708.61005545 180.85699177l10.76800012 6.42299962-6.39600014 10.81099963-10.77000022-6.42299962 6.39800024-10.81099963zm.98099994 3.8659997l-3.52799987 5.96099996 5.93799984 3.54199982 3.52699983-5.96099985-5.9369998-3.54199993z"/><path fill="#BB8E2D" d="M715.3170538 178.8419919l2.615 1.56099987-4.90100002 8.28499985-2.6170001-1.56099987 4.90300011-8.28499985z"/><path fill="#E7C9B5" d="M684.03205538 155.66399193l7.51999998 2.1949997-4.88999999 15.86899947-7.37399995-2.2329998 4.74399996-15.83099937z"/><g><path fill="#8A6651" d="M679.2870543 171.49399233l2.57500005 4.81799984 4.79900002-2.58499992-7.37400007-2.23299992z"/></g><g><path fill="#2B2B2B" d="M690.47805429 169.21899414c0 1.278 1.03200006 2.3139999 2.30600006 2.3139999 1.272 0 2.30400007-1.0359999 2.30400007-2.3139999 0-1.278-1.03200007-2.3139999-2.30400007-2.3139999-1.274 0-2.30600006 1.0359999-2.30600006 2.3139999z"/></g><g><path fill="#2B2B2B" d="M674.9100554 164.04499435c0 1.278 1.03200006 2.3139999 2.30600007 2.3139999 1.27300004 0 2.30400006-1.0359999 2.30400006-2.3139999 0-1.278-1.03100002-2.31399989-2.30400006-2.31399989-1.274 0-2.30600007 1.0359999-2.30600007 2.3139999z"/></g></g><g display="block"><path fill="#C2977B" d="M659.84599972 204.67299509l-10.67999973 10.4699998-11.0119997-10.21899981 5.67299985-12.06299979 16.01899958 11.8119998z"/><path fill="#DEBCA4" d="M659.84600043 201.90899277l-7.75899958-11.30800057 3.5039997 12.31300068-6.42500018 12.2290001 27.6800003 13.56000041-17.00000024-26.79400062z"/></g><g display="block"><path fill="#484848" d="M669.69103163 202.41099358l-10.8459999-1.84300042 1.62599946 7.18300057 2.06500053 18.02999973 7.18999994 2.92300034 9.47699988 3.13399982-9.5119999-29.42700004z"/><path fill="#DEBCA4" d="M706.43003082 206.083992l19.93099976 26.60600043 1.25099945 11.18299913-10.2829996 3.0150013-3.29199997-1.38400078-7.60699964-17.0879997V206.083992z"/><path fill="#484848" d="M723.16303205 208.84699345l3.19799996 23.84499931-9.93599987 1.2709999M710.11303139 202.8489933l-22.50699997 12.3109994 8.32000017 20.16299962 20.64400053-2.62599945-4.52000046-28.95699977-1.93700027-.8909998z"/><path fill="#484848" d="M682.45603251 201.55399323l-3.25200009 1.01299858-9.47699976 26.13700008 19.33099985 8.13799953 10.02699995-.66199874-16.62899995-34.62599945z"/><path fill="#BB8E2D" d="M723.16303158 208.845994l-11.11299998-5.1070013-9.71699995 32.58000182 14.09200001-2.3560009 6.73799992-25.11699962zM669.72803164 228.70499325l8.9039998 4.47700023.57299995-30.61299991-9.51399993-.15700054.03700018 26.29300022z"/><path fill="#846400" d="M716.42503166 233.96299267l-.67100143 20.40699959-22.4359995 10.25999927-23.59100093-22.61999923V228.7039919l9.13800049-8.0559988 27.0350008 3.71299934 10.52500057 9.60200024z"/><path fill="#755800" d="M715.75403214 254.36999297l-11.39500046-2.33299988-14.12499953 3.54699987-10.30299997-10.62099982-10.20400047-2.95300054-.93099976 13.94000053 45.76300049 5.21800042 1.1949997-6.79800058z"/><path fill="#9D7700" d="M698.26903057 230.64399338l-18.00199985-2.59899998-.3359995 16.91899967 17.59299947.62699986.74499988-14.94699955z"/><path fill="#C2977B" d="M692.55103159 243.28699411l-4.33899999-3.76899994-8.2809999 5.44599998 8.60699988 5.8089999.00800013-3.339 4.00499988-4.14699994z"/><path fill="#DEBCA4" d="M702.22803164 247.80999184l-4.54699994-5.50699997-9.46899986-2.78600025.33400011 7.91600012-.16400003 3.2360003 9.6789999-.44799995 4.16699982-2.41100025z"/><g><path fill="#C2977B" d="M697.68202972 242.30299282l29.9300003 1.5710001-11.82700013 11.30700016-17.72400046-4.96000016-.3789997-7.9180001z"/></g></g><g display="block"><path fill="#2A2B2A" d="M664.71600914 268.07998466l74.90600014 12.1570003 17.77799988 2.885-67.16499997 15.329-97.39000034-14.089 45.73699951-10.09899973 16.10000038-7.81099987 10.0340004 1.6279993z" opacity=".1"/><path fill="#9D7700" d="M653.10200882 235.87498474l16.62599993 6.13500118 18.30899954 15.78399969-12.15999985 15.07100081-7.6799996-.78100014-7.74400019-8.18900108-17.04999924-9.29599962 9.69899941-18.72400084z"/><path fill="#9D7700" d="M679.62300873 262.93298483l-1.43799973-1.6040001 1.31799889.80700017-.12099838-.80700016 2.00799942-4.61000014.90999984-5.82800006 1.27900029.80200004 1.18999958-2.73099995 9.70600009 6.84700013 9.88499999-3.77200032 10.20099973 9.13200045-4.90699958 22.82700014-15.71300006-.96999931-8.72299981-13.85000086-4.94900036-1.94100004-.64599991-4.302z"/><path fill="#DEBCA4" d="M648.49700737 273.9699856l-.7680006 7.70999992h-11.3409996l-3.74900008-1.84499979-3.204-3.11400008 10.03000016-10.12600016 4.89300018-.16699982 4.13899994 7.54199993z"/><path fill="#C2977B" d="M647.72900963 281.6799841l.60000038-6.0250001-6.63599968 6.0250001-14.31200027-7.316-9.28800011 7.316h29.63599968z"/><path fill="#8A6651" d="M641.98600984 264.04998302l4.00100004.39100028 3.27600015 1.81899976-.76600028 7.71000004-9.03200006-7.375 2.52100015-2.54500008z"/><path fill="#DEBCA4" d="M688.898005 276.6089859l5.04400016 6.41599977 1.70899963 10.1819998h-8.99699972l-4.18400003-3.64899969-4.4449997-5.37900007 3.43599987-5.97500002 7.4369998-1.59499979z"/><path fill="#C2977B" d="M678.46701002 283.7099843l-9.07200003 9.49800015h26.25600052l-1.1590004-6.89900017-4.75 6.89900017-11.27500009-9.49800015z"/><path fill="#8A6651" d="M692.66001177 275.38598323l-3.23100007-2.00399995-5.25300014.10200024-2.71600008 4.71999979 12.48200035 4.82200002-1.28200006-7.6400001z"/><path fill="#BB8E2D" d="M679.9320097 244.96398544l24.4279995 7.07299996-3.36499978 28.15699959-27.36100006-2.88500023 6.29800034-32.34499932z"/><path fill="#E4C728" d="M676.10200977 264.62898397l26.23099995 4.35800004-1.3380003 11.2060001-27.36200046-2.8840003 2.46900081-12.67999984z"/><path fill="#CBAC14" d="M675.07001114 269.93298483l27.26399994-.9460001-1.33899975 11.20600033-25.9250002-10.26000023z"/><path fill="#BB8E2D" d="M653.10201001 235.87498474l11.01699996 32.1069994-5.4279995 6.24100017-22.90200042-7.58599948L653.10201 235.87498474z"/><path fill="#E4C728" d="M644.8060069 250.61598492l19.3119998 17.3659997-5.42700004 6.2420001-22.90299988-7.5869999 9.01800013-16.0209999z"/><path fill="#CBAC14" d="M641.06000805 257.2689848l23.05800056 10.71399974-5.42800045 6.24199963-17.63000011-16.95599938z"/></g><g display="block"><path fill="#ECECEB" d="M627.6419983 173.76399374l-2.00199891-10.21899986 8.50999927-1.0050006 5.84000063 4.1880002 19.85599947 2.6800002 2.67000008 3.68599998-31.87099934 6.19800043-3.0030012-5.52800035z"/><path fill="#E1A842" d="M633.31500053 186.32799268l5.17199994-15.74700094 24.02800083 2.5130005-2.00200081 34.84500121-22.35999966-3.01600074-4.8380003-18.59500003z"/><path fill="#BB8E2D" d="M625.63999987 163.54499435l12.84699964 7.0359993-.3329997 34.34199906-13.01499987-7.53799916.50099993-33.8399992z"/><path fill="#DEBCA4" d="M627.5999999 178.10899353L625.473 174.05799293l-2.84899992 9.73700047L625.19 192.96599388l2.40999991-14.85700035z"/><path fill="#C2977B" d="M630.10299993 178.07699394l-4.63000012-4.0209999-.28200006 18.90999984 4.78700018-6.97299981.125-7.91600013z"/></g><g display="block"><path d="M194.97500229 258.19698858l45.72000027-5.36099958.33399963 8.37699962 29.6999998-2.34599996 58.23300363 7.07299995-55.56300354 10.18199969-41.54800034-7.53899956-60.56999588 2.17799997 23.69399643-12.56400013z" opacity=".1"/><path fill="#BE8E00" d="M188.72400177 268.27199745l-8.39200008-2.03300094 4.04200029-43.81699944 2.87599969-.5020008 7.37800002-.37599946 4.3460002 30.28900051-10.25000012 16.43900013z"/><path fill="#E4C728" d="M202.5560031 265.64799309l-13.83199979 2.6230011 3.86399985-46.54800034 7.67400026-.44200134 2.29399967 44.36700058z"/><path fill="#BE8E00" d="M219.21500373 260.78899193l-9.5849998-39.99699974 6.37499976-.25200081 10.62899995 21.33600026-.26299954 19.92000026-7.15600037-1.00699997z"/><path fill="#E4C728" d="M235.76500225 259.66999626l-9.39400011 2.125-10.36600012-41.2539997 8.75100017-.37600137 11.00900006 39.50500107z"/><path fill="#9B9FA0" d="M161.1200018 147.69599533l16.8800001 71.16599655 8.50199986-2.13199997-8.00299978-45.56199836-12.75299978-29.11799813-4.6260004 5.64599991z"/><path fill="#BE8E00" d="M183.99900198 145.18899393l-1.74900007-11.92600012 3.75199997-3.63999939 5.62399995 4.76899958 1.87400008 12.42699957-9.50099993-1.62999964z"/><path fill="#E4C728" d="M198.7550025 130.50399446l-12.75300026-.88200044 5.12500024 16.8220005 10.50100016-.3760004-2.87300014-15.56399966z"/><path fill="#ECECEB" d="M225.50600243 162.8829956l-31.50200081-13.9319992-24.50600052 6.52899933 2.3769989 8.91200065 7.12400246 9.66399956-2.3730011 7.15299988 9.87600136 35.52199936 52.13199997-.6269989-10.87600136-43.80700016-3.37599945-2.25800038 2.2520008-2.38599968-1.12800025-4.77000045z"/><path fill="#C7C7C6" d="M219.87800407 140.34399414l-54.13100051 1.70600033 3.75099945 13.42999959h17.37800026l18.12800025 9.28799987h8.6269989l2.2480011-1.63399983 9.62599946-.2510004-5.6269989-22.53899956z"/><path fill="#F3D65D" d="M219.87900114 140.34299374l-16.26999998.37699985-2.8550005 6.97600031 1.37300015 7.408 7.25400019 4.76899957 7.87300014.1260004 6.75200033-3.26600027-4.12700033-16.38999986z"/><path fill="#C7C7C6" d="M172.1250019 165.01899529l4.5 16.18900012 17.7540002-.2510004 4.1209998-6.39899981 13.87699986.50199997 3.25199986-2.38700002 12.12800026-.37699997-1.12400055-4.644-12.5029993.50600004-4.50100041 3.00999988-10.99899972-.25199998-6.005-6.39800024-7.87199973.125-2.75300026 2.13100004-6.62400055.1260004-3.25099945-1.88100003z"/><path fill="#F3D65D" d="M233.25800133 194.38799286l-3.37700033-13.55699968-10.75 1.25899982.49900007 2.3829999-7.37800026.62700009.25 1.884 4.7510004.126 1.37799979 3.3859999 4.50200006.12600017 4.6249998 4.01699973 5.50000047-.25099993z"/><path fill="#846400" d="M183.74900246 207.0659926l2.7519989 9.66499972 51.50799942-.62699986.25-1.50899982-28.75399912-23.2159996-16.00499975 1.5050001-9.75099945 14.18199945z"/><path fill="#8F8F8F" d="M177.62500286 217.23099327l8.25100017-2.51000023 3.62700009 3.13800013-2.25300002 4.76899994-8.5020001 1.5090003-1.12300014-6.90600014z"/><path fill="#ECECEB" d="M241.45300102 211.98199272l-55.57600021 2.73799992L187.25 222.62799263l54.02700043-2.5869999.1760006-8.059z"/><path fill="#F3D65D" d="M205.1300025 186.4789977l7.49700022 7.4059998-4.87400008-.75000001-3.24800014 4.76899993-4.25-3.76599993-7.12799978 7.2809998-1.62400055-5.65099979 3.12700033-8.78400016 10.5-.50499963z"/></g><g display="block"><path fill="#DEBCA4" d="M264.554986 261.11299545l-.50600004 5.08299988h-7.477l-2.47199988-1.21599984-2.11100006-2.0530001 6.611-6.67599975 3.22599989-.11100007 2.72900009 4.97299988z"/><path fill="#C2977B" d="M264.04898548 266.1969924l.39500046-3.97399986-4.375 3.97399986-10.73500013-5.44999981-4.82399989 5.4499998h19.53899956z"/><path fill="#DEBCA4" d="M291.76298583 256.1399951l-3.31399978 4.2160002-1.12200021 6.68800008h5.91000003l2.74899989-2.39700007 2.91900014-3.53400007-2.25800013-3.9249998-4.88399994-1.04800034z"/><path fill="#C2977B" d="M298.61498547 260.80599546l5.95899963 6.23799992h-17.2479992l.76199962-4.5309999 3.11999988 4.5309999 7.40700007-6.23799992z"/><path fill="#8A6651" d="M260.26198661 254.5729947l2.63800001.25699998 2.15999997 1.20000005-.50600004 5.08299994-5.954-4.86199999 1.66200006-1.67799997zM289.29198456 255.33699536l2.12199998-1.31500005 3.45099997.06500005 1.783 3.101-8.19799996 3.16800006.842-5.01900006z"/><path fill="#BE8E00" d="M258.31998634 215.3999939l11.08399964 4.49600029 10.86600017 6.1599996-6.81400013 18.3440001-10.52000022-2.22799968-10.22400021-3.9470005 5.60800075-22.82499981z"/><path fill="#E4C728" d="M273.45698643 244.39899477l-2.41300011 6.9020001-9.39400005-5.76700008-8.93900013-7.30900013 20.74600029 6.17400011z"/><path fill="#CBAC14" d="M271.04498577 251.30299282l-18.33399963-13.079-3.61800003 12.95700026 10.94399983 1.079 11.00799983-.95700026z"/><path fill="#E4C728" d="M271.04498577 251.30199504l-2.4130001 5.81299996-19.53899956-5.93400001 21.95199966.12100005z"/><path fill="#BE8E00" d="M280.27098751 226.05499363l1.50799942 17.73999977 10.8890004-1.20899963 12.87099983-2.9090004-1.86999989-23.30999947-13.78399992 4.75699997-9.61399984 4.93099976z"/><path fill="#E4C728" d="M305.53898525 239.67799425l-12.09600012 7.03199983-11.06100042 4.59199977-.60299969-7.50699985 23.76000023-4.11699975z"/><path fill="#CBAC14" d="M305.5389843 239.67799473l1.20600033 11.74599981-13.29900015.61199999-11.06500017-.7329998 23.15799999-11.625z"/><path fill="#E4C728" d="M282.38198471 251.3019929l24.36199951.1209998-23.75899982 5.329-.60299969-5.4499998z"/></g><g display="block"><path fill="#474747" d="M269.65099812 161.54200745l-4.94299984 1.6619997-2.73999978 2.62100029-3.58799934-.49399948-6.75400162 6.90099966 1.94000054 6.3299998 4.93499946 7.35300017 42.93600083 1.08899975 5.13800049-4.34999943 3.9090004-5.33600044-9.65000153-12.1079998-3.67399979-.47799969-1.8569994-1.89900017-5.52999973-2.375-8.5380004 6.16399956-11.5840003-5.07999992z"/><path fill="#846400" d="M258.32099915 215.4010067l21.9499998 10.65600014 23.39799977-9.68799973-2.230999-29.36400032-3.64100074-4.15600014-3.65600014-2.07900047-28.58399963-1.57499886-3.37800026 1.79599953-3.67700005 4.92500115-.18099975 29.4849987z"/><path fill="#BE8E00" d="M258.38099885 165.3300085l.12100005 20.5849991 7.05500007-6.71999932-.84599996-15.98999977-6.33000016 2.125zM295.30499768 162.83300781l-1.16400003 17.93600035 7.296 6.23600054-.602-21.79600048-5.52999997-2.3760004z"/><path fill="#9D7700" d="M270.26499939 205.95500755h19.29199982v-19.74200058h-19.29199982v19.74200058zM258.43599844 196.63200736l2.17600006-1.57500005 2.17199999 3.99700001-2.89599997-.485-1.486 3.51400002.03399992-5.45099998z"/><path fill="#CBAC14" d="M271.10599846 208.3770094l3.13599997 2.54400014-.48399996 2.54200006-4.10000003 3.02800011-1.56799996-6.41800022 3.01599998-1.6960001zM289.55799985 203.89700651l-5.06500006-1.69499993.48200011-4.11700007-2.4130001-.96900002 1.44799995-3.995 1.32700008.4840002-.12099999 1.9369998 3.135-.2420001 1.207 3.02700011.45000006 2.48300012-.45000005 3.0869999z"/><path fill="#9D7700" d="M279.6679982 209.71000683l3.13599991-.84800005-.72399997 3.3900001-2.29100001-.3620001-.12099994-2.17999995z"/><path fill="#B48A00" d="M289.55799794 198.32700706l4.0999999.60500001-1.92999995 4.96500016h-2.16999995v-5.57000017z"/></g><path fill="#DEBCA4" d="M301.43798828 187.00501646l11.579 9.56599985 1.51000023-5.88999986 1.6869998-6.57999993-5.73000002-6.78399992-9.046 9.68799986zM242.21899414 180.28500202l9.40799975-8.05200031 6.87399984 13.68300009-6.93499982 2.36100053-6.3410002-2.22100019-3.00599957-5.77100012z" display="block"/><g display="block"><path fill="#E4C728" d="M318.20301151 176.34901428l23.39700032 3.51099968 7.47799873 20.10100016-10.61299896 16.8320004-21.34800005 7.50799943-21.16699934-4.73600006 1.98999977-20.08799977 15.07699966-2.90599995 5.18599987-20.22199989z"/><path fill="#C2977B" d="M323.63001156 186.64101362l2.56599998 2.52099991 3.70499993 2.32300007-5.18699992 8.2340001-5.78899992-4.84300006 3.05900002-4.62399996 1.6459999-3.61100006z"/><path fill="#8A6651" d="M320.75301147 196.40401411l1.91200006-5.76600003 7.23599994.84799999-6.27099991-4.84400004-4.70499993 8.23399996 1.82799984 1.52800012z"/><path fill="#DEBCA4" d="M322.66501188 190.63701534l7.23700023.84899998 2.04900002 7.77599978-2.25800013 1.24699998-7.02800012-9.87199974z"/><path fill="#474747" d="M334.04201245 187.14001381l4.52900005-1.66900003 1.66100001 4.546-4.52700007 1.67000008-1.66299999-4.54700005z"/><path fill="#802D00" d="M336.93601298 195.1320144l4.52899993-1.66900004 1.66299999 4.546-4.52899993 1.67000008-1.66299999-4.54700005z"/><path fill="#A84000" d="M334.04201245 204.09201348l4.52900005-1.66999996 1.66100001 4.54799998-4.52700007 1.66999996-1.66299999-4.54799998z"/><path fill="#CC4E00" d="M326.685014 210.14701378l4.52900005-1.66900003 1.66100002 4.546-4.52700007 1.67000008-1.663-4.54700005z"/><path fill="#ED8600" d="M318.48401189 213.17401421l4.52700007-1.66999996 1.66299999 4.54799998-4.52700007 1.66999996-1.663-4.54799998z"/><path fill="#FF9B01" d="M309.19701123 213.4160148l4.52900005-1.66900004 1.66100001 4.546-4.52700007 1.67000008-1.66299999-4.54700005z"/><path fill="#F3D65D" d="M300.99601197 208.69401467l4.52900005-1.66900003 1.66100001 4.546-4.52700007 1.67000008-1.66299999-4.54700005z"/><path fill="#8A6651" d="M322.6650126 190.63701487l2.051 9.08199977 2.087-3.31499993-4.138-5.76699984z"/><path fill="#CBAC14" d="M326.80301192 196.40401459l2.891 4.10400009-4.98000001-.78900004 2.08900001-3.31500005z"/></g><path fill="#C2977B" d="M251.56700134 188.27700329L234.7780018 173.7290039l-5.57299996-.31900025.94299984 6.58899975 9.4249999 12.16499996 11.99399977-3.88700008z" display="block"/><g display="block"><path fill="#8A6651" d="M234.77800608 173.72900546l-4.6300002 6.27100026-4.2460002-1.49100017 3.3770002-8.77900029 5.4990002 3.9990002z"/><path fill="#C2977B" d="M222.11900592 167.23700619l-5.28299976 7.62799978 1.17799998 1.6500001 7.45699978-3.1040001 5.71299982-6.7880001-9.06499982.61400032z"/><path fill="#858686" d="M249.6130066 152.78100586L227.58100604 176.687006l-2.43499947-1.92100048-1.36500072-2.58199978 25.83200073-19.40299988z"/><path fill="#BE8E00" d="M218.92200613 182.85400593l-.66700006 3.58899999-6.0309999.84899986 1.32599998-3.14899987 2.68800002-.65899998 1.6059999-1.22799993 1.07800006.59799993z"/><path fill="#846400" d="M218.01400626 176.51400638l-1.77400005 6.96999979 6.47800016-1.52099991-2.1270001-3.176-2.57700001-2.27299988z"/><path fill="#8F8F8F" d="M230.42700577 173.5990057l-7.7099998 8.36399984-4.70399976-5.4479999 5.76699978-4.33199983 6.64699978 1.41599989z"/><path fill="#DEBCA4" d="M232.127007 177.31900644l-1.70100009-3.72000003-5.33500015.63400007-1.31099987-2.05000009 7.40300011-5.56000005 3.59500003 7.107-2.65100002 3.5890001z"/></g><g display="block"><path fill="#CBAC14" d="M311.46700478 123.59400463l-25.93299985-6.3119998-27.00499988-7.95799994.36999893-3.90499997 2.20400048-5.71099997 25.6870005 11.68999985 24.67699982 12.19599983z"/><path fill="#E4C728" d="M261.10400581 99.70800495l27.4130006 6.81899977 27.6890006 8.898-1.18200112 3.57200027-3.55599976 4.59699964-50.36400032-23.88599968z"/><path fill="#755800" d="M291.54400682 100.75900698l2.50299979 8.34599971-10.9659996-3.12899982 8.46299981-5.2169999zM261.10400629 99.7080059l-4.3850001 1.47099972-4.78300012 3.4920001 5.5760001 8.84299994 1.22800004-2.51900005-.21200013-1.67099977 2.57600021-9.61599993z"/><path fill="#CBAC14" d="M261.10400581 99.70800662l.56299973-4.49599993-1.07799983-5.84499991-5.5999999 8.36899996-3.05199981 6.93499994 9.16699981-4.96300006z"/><path fill="#BE8E00" d="M260.58900547 89.36700678l-17.43400001 9.8829999 8.781 5.421 8.65300001-15.3039999z"/><path fill="#846400" d="M261.10400534 99.7080059l-.51499987-10.34099984-.30900001-5.68799948L270.944005 94.93200612l-.25899982 7.50899959-9.58099985-2.7329998z"/><path fill="#BE8E00" d="M263.64000511 87.5400065l12.0880003-7.99600015 2.09399986 5.4840002.78999996 4.33899999-4.28200006 3.72799993-4.06 2.0630002-6.63000006-7.61800017z"/><path fill="#CBAC14" d="M270.27000618 95.15700722l8.34200013-5.78999996 2.6049999 6.52799987 1.86500024 10.07999993-12.3970003-3.53499985-.41499997-7.283zM275.72900772 79.54400635l16.8899994 8.99599981-9.23399968 1.00999975-4.77299982-.1829996-2.8829999-9.82299996z"/><path fill="#BE8E00" d="M278.61300516 89.36700726l14.00599957-.82700062-2.96700001 6.72000038-6.57099986 10.71600044-4.4679997-16.6090002z"/><path fill="#755800" d="M318.68600273 127.03400654l-10.63199997 2.36200004 1.66400004-3.749 1.75-2.05300004 3.52899992.85400009 3.68900001 2.5859999z"/><path fill="#CBAC14" d="M283.0820055 105.97600555l8.01199954-4.42700004 5.00199992-2.14799977 3.01199961-2.27900004-1.26299953-4.91400003-2.01800013-3.91899991-1.24999976-3.36899996-1.95700014 3.61899996-9.5379995 17.4369998z"/><path fill="#BE8E00" d="M299.10800672 97.12200594l4.61300003-1.47099972 4.60500014-3.6480001.9749999-4.80699982-13.47399997 1.09299993 3.2809999 8.8329997z"/><path fill="#846400" d="M299.10900736 97.1220069l9.217-5.11899996 4.63500024 6.20499992-3.10800004 6.06200004-5.21600009 7.85499978-4.28300023-9.37199986-1.24499988-5.63099993zM320.41800594 116.68300629l2.09200001 12.17399978-11.04199982-5.26299989 4.73799992-8.16899979 2.01300001-.11000013 2.19899988 1.36800003z"/><path fill="#BE8E00" d="M312.96100378 98.20800543l4.1789999 4.7880001 1.48600006 3.58800006-4.97899985 2.19899989-9.00900006 3.34300017 8.32299995-13.91800022z"/><path fill="#CBAC14" d="M312.96100473 98.20800543l14.7279997 4.96400022-9.0639999 3.41200018-5.6639998-8.3760004z"/><path fill="#CBAC14" d="M318.6260047 106.58300495l8.13600015 11.9960003-10.55700028-3.15400005-11.56700027-3.3000001 13.9880004-5.54200015z"/><path fill="#BE8E00" d="M299.10900497 97.12200642l5.52799988 15.00299978-6.26599991 7.93899965-4.32300007-10.95999974-2.95299983-7.55500012 8.01399993-4.42699957z"/><path fill="#DEBCA4" d="M258.5280075 109.32300758l-9.06299972 37.3300004 16.47899914 5.89399958 2.1800003 3.9250002 1.52700043 5.07099914 7.08699966 4.93700027 5.89100003 6.12700081 10.26200008-19.01500034 6.98799992-10.31899977 5.58600044-9.4790001 1.1800003-4.66599988 4.8219986-5.53499985-52.93899917-14.27000046z"/><path fill="#8A6651" d="M295.19800425 137.72000599l2.8070001-4.73999977 4.55900007 2.36999988-3.95700008 1.87199998-3.4090001.4979999z"/><path fill="#C2977B" d="M290.502007 117.94200897l-14.34900045 38.17300034-5.88299942-.02799988-.61900043 5.45599937 12.9780004 11.06500054 8.97799993-15.26900006 1.01200008-3.24400043 1.65699959-1.2949996 5.60300064-9.52600002-8.66200018-5.1659999 2.84399939-5.4140005-4.73799944-2.79299927 6.07399988-10.64000034-4.89499998-1.31900025zM281.90100527 123.52300763l-5.03999981-.033-5.7679998 7.85899998 1.10500002-9.26300001 3.19699978-4.69899989 6.5059998 6.13599992zM268.7800064 115.45700502l-2.29200005 12.26200009-2.39699998-8.57200003-4.16500005-2.55600023 8.85400009-1.13399983z"/><path fill="#846400" d="M275.39600444 117.38700557l7.88600015 2.96900008-1.38000011 3.16700007-6.50600004-6.13600015zM268.7800064 115.45700806l-8.12000012-2.24400001-.73399996 3.37800002 8.85400009-1.134z"/><path fill="#755800" d="M272.62000608 140.06400752l-6.3880001-4.34699988-6.8460001.46399998 5.47700012 4.11599994 7.75700008-.23300004z"/><path fill="#B48A00" d="M257.49900627 134.96800709l7.5880003 4.87599993 10.1260004.29400002-10.81400036 2.68799985-6.90000034-7.8579998z"/><path fill="#846400" d="M295.3980074 119.2610073l-6.07399941 10.64100028 4.73899936 2.79199982 2.4710002-4.03399992 8.93200016 5.13500023 6.00199938-10.20200015-16.0699997-4.33200025z"/><path fill="#8A6651" d="M265.94400549 152.54700565l13.90400028 4.86000014-10.1960001 4.13600015-3.70800018-8.99600029zM299.50000763 143.25000763l-3.67000198-2.25400162-3.41400147 14.9279976 7.08400345-12.67399598z"/><path fill="#8A6651" d="M291.26800704 141.02300978l2.12099993 8.36200046 4.4009999-4.87200021-6.52199983-3.49000025zM284.77600431 147.13400745l6.8310001 10.20400048 2.64299988-4.55300021-3.15600002-3.40100003-6.31799996-2.25000024z"/><path fill="#755800" d="M290.40500677 137.62301016l9.47500002 5.64999986-5.62900007 9.51199984-9.47500002-5.6509999 5.62900007-9.5109998zm.86300003 3.39999962l-3.10400009 5.24500024 5.22500002 3.11599982 3.10300005-5.24399984-5.22399998-3.11700022z"/><path fill="#B48A00" d="M296.3060069 135.8490076l2.30200005 1.37299967-4.31300008 7.2909999-2.3030001-1.37299967 4.31400014-7.2909999z"/><g><path fill="#E7C9B5" d="M268.7800057 115.45600748l6.61599993 1.93200016-4.30199993 13.9619999-6.48999989-1.96500016 4.17599988-13.9289999z"/></g><g><path fill="#8A6651" d="M264.60600615 129.38400555l2.26499998 4.23999977 4.22299993-2.27399989-6.48799991-1.96599988z"/></g><g><path fill="#2B2B2B" d="M274.45200706 127.38300705c0 1.125.9080001 2.03600001 2.02800011 2.03600001 1.12 0 2.02800012-.91100001 2.02800012-2.03600001s-.90800011-2.03600001-2.02800012-2.03600001c-1.12 0-2.02800011.91100001-2.02800011 2.03600001z"/></g><g><path fill="#2B2B2B" d="M260.75500655 122.8310051c0 1.125.90800011 2.03600001 2.02800012 2.03600001 1.12 0 2.02800011-.91100001 2.02800011-2.03600001s-.9080001-2.03600002-2.02800011-2.03600002c-1.12 0-2.02800012.91100002-2.02800012 2.03600002z"/></g></g><g display="block"><path fill="#9DA1A2" d="M130.10900497 220.24399805l-15.25300026-18.07399988 49.41600037.07299995-10.30300045 25.9069996-23.85999966-7.90599967z"/><path fill="#6F7173" d="M130.98000617 321.90799713l-22.76800055-31.62599945 6.64299964-88.11199951 15.2540009 18.07400131 23.96900058 49.5759983-23.09800057 52.08799935z"/><path fill="#8F8F8F" d="M164.20700455 306.09599686l-33.22800064 15.81299972-.86999894-101.66400146 34.1619997-18.0019989 16.18599988 72.37100029-.77799988 14.7859993-15.47200012 16.69600105z"/><path fill="#6F7173" d="M130.97900581 321.90799904l33.20300007 5.29800033 7.62300015-21.96600031-8.62300015-24.59999967-19.60199976-2.6760006-12.6010003 43.94400025z"/><path fill="#8F8F8F" d="M188.9340067 313.77499485l-24.75200082 13.43100071-1-46.56599999 2.12400055-8.41000175 15.15100002 2.38300133 8.47700024 39.1619997z"/><path fill="#DDDDDC" d="M157.7640047 271.59799576l22.6939993 3.01599991-17.27499914 6.0259999-19.60299921-2.67599987 14.18399906-6.36599994z"/><path fill="#6F7173" d="M756.9590025 336.0949936l14.14099979-48.7009988-10.875-22.09200048-3.12699986-11.29499817-19.6609993 5.19400025-15.51900005 63.65899849 35.04099941 13.2349987z"/><path fill="#7C7C7C" d="M819.53102493 304.43299484l-62.5719986 31.66199875 3.2649994-70.79299927 2.37800026-10.79299926 11.125.8769989 12.01499962-1.21099854 33.78899932 50.25799942z"/><path fill="#8F8F8F" d="M737.43699646 259.20099735l33.6630001-16.49300003 14.64299966 11.46799994-25.5179999 11.12599992-22.78799986-6.10099983z"/></g><path fill="#8A6651" d="M459.88598728 161.1130085l8.01200009 24.22500074-23.4300003 18.8759991 8.8800001-34.14799882 2.83500004-6.63999939 3.70300007-2.31300163zM380.22398233 195.29802036l-15.8739996-7.39799976 1.51199962-19.54000092 5.38500022-4.64799976 8.97699976 31.58600044z" display="block"/><g display="block"><path fill="#C2977B" d="M341.29897404 139.14501953l-6.0949998-.85400009-6.51800012-14.15700007 11.7899999-6.1550002 10.88399989 12.5580002-.1420002 7.89699972-9.91899967.71100044z"/><path fill="#8A6651" d="M349.7309742 152.23501968l-5.97600007-2.18200016-8.54999996-11.76200032 16.15500021-7.25600028s3.54299975 10.45800038 3.47300005 10.74200039c-.0710001.28499998-5.10200023 10.45800037-5.10200023 10.45800037z"/><path fill="#DEBCA4" d="M355.75297427 162.76401901l-.0940001-18.11699998 1.03900004-11.19399989-6.61300004-8.8210001-2.83499992 2.27599907 2.92900002 7.20900059-2.6450001 6.73500037 8.2190001 21.91199994z"/></g><g display="block"><path fill="#C2977B" d="M472.38598633 127.42901468l2.4090004-6.26099997 5.80999946-10.52800006 12.86100006 4.1329999-2.79899978 15.78700017-17.85599995-.42700004-.4250002-2.704z"/><path fill="#8A6651" d="M479.3299861 147.91701508l3.58999991-2.56099987 7.7479999-14.79699994-16.72300004-5.97599983-1.70099974 20.77299977 7.08599997 2.56099987z"/><path fill="#DEBCA4" d="M472.71598601 143.5540142l-.66100001-6.4499998-3.30700016-7.77799988 4.57000017-12.10200024 3.19099999 1.00500012-1.431 7.77799987 4.53400016 8.53700018-4.53400016 11.95000029-2.36199999-2.94000053z"/></g><path fill="#C2977B" d="M472.05498338 137.10401917l-15.87199998 26.32300066 11.71399999 21.9110005 15.02200007-39.9810009-10.86400008-8.25300026zM343.18798828 149.38902664l21.16299963 38.51100159 6.89699984-24.18800092-15.58899975-19.0660007-12.47099972 4.74300003z" display="block"/><g display="block"><path d="M491.92998505 323.28299224l-75.61699868-10.80800044-71.27699852 9.67400044 69.02499867 11.1829999 77.86899853-10.0489999z" opacity=".1"/><path fill="#DEBCA4" d="M436.83698463 315.26999139l.72000027 7.24599982h10.65899968l3.52200008-1.73399973 3.00899982-2.92700004-9.42299992-9.51499987-4.59899991-.158-3.88800002 7.08799982z"/><path fill="#C2977B" d="M437.55798912 322.51398897l-.56300068-5.66199994 6.23600054 5.66199994 15.29999971-7.7659998 6.8760004 7.7659998h-27.84899997z"/><path fill="#DEBCA4" d="M398.05798638 308.18098831l4.72299993 6.00899995 1.5999999 9.53299987h-8.42499984l-3.91700016-3.41699982-4.1619997-5.0380001 3.217-5.59299994 6.96399987-1.49399996z"/><path fill="#C2977B" d="M388.29098606 314.8309927l-8.49499988 8.8920002h24.58399963l-1.08500004-6.45900011-4.44699955 6.4590001-10.55700016-8.8920002z"/><path fill="#8A6651" d="M442.95498586 305.94798994l-3.75999987.36699963-3.07900012 1.71000003.7210002 7.2449999 8.48699998-6.92999984-2.3690002-2.39199972zM401.57898903 307.03599167l-3.02400017-1.87599993-4.91900015.0949998-2.54199981 4.42000007 11.68599987 4.51499986-1.20099974-7.1539998z"/><path fill="#BE8E00" d="M445.72398853 250.11299133l-15.79900026 6.408-15.4890008 8.77999973 9.7140007 26.1459999 14.9920001-3.17399978 14.5760007-5.62699985-7.99400044-32.533z"/><path fill="#E4C728" d="M424.14899063 291.44799197l3.43800068 9.8379997 13.3889997-8.21999967 12.74100041-10.41999972-29.56800079 8.80199969z"/><path fill="#CBAC14" d="M427.58698845 301.28599072l26.1289997-18.6399994 5.1569996 18.46799946-15.59899965 1.53600026-15.68699965-1.36400032z"/><path fill="#E4C728" d="M427.58698845 301.28499126l3.43699932 8.28600026 27.84899998-8.45800019-31.2859993.17199993z"/><g><path fill="#BE8E00" d="M414.43698502 265.30199146l-2.14999962 25.28399945-15.5209998-1.72399903-18.34499942-4.14400005 2.6659994-33.22399998 19.64499999 6.77999973 13.70499945 7.02799988z"/><path fill="#E4C728" d="M378.42098808 284.71799088l17.24000058 10.02200043 15.76599994 6.54600036.86000061-10.70000029-33.86600113-5.8680005z"/><path fill="#CBAC14" d="M378.42198753 284.71699047l-1.72000122 16.74100018 18.9530009.87300014 15.77300084-1.046-33.00600052-16.56800032z"/><path fill="#E4C728" d="M411.42798805 301.2859912l-34.72600174.17199992 33.86600113 7.59399987.86000061-7.7659998z"/></g></g><g display="block"><path fill="#474747" d="M429.57298565 173.34801674l7.04600048 2.36800003 3.90499878 3.73500013 4.51000023-8.62499952 11.14900207-7.39900017 2.45499802 36.99300003-13.17300034 7.66699982-61.46299934-1.12199974-11.33799934-4.07900047-1.41600037-39.17499924 12.75399971 7.96799946 6.36300087 6.21500015 2.6439991-2.70699978 7.88300037-3.38600063 12.16899968 8.78700018 16.51200008-7.24000025z"/><path fill="#846400" d="M445.72398758 250.11201477l-31.28800023 15.18799973-33.35000026-13.80699921 2.91500092-44.52799988 5.45499992-3.24900055 5.2119999-2.9640007 40.74099922-2.24399948 4.81500053 2.55900001 5.24100113 7.0189991.25899887 42.02600098z"/><path fill="#BE8E00" d="M445.0349884 170.82501602l.43099976 37.26200104-10.05599976-9.57900047 1.20699978-22.79199982 8.41800022-4.89100075zM393.00998569 175.18701744l1.65800023 25.56500053-10.66600037 6.21299935v-35.2859993l9.00800014 3.50799942z"/><path fill="#9D7700" d="M428.70098495 236.65001678h-27.5V208.5120163h27.5v28.13800048z"/></g><g display="block"><path fill="#CBAC14" d="M369.97198486 119.25801659l36.96200067-8.9970007 38.49400062-11.342-.52899933-5.5670004-3.1420021-8.14000034-36.61199928 16.6630007-35.17300058 17.38300074z"/><path fill="#E4C728" d="M441.75698471 85.21201515l-39.072001 9.72000075-39.46600101 12.68300008 1.68400192 5.09000016 5.06900024 6.55300045 71.78499985-34.04600144z"/><path fill="#755800" d="M398.36898518 86.71001625l-3.56699992 11.8959999 15.63000012-4.45799994-12.0630002-7.43799996zM441.75698566 85.2110138l6.251 2.09800004 6.81499999 4.97800017-7.94599998 12.60400009-1.75100005-3.59100008.30100012-2.38100004-3.67000008-13.70800019z"/><path fill="#CBAC14" d="M441.75798464 85.21101642l-.80299998-6.40700007 1.53600026-8.33000016 7.9829998 11.92700016 4.34899998 9.88500011-13.06500006-7.07500004z"/><path fill="#BE8E00" d="M442.49198341 70.47301674L463.483984 83.59001637l-8.66100025 8.69699954-12.33100033-21.81399917z"/><path fill="#846400" d="M441.75698614 85.2120161l.73399973-14.73799991.44099999-8.10599995-15.20199967 16.03699994.37099981 10.70299983 13.65600014-3.8959999z"/><path fill="#BE8E00" d="M438.14398384 67.86901563l-17.2319994-11.39599984-2.9829998 7.81599974-1.12699985 6.18400002 6.10199976 5.31400036 5.78799975 2.93999959 9.45199954-10.85799987z"/><path fill="#CBAC14" d="M428.6929884 78.72601461l-11.89199949-8.25299978-3.71200013 9.306-2.65799951 14.36799979 17.67099952-5.0409999.5909996-10.3800001z"/><path fill="#CBAC14" d="M420.9119854 56.47201538l-24.07600022 12.82200003 13.16300011 1.44000005 6.80299997-.26100015 4.11000014-14.00099993z"/><path fill="#BE8E00" d="M416.80298424 70.47301579l-19.9659996-1.1779995 4.23000001 9.57599974 9.36499977 15.27599954 6.37099982-23.67399978z"/><path fill="#755800" d="M359.68398428 124.161013l15.15400028 3.36700023-2.37100029-5.34300017-2.49499988-2.92700029-5.02900005 1.21800018-5.25900006 3.68500006z"/><path fill="#CBAC14" d="M410.4319868 94.14701557l-11.42099992-6.30900001-7.13000019-3.0630002-4.29299974-3.24699998 1.80099964-7.00399995 2.8760004-5.5880003 1.783-4.79899979 2.78899979 5.15700054 13.59500003 24.8529997z"/><path fill="#BE8E00" d="M387.5879836 81.52701616l-6.57600009-2.09599971-6.56199991-5.19900017-1.3909998-6.85299988 19.20599938 1.55699968-4.67699957 12.59100008z"/><path fill="#846400" d="M387.587986 81.52701378l-13.13799978-7.29399967-6.6059997 8.84199953 4.4289999 8.64100027 7.43399989 11.1949997 6.10499966-13.35799975 1.77600002-8.02600008zM357.21698523 109.4080162l-2.9829998 17.35200024 15.73799991-7.5020001-6.75199997-11.64300036-2.87-.15699958-3.13300014 1.9499998z"/><path fill="#BE8E00" d="M367.84398568 83.07501507l-5.9569999 6.82400012-2.76300049 6.21800017 5.2550006 6.53299952 15.32700013.26100063-11.86200034-19.83600044z"/><path fill="#CBAC14" d="M367.8439846 83.07501602l-20.98399925 5.6279999 12.26399958 7.41399992 8.71999967-13.04199982zM359.12498522 96.116014l-10.9529996 15.99400044 15.04699964-4.4960003 16.48899966-4.7019999-20.5829997-6.79600024z"/><path fill="#BE8E00" d="M387.58898592 81.52701378l-7.88200045 21.38500023 8.93300045 11.31500053 6.16199982-15.62000036 4.20900059-10.76899958-11.42200041-6.31100082z"/><path fill="#DEBCA4" d="M445.42798805 98.91801453l12.91800118 53.20699882-23.48800087 8.39999962-3.1079998 5.59600067-2.17599965 7.22599983-10.10300016 7.03800011-8.39499974 8.7329979-14.6259997-27.10299874-9.96000098-14.70699978-7.9619999-13.51000023-1.68299865-6.65100002-6.8730011-7.88899994 75.45599937-20.33999824z"/><path fill="#8A6651" d="M393.16198349 139.39301467l-4-6.75600004-6.5 3.37800002 5.641 2.6689999 4.859.70900012z"/><path fill="#C2977B" d="M399.8549862 111.20301819l20.45199966 54.40999985 8.38599967-.03899956.88100052 7.77499962-18.49699974 15.77000045-12.79800033-21.76300048-1.44199944-4.62300015-2.36100006-1.84399986-7.98600006-13.58199978 12.34599972-7.36199951-4.0539999-7.7159996 6.75299978-3.98000145-8.65700007-15.16499901 6.97700024-1.88100052zM412.1139865 119.15801477l7.18400013-.04700005 8.22000014 11.20099986-1.57299995-13.20299983-4.5580002-6.69699979-9.27300013 8.74599981zM430.8169837 107.6600132l3.26699996 17.47800064 3.41799998-12.21700025 5.93499995-3.64400029-12.61999989-1.6170001z"/><path fill="#846400" d="M421.38698292 110.41201496l-11.23999977 4.23100014 1.96699977 4.51500015 9.273-8.74600029zM430.8169837 107.66001421l11.57299995-3.19700008 1.04699994 4.81400013-12.61999989-1.61700005zM392.8779869 113.08301735l8.65600015 15.16500044-6.75199986 3.98000002-3.52400017-5.74900008-12.73099994 7.31800032-8.5550003-14.54000044 22.90600013-6.17400026z"/><path fill="#8A6651" d="M434.85798264 160.52501154l-19.8180008 6.92700016 14.53300047 5.8970002 5.28500033-12.82400036zM398.76398563 144.1010127l-3.02299976 11.91800023-6.27299976-6.94500011 9.29599952-4.97300011z"/><path fill="#8A6651" d="M392.356987 143.85001373l-5.98200226 3.61399842 11.44599915 19.05900573-3.43499756-14.2970047-2.02899933-8.37599945z"/><path fill="#8A6651" d="M408.01698446 152.8110156l-9.73899984 14.54399968-3.76699972-6.48799986 4.49899983-4.84900004 9.00699973-3.20699977z"/><path fill="#755800" d="M399.99498701 139.2520132l8.02199984 13.55900026-13.50600005 8.05500007-8.02199983-13.55900026 13.50600004-8.05500006zm-8.67600012 9.2900002l4.42200005 7.47600008 7.44799984-4.4410001-4.42499983-7.4760002-7.44500006 4.44100023z"/><path fill="#B48A00" d="M391.58398688 136.72701645l-3.28100026 1.9579997 6.1470002 10.38999987 3.28100025-1.9579997-6.1470002-10.38999987z"/><path fill="#E7C9B5" d="M430.81598818 107.6600151l-9.42900002 2.75199986 6.13100004 19.90000057 9.24900008-2.80000019-5.9510001-19.85200023z"/><g><path fill="#8A6651" d="M436.76698303 127.51101232l-3.23000002 6.04400014-6.01999998-3.24300007 9.25-2.80100007z"/></g><g><path fill="#755800" d="M426.04498768 144.69401896l8.36099958 3.88899982 6.80299998-1.56499982 2.59799957-9.05899978-17.76199913 6.73499978z"/><path fill="#FFF" d="M445.72198296 136.11801386l-22.18600083 6.98300004 4.1210003 2.3690002 15.86600017-4.41200012 2.19900036-4.94000012z"/><path fill="#755800" d="M421.6419859 143.14201212l13.44399964-6.1769998 11.65799964-1.58299995-1.27299977 3.1259998-.91100025-1.04599988-8.52399957 3.6559999-10.75999987 2.07200003-.40600014.82799983-3.22799969-.87599993z"/><path fill="#B48A00" d="M446.74398518 135.38201857l-2.18299961 2.08099985-4.1079998 7.60500002-6.61200023 2.10400009-8.56499982-3.98200004-3.63399983-.048 12.23399964 7.49199993 8.62400016-2.9460001 4.24399949-12.30599975z"/></g><g><path fill="#2B2B2B" d="M422.73298764 124.65901184c0 1.60300005-1.29500007 2.90199995-2.89200003 2.90199995-1.596 0-2.89000003-1.2989999-2.89000003-2.90199995 0-1.60300004 1.29400003-2.90199995 2.89000003-2.90199995 1.59699996 0 2.89200003 1.2989999 2.89200003 2.90199995z"/></g><g><path fill="#2B2B2B" d="M442.25498319 118.17001724c0 1.60300005-1.29500008 2.90199995-2.89200004 2.90199995-1.596 0-2.89000003-1.2989999-2.89000003-2.90199995 0-1.60300004 1.29400003-2.90199995 2.89000003-2.90199995 1.59699996 0 2.89200004 1.2989999 2.89200004 2.90199995z"/></g></g></g></svg>