<svg xmlns="http://www.w3.org/2000/svg" viewBox="0 0 900 350" width="900" height="350" style="width:100%;height:100%"><defs><clipPath id="a"><path d="M0 0h900v350H0z"/></clipPath></defs><g clip-path="url(#a)"><g display="block"><path fill="#A88BBB" d="M679.399971 271.8069992l-123.52700042 68.70899964 265.22000122.8710022L679.399971 271.8069992z"/><path fill="#7D648C" d="M679.399971 271.8069992l-123.52700042 68.70899964h85.65600205l81.96899795-10.9829979 43.08300018 9.32899857 54.51200104 2.52500153L679.399971 271.8069992z"/><path fill="#5C3F4D" d="M806.15602684 187.43399048l3.80600023 6.22599792 6.3130002 85.80400086-26.11900043-3.58100128v-40.83299816l16-47.61599934z"/><path fill="#B58B9F" d="M813.04998398 200.25300217l9 66.18799781-11.5050001 8.21899987.70600001-10.79399872-12.4090001-61.66600037 14.20800019-1.9469986z"/><path fill="#5C3F4D" d="M777.6550293 177.07199764l8.3039999 12.11999965 13.6960001 4.4679997 3-4.38999963-25-12.19799972z"/><path fill="#785667" d="M773.42102718 162.26500034l-3.17399978 3.02699948 10.32599997 22.1420002 5.38599992 1.75799942-3.20499992-35.13399888-9.33300019 8.20699978zM835.7810173 180.15199852l-6.87599992 12.69000006-22.49999953 10.9000001v-7.89700008l4.1409998-4.597 25.23499965-11.09600008z"/><path fill="#B58B9F" d="M843.65497303 163.17899418l1.0090003 6.8909998-6.75900018 15.78299999-9.00000012 6.98899936 6.87500012-30.57799911 7.87499988.91499996z"/><path fill="#785667" d="M806.40501738 166.72100067l15.03200006-5.60400009-15.03200006 42.62599945-16.24999953 72.13999939-13.90699959-11.99399948 23.4069993-70.22800064 6.74999982-26.93999863z"/><path fill="#996A81" d="M802.6550293 142.8239975l24.25 3.88899994-20.5 57.02899933-6.75-10.08199883 3-50.83600044z"/><path fill="#614D6B" d="M809.09601974 131.41999817l-28.50099945 6.13500118 7.06100083 20.26099968 14.38199997-4.78700018 42.6259985 17.04100084 53.53099918-25.07300066-53.78899908-18.61900068-35.30999995 5.04199982z"/><path fill="#614D6B" d="M759.48900533 137.25399494l-35.99199987 7.57200003 46.75 20.46600008 31.79199982-12.26200009-11.88299942-13.60299968-30.66700053-2.17300034z"/><path fill="#937AA2" d="M788.40498924 136.24299681l-31.00000047-9.86399996-33.90799857 18.44799995 66.65799714-5.39899993-1.7499981-3.18500006zM873.07598686 127.9469986l6.32900048 7.39099997 18.78900146 9.65999967-54.28900102 8.03299999-53.75000044-13.60299969 28.25-21.30099964 54.67099952 9.8199997z"/><path fill="#A88BBB" d="M792.5770278 105.81699562l-36.32499838 13.95500064-4.42500305 9.64299989 38.3280015 10.01200008 39.75000143-18.55900001 10-15.55900002h-34.75000191l-12.5779996.50799942z"/><path fill="#614D6B" d="M835.7800293 107.38599586l12.80000019.8739996 24.9289999 11.5120002 5.8959999 15.56599987-49.5-14.46999982-3-11.93300006 8.875-1.54899979z"/><path fill="#A88BBB" d="M786.40599442 113.97499657l-16.15800095-14.06299973 28.59599972-16.11499977 46.57000065 13.3299998-35.00800014 8.04499972-23.99999928 8.80299998z"/><path fill="#937AA2" d="M845.41397 97.12699795l-23.36399937-2.26500035-11.64500046 10.30900002-5.2499981 2.3189999 21.7499981 1.44500004 46.60399818 10.8369999L845.41397 97.12699794z"/><path fill="#7D648C" d="M822.05000305 94.8619976l4.85499954 14.07299996-70.65299987 10.8369999 13.99500084-19.86000014 51.8029995-5.04999972z"/><path fill="#DEDDDC" d="M406.15999603 190.52300262l108.76999665-9.19599914 147.78399658 40.24799824-94.87699509 42.31399822L397.1459961 226.1850016l9.01399994-35.66199899z"/><path fill="#ECECEB" d="M531.8029927 233.80100155l-16.87300002-52.47500134 147.78300476 40.2490015-94.87600327 42.31399823-170.69000625-37.70399833 134.65600478 7.61599994z"/><g fill="#ECECEB"><path d="M279.71001434 213.697999l44.3029976-16.07600021 75.28899955-21.58199978 68.80999565 19.84100008-82.08899593 35.05499983L279.71001434 213.697999z"/><path d="M279.71001434 213.697999l44.3029976-16.07600021 75.28899955-21.58199978 68.80999565 19.84100008-82.08899593 35.05499983L279.71001434 213.697999z"/></g><path fill="#DEDDDC" d="M279.7109871 213.697999l44.3030014-16.07600021 75.28900146-21.58199978-21.4640007 34.62599993 8.18499756 20.26999998L279.71098709 213.697999z"/><path fill="#D0CFCE" d="M755.49700928 270.44499207l65.59599924 70.94000244 77.10099935-41.24500132-36.76699829-26.03799963-89.51300049-.58399963-16.41699981-3.07300186z"/><path fill="#996A81" d="M31.74699879 217.68899918l20.00000047-5.4659996 7.89800024 48.74699973-4.2880001 7.31099892-16.43500042-27.04599935-7.1750002-17.292v-6.2539997z"/><path fill="#D2A4BA" d="M7.74699974 245.3809967l22.662-38.13700103 21.338 4.9800005-44 33.15700053z"/><path fill="#B58B9F" d="M44.31999946 247.29599953l6.3590002-1.29300022 5.09499955 24.26300048-3.02399969 3.14900017-13.82799959-23.2709999 5.39799953-2.84800053z"/><path fill="#937AA2" d="M52.75 273.41399384L1 278.36499404l21.99700928 53.63399888 170.93400573 18 361.94099427-9.48399735 79.40802002-58.98900127-25.7630005-9.90499973-19.85202026-19.48900223-3.80899047-10.1989975-141.28100586 8.27399826-31.74900055-17.15599823L52.75 273.41399384z"/><path fill="#7D648C" d="M635.28100586 281.52598953l-25.76400757-9.90399933-19.85198975-19.49100113-3.80999755-10.19799804-141.28000641 8.27399826-31.74900055-17.15499878L52.75 273.41399002l-1.00299072 36.65200043 72.41999817 26.04399872 201.15100097 7.04199981 123.58300019-20.96299743 106.97100067 18.3259964 79.40899658-58.98899842z"/><path fill="#C5C5C5" d="M443.86800385 235.46499968l3.22399902-33.48900176-111.18400288-.81299972-29.65499973-3.0019989-41.4240017 1.40999985-61.28200149 6.56700134 20.77900696 77.92499924 154.13399505-17.9449997 65.40800477-30.65300035z"/><path fill="#A5A5A5" d="M220.32999767 160.05399323l15.29900013 1.05900192 5.60099983 69.82300186-41.39699935-17.23800278 2.24499893-50.1309986 18.25200046-3.5130024z"/><path fill="#939292" d="M212.94800186 161.11299515l3.7140007 8.86500168-4.97299957 59.28499984-37.02700043-6.52700042 1.66699982-55.85900116 30.33300018-5.76399994h6.2859993z"/><path fill="#DEDDDC" d="M205.35100389 156.43600082l30.27799963 4.67699981-18.9659996 8.86500001-34.33399963-7.2989999 23.0219996-6.24299992z"/><path fill="#C5C5C5" d="M106.56599808 99.5550003l39-3.98799896 5.12400055 119.89299774-71.12400055 17.06499482 27-132.9699936z"/><path fill="#C5C5C5" d="M98.89899826 102.8160019l-19.33299994 3.29299926-26.81600023 167.30599976 32.7260002 13.93299865 22.11000025-68.55599975-1.02000046-40.76299858 7.74600029-61.80099678-15.41300011-13.41200257zM145.31499577 125.48999405l48.61600017 2.83800125-4.60199928 124.55800247-65.16200066-35.19600105 21.14799977-92.20000267z"/><path fill="#A5A5A5" d="M141.0650065 125.78599548l-15.50000024 3.24000168L114.312006 194.5249958l32.96500015 5.04599953 16.69199943 7.35100174-5.60199928-66.80200005-17.3019998-14.33400154z"/><path fill="#C5C5C5" d="M91.56599617 274.87199783l23.56100035 24.87499619h23.52599954l8.91300011-31.21499634 5.77000046-61.28800201v-36.06099701l-34.34000015 8.84199905-27.43000031 94.84700012z"/><path fill="#A5A5A5" d="M124.96600342 168.65399551l-28.99300003-3.69599533-10.4960003 122.38999558 29.6510005 12.3999977 15.93700076-119.33399581-6.09900093-11.76000214z"/><path fill="#D0CFCE" d="M154.56499481 210.72599983l-7.28900146-11.15499997 23.38600063-13.75199962 34.00000095 5.2869997-13.71600055 27.93699933-36.38099957-8.31699944z"/><path fill="#A5A5A5" d="M163.96900558 238.71500492l8.09499932-32.23500156 32.59700012-15.375 6.24199867 69.75400161-11.90799904 43.96300126h-26.66699981l-8.35899926-66.1070013z"/><path fill="#939292" d="M172.3279972 304.82299042l-33.67499923-5.07600022 8.6239996-100.17599868 24.7869997 6.90999984.26399994 98.34199906z"/><path fill="#DEDDDC" d="M153.33699799 171.18399906l-36.77099896-12.15100002-20.59299946 5.92399979 35.09199906 15.45800018 22.27199936-9.23099995zM145.56500149 121.27999687l-19.99999905 7.74500013 32.80199862 11.09500002 35.5639987-11.79200005-48.36599827-7.0480001zM79.56500244 106.10899651l34.74699998 10.11900032 31.25300002-20.66100026-42.125-1.59500026-23.875 12.1370002zM193.93100357 210.66499996l20.11199999-9.46900081 32.1529994 6.04699993-10.56699944 21.99600029-9.30000019-14.25699997-23.37099933 22.79600048-9.02700043-27.11299992z"/><path fill="#C5C5C5" d="M172.32899475 304.82299805L193.930995 210.6649971l32.39799976 4.3180008-2.00300026 107.3639984-51.99699974-17.52399825z"/><path fill="#A5A5A5" d="M226.32899475 214.98299026l19.8670001-7.7389984 8.5239997 61.03699803-3.07099915 36.54200053-27.32299995 17.5249977 2.0029993-107.36499786z"/><path fill="#D0CFCE" d="M534.61000061 273.44899559l-29.210001 18.07700157-64.72500037 3.28899765-59.44499588-23.82499885-1.90600586-34.57600022 67.76600265-34.43699836 101.61200333 20.51199913 33.75 13.92499923-47.84200287 37.03499985z"/><path fill="#C5C5C5" d="M440.67501068 294.81400108l106.13400078 33.71999932 84.88299751-31.70599938 44.00800324-53.90600013-24.85700226-18.80199814-102.1419983-1.63199997-108.02600097 72.3259983z"/><path fill="#D0CFCE" d="M723.74697495 316.0550003l-163.75600052-1.7179985 108.1220007-105.81000137 32.44500064 19.4129982 77.96599579 29.12000179.9090042 19.50899982-52.79800033 23.57099915-2.88800048 15.91500092z"/><path fill="#785667" d="M271.41799831 268.53199196l-16.69900035-.25-30.39400101 54.06599998 103.38400268 9.65199852-4.56900024-47.06799888-51.72200108-16.39999962z"/><path fill="#B58B9F" d="M314.31399918 260.13699389l-8.06200028-6.24000025-13.67500019-.73999977-3.03700066-4.21100045-5.59599977 6.22800064-29.22400087 13.10699988 56.95700073 17.32300043 2.63700104-25.46700048z"/><path fill="#996A81" d="M372.32700348 279.36499405l-14.39700031 38.47499847-30.22099972 14.15999985-16.03300095-46.3949995 7.90100098-24.053998 61.65299988-1.41400146-8.90299988 19.22800064z"/><path fill="#785667" d="M364.82600021 257.7239914l-3.64199829 10.5570011-3.25400161 49.55799867 55.30200195 4.50900077 27.44200134-27.53399992-34.51500177-42.46600008-41.33300162 5.37599945z"/><path fill="#996A81" d="M364.82699203 257.7239914l-3.64199829 10.5570011 52.04699898 54.06699944 27.44299889-27.53399992-34.51499892-42.46600008-41.33300066 5.37599945z"/><path fill="#785667" d="M292.5770092 253.15700436l19.0999999 32.44699955 17.2750001-17.55900002 11.07699967-10.48799968-20.4519999-23.12099957-26.99999977 18.72099972z"/><path fill="#B58B9F" d="M319.57601166 234.4359932l9.375 33.60900115 32.23399985.23699952 44.97499978-15.93400032-26.83600044-15.93399971-59.7479992-1.97800065z"/><path fill="#D2A4BA" d="M29.79200077 264.55599594l9.12899983-23.3199997 11.75699985 4.76799966-20.88599968 18.55200004z"/><path fill="#C5C5C5" d="M861.42700958 274.10200024l-82.90200329-17.04300022-51.89000415 43.08200073 75.40300369 8.29899978 59.38900375-34.3380003z"/><path fill="#3C3C3B" d="M811.25302505 263.86699963l-10.54099655-2.19199992-74.07600212-6.55100011-32.70799827 7.09499979 65.5599985 19.88200044 51.76499844-18.2340002z" opacity=".1"/><path fill="#939292" d="M736.2470169 306.71900272l-12.5 9.33600045-167.875 24.46099949-9.06300353-11.9819994 13.1819992-14.1970005L726.6350174 300.1400032l9.6119995 6.57899952z"/><path fill="#9FA3A4" d="M821.09298325 341.38599968l-97.34600068-25.33099937 2.8880005-15.91499901 75.40299987 8.29999923 19.0550003 32.94599915z"/><path fill="#88898A" d="M440.67500687 294.8149929l119.31600189 19.52300048-4.11899948 26.17700029-115.19700241-45.70000077z"/><path fill="#A5A5A5" d="M749.24601793 244.49999142l-24.0989995 2.75300026-11.28000068 16.0840001 45.62100029 9.5279994 15.10700035-26.47899913-25.34900046-1.88600063z"/><path fill="#DEDDDC" d="M737.91698837 241.89400291l44.83800125 2.4749999-6.85500145 8.27600003-13.5409994 2.47899962-37.2109995-7.87099982 12.7689991-5.35899973z"/><path fill="#C5C5C5" d="M782.75400639 244.36900425l-20.39700032 10.75500011-2.86999893 17.74100018 40.86399841-11.10700011-17.59699916-17.38900018z"/><path fill="#A5A5A5" d="M108.8670001 281.22299957l-29.86000013 3.70799923-13.9770012 21.65800047 56.5280018 12.82999945 18.7180004-35.65499878-31.40900087-2.54100037z"/><path fill="#DEDDDC" d="M118.64499903 273.41499996l31.7399993 7.63300014-8.49300004 11.14399981-16.77699947 3.33799982-46.10799885-10.59899962 39.63799906-11.51600015z"/><path fill="#C5C5C5" d="M150.385993 281.04700089l-25.27100086 14.48200082-3.5569992 23.89000082 50.63199996-14.9560008-21.8039999-23.41600084z"/><path fill="#3C3C3B" d="M90.70900154 284.04799533l25.05199957-2.26799989 15.30399942 6.13699997-18.73199951 2.17999994-21.62399948-6.04900002z" opacity=".1"/><path fill="#A88BBB" d="M105.1380037 248.89699173v11.23600006l-2.92999994 23.91600037h7.37599993l-2.33299995-33.15500069-2.11300003-1.99699974z"/><path fill="#7D648C" d="M102.72200108 233.66500187l-10.35000039 5.24100017 12.76500035 21.22700024 12.76500034-15.2900002-15.1800003-11.17800021z"/><path fill="#A88BBB" d="M104.68000105 222.48799324l-12.30800036 16.41699982 25.5300007 5.93700027-13.22200034-22.35400009zM120.33899927 262.62399006l-.7249999 7.27799988.35400009 15.6779995-4.77699995-.47399998 3.64999985-21.32499981 1.49799991-1.1569996z"/><path fill="#7D648C" d="M122.88599992 252.91298962l6.36599994 4.06099987-9.63800002 12.9289999-7.28200006-10.727 10.55400014-6.26299977z"/><path fill="#A88BBB" d="M122.33999932 245.54799938l6.91299999 11.4250002-16.92000008 2.20300006 10.00700009-13.62800026z"/><path fill="#3C3C3B" d="M847.14601898 306.73999903l9.70499957-1.75500009 12.74099958 3.83000004-13.81899953.39800013-8.62699962-2.47300008z" opacity=".1"/><path fill="#A88BBB" d="M856.36601317 284.27800274v7.17999983l-1.8720001 15.28200006h4.71400023l-1.49000013-21.18700027-1.352-1.27499962z"/><path fill="#7D648C" d="M854.82300436 274.54199982l-6.61399996 3.35000038 8.156 13.56599998 8.15899958-9.77100014-9.70099962-7.14500022z"/><path fill="#937AA2" d="M856.0750044 267.39999914l-7.866 10.4920001 16.31499958 3.79400015-8.44899958-14.28600025z"/><path fill="#3C3C3B" d="M790.9169817 295.90900305l8.61699974-2.77099994 11.31099975 4.61199999-11.31099975 1.7119999-8.61699974-3.55299995z" opacity=".1"/><path fill="#A88BBB" d="M800.45198146 277.56999779v5.16299963l-1.6620001 13.56699991h4.1830001l-1.32200003-17.59899998-1.19899997-1.13099956z"/><path fill="#7D648C" d="M799.07998872 267.71599913l-5.87100005 2.97200012 7.2420001 12.04399967 7.2420001-8.67499995-8.61300015-6.34099984z"/><path fill="#937AA2" d="M800.19098878 261.37400341l-6.98200011 9.3139999 14.4840002 3.37000012-7.5020001-12.68400002z"/><path fill="#3C3C3B" d="M838.46197844 282.71199623l-6.19099993-1.98999992-8.12699991 3.31199991 8.12699991 1.2299999 6.19099993-2.5519999z" opacity=".1"/><path fill="#A88BBB" d="M831.61100194 269.5359993v3.70800018l1.19400003 9.75h-3.00600004l.95100004-12.64499998.86099997-.8130002z"/><path fill="#7D648C" d="M832.59599954 262.45499086l4.21900004 2.13700009-5.20400007 8.65299988-5.203-6.23299998 6.18800003-4.55699999z"/><path fill="#937AA2" d="M831.79799952 257.8990016l5.01799999 6.69200015-10.408 2.42000031 5.39-9.11200046z"/><path fill="#A88BBB" d="M704.97497559 335.49099023l19.43400001-2.8120001 24.06500054 5.62200021h-11.53300095l-11.97999966-2.8100001-18.20599926 2.1720001-1.78000068-2.1720001z"/></g><g opacity=".1" display="block"><path fill="#3C3C3B" d="M409.50702667 247.18599796l53.68099976-4.70900058 42.84600067 9.86400045-40.81900072 10.17699991-55.7079997-15.33199978zM512.10903168 264.3709979l52.29200172-4.14800023 44.64600182 10.81300032-43.80100155 8.91500032-53.137002-15.5800004zM621.11903381 284.50599861l52.43499947-4.96500015 44.59499931 13.06700039-40.47799968 9.38199997-56.5519991-17.4840002zM373.96702576 248.36299896l-44.64599991 8.7079997-23.06799984 21.2939992-39.67599964-8.99499893 28.48600006-12.41100025 24.51399964-13.38199902h13.49700004l40.89299965 4.7859993z"/></g><g display="block"><path fill="#A88BBB" d="M27.80299377 287.34799194l17 28.70800019 46.76200104 9.48400116v3.99399948l-51.9850006-9.23500061-15.53900147-32.95100022h3.76200103z"/><path fill="#A88BBB" d="M20.24599457 295.5309925l13.29499912 26.81699944 24.5689993 4.19099999-.30799867 2.99399948-29.24200058-3.99299908-12.31399917-29.47200107 4-.53699875z"/><g><path fill="#A88BBB" d="M407.4969902 334.27599144l40.74999953-5.74099994 29.26699876 3.99399993-2.8639984 1.17900005-24.40300036-2.76100004-34.62499953 4.9519999-8.125-1.6229999z"/><path fill="#A88BBB" d="M435.6319809 335.5299906l14.29799938-2.82100003 31.31599903 4.31300009-3 1.33099997-27.59499931-3.773-11.20000077 2.14399993-3.81899833-1.19399996z"/></g></g><g display="block"><path fill="#DEDDDC" d="M200.12701416 50.80599952l-37.95499802-17.0480001-27.78700065 7.74399996-82.51799965-11.83300066L9.5670166 49.11199963 118.08001518 62.8029995l19.94399834-3.05799961 25.4410019 6.5180006 36.66199874-15.45700097z"/><path fill="#D0CFCE" d="M70.47701645 74.1259985L9.5670166 49.112998l93.63299883-2.14900016 61.54100096 8.43100023 35.38599777-4.58799982-33.76799774 19.88399983-59.66500104-10.08699991L70.47701645 74.1259985z"/><g><path fill="#DEDDDC" d="M698.30399704 0l-76.16399765 22.5479996 136.8749981 17.26899984 25.15600013-3.85599995 32.09200287 8.22000027 46.24299621-19.49700022-47.875-21.50299978-35.04899978 9.76799964L698.30399704 0z"/><path fill="#D0CFCE" d="M702.63699722 43.5660019L622.1399994 22.54800223l118.10499859-2.71000099 77.62499714 10.63500023 44.63600158-5.7880001-61.5550003 32.90100097-56.29799843-20.54200053-42.01600075 6.52200007z"/></g></g><g display="block"><path fill="#A88BBB" d="M263.23798752 134.91699219l-18.17800045 8.39300012 23.14800072 15.9749999-1.29600049-23.12100028-3.67399978-1.24699974z"/><path fill="#7D648C" d="M245.06098843 143.30999184l-1.49199963 15.9749999 27.16799927 5.01100016-4.40899945-10.32600004-21.2670002-10.66000002z"/><path fill="#B58B9F" d="M266.08898735 161.23699284l-22.5209999-1.95300007-2.3369999 25.02799988 29.50600052-6.61399985-4.64800072-16.46099996z"/><path fill="#996A81" d="M265.61998749 175.53699303l-24.38799954 8.7750001 23.59700013 15.2590003 3.3789997-13.5500002-2.5880003-10.4840002z"/></g><path fill="#996A81" d="M335.26099873 118.00099254l13.88799977-10.95900035 3.15799975-2.11499977 7.5890007 5.68400001 1.29099942 10.35100007-15.02099991 15.67600036-11.21899986-2.63400078.31400013-16.00299954z" display="block"/><path fill="#B58B9F" d="M335.2599668 118.0019989l10.90499978 18.63599956-23.47999954 20.30999959.31400013-33.14699936 12.26099962-5.79899979z" display="block"/><g display="block"><path fill="#785667" d="M356.44296348 100.75300217l7.03800023 2.82700014 3.2319994 10.204-3.90799952 5.44299983-1.61899996 1.73400021-12.0369997-13.92000008 7.29399955-6.2880001z"/><path fill="#C49A7F" d="M370.15696305 95.56500053l6.58499986.33100033.50600004 14.9609995.59299994 1.90000009-8.62199986 1.954-3.76600015-1.954-2.58999968-10.90499998 7.29399985-6.28699994z"/><path fill="#996A81" d="M370.73696303 94.27499962l-6.19499993-.45800018-1.67900014 22.59700012 3.66700003 1.10499954 2.58299997-1.38899994 1.62400007-21.85499954z"/><path fill="#C5C5C5" d="M370.89596295 92.10199738l3.51699996-46.3579998-1.67299986-26.45800019-5.01100003-10.10199928.518 37.4449997-3.546 45.01499938 6.19499993.45800019z"/><path fill="#939292" d="M370.8969636 92.10200119l-2.22600007-11.98599958-3.97000003 11.52699995 2.88200004 1.59699964 3.31400006-1.13800001z"/><path fill="#C5C5C5" d="M368.8429643 119.77000141l-6.03900016-.54300022.05900001-2.81199932 6.77100015-1.98900032 7.28500009-4.01999998 2.16399955-5.82499999.63100052-7.54999954-27.37400055-2.02300071.31599999-4.25599957 30.28600025 2.24100018-.92599964 10.38799965 1.1420002 8.91299999-14.31500042 7.47599983z"/><path fill="#A5A5A5" d="M376.91896343 110.40499783l6.23999977 1.88799953-.21699977-19.29999924-3.2280001 4.03799963-2.7949999 13.37400008z"/><path fill="#DFBEA7" d="M356.44296265 100.75400159l4.74299979-5.60599992 9.71000028-3.04600048 2.98499965 4.49900055-6.51499986 3.77499986-4.00199998 9.29400038-6.92099988-8.9160004z"/></g><path fill="#937AA2" d="M324.01400757 197.62300873l11.89299965 3.54100036.6289997 18.18400002-16.95899963 3.3369999-16.91899967.05000018-11.25599956-5.7340002 24.68399954-25.89400006 7.92799997 6.5159998z" display="block"/><path fill="#785667" d="M335.90701962 201.16400146l-16.33100033 21.52100039 9.37600016 11.80499983 10.30400014 2.33200073 4.63199997-5.64000034-7.98099994-30.0180006z" display="block"/><g display="block"><path fill="#996A81" d="M343.88701868 231.18201542l19.78700018 12.80299997-14.24100018 2.16500044-20.4819994-2.16500044v-9.49499988l14.9359994-3.3080001z"/><path fill="#785667" d="M328.95101929 248.31201029h12.57599973l1.16099978-2.28900004 7.06800008 2.28900004h13.91799998v-4.32800007h-34.72299957v4.32800007z"/></g><path fill="#5C3F4D" d="M259.81097412 224.73799229l16.15100002 4.5010004 11.68900013-23.0869999-11.46200013-.01300048-16.37800002 18.59899998z" display="block"/><g display="block"><path fill="#A88BBB" d="M304.2689972 219.3929944l-4.93699933 14.40899992-9.79299998 3.0699997-13.52600026-1.02400017-7.10799885-30.29299927 17.9719992-15.03100013 11.71 21.94099974 5.68199921 6.92800021z"/><path fill="#785667" d="M276.01299858 235.8479929l4.60399962 19.32699966 10.02300024 1.7850008 2.15299987-4.07400036 6.53999997-19.08400058-23.3199997 2.04600048z"/><path fill="#7D648C" d="M315.039999 194.52399302l-10.77100085 24.8709998-32.85100079-21.73199987 30.54900074-12.05399942 13.0730009 8.91499949z"/><g><path fill="#996A81" d="M292.79399824 252.8849926l6.53900004 13.2329998-9.44099999 2.4130001-13.07299995-2.4130001 3.79899978-10.94399977 12.17600012-2.28900003z"/><path fill="#785667" d="M276.81899834 270.44499016h22.51399994v-4.32600022h-22.51399994v4.32600022z"/></g></g><g display="block"><path fill="#937AA2" d="M307.12297982 137.28399467l-3.55100006 1.0700016-5.56899953 8.35999871-.5380001 20.74500048 4.50199985 18.14999998 13.07199955 8.91500091-1.3499999-31.13300085-6.56599981-26.10700083z"/><path fill="#A88BBB" d="M298.00297976 146.71299553l-5.7620002-5.28699875-5.26000012 1.54699898-1.81699991 25.5410003 2.91100025 27.36599929 13.8909998-10.27099991-3.96299982-38.89599991z"/><path fill="#DEDDDC" d="M310.81798172 152.78199816l-24.8579998 1.0209999.342 7.31099988 25.3739996-2.60899985-.8579998-5.72299993zM313.39698029 169.97699451l-27.33500004 2.31900025 1.10100078 7.13500023 27.15100003-3.33900023-.91700077-6.11500025z"/><path fill="#5C3F4D" d="M322.99798155 120.86799622l1.01499986 76.7539978-8.97499966-3.09799957-7.91499972-57.23999978 3.37699985-9.83799934 12.49799967-6.57799911z"/><path fill="#785667" d="M286.98098087 142.9719963l1.09500027 52.90799905-28.26399994 28.8579998 3.42599964-89.8219986 15.11000014 1.64699936 8.6329999 6.4090004z"/></g><g display="block"><path fill="#DFBEA7" d="M270.73698997 126.29699898l2.4979992-8.3939991-2.4979992-12.024-3.94200134-.413L263.69298935 108.829l-.56900024-4.2210001-1.59199906-1.11V75.36599923l47.49299908-12.02300072 15.56499958 50.10500145-16.81699944 5.36199952-6.58599949 13.02700042-3.18300056 14.87600136-2.32299995-9.73000145-4.94899989-5.24099922-8.38200044-5.31500053-11.61299897-.13000107z"/><path fill="#C49A7F" d="M272.3499899 72.6269989l3.15899943 4.6989975 1.36200047 3.62900162 12.04400015 44.20699978 18.85900068-6.35199929-5.26800156 7.48700047.38300133 6.46499824.68400002 5.59200096-5.5680008 8.35899926-8.90899992-10.54899979-18.35899973-9.86699867V113.3649981l1.8359995-5.98599982-1.8359995-1.50100017-7.04299926 2.95000005-2.16000176-5.33099985 1.70400048-10.09499979-1.70400048-18.03700066 10.81600094-2.73799896z"/><path fill="#8F6C5A" d="M267.21498972 97.8249991l4.20300001 1.92900007-5.34000015 3.06300003-1.07999993-2.77800006 2.21700007-2.21400005z"/><path fill="#C49A7F" d="M276.8719883 80.95599794l10.45200038.30999995 7.49800038 12.13599968-5.72600031-17.30999947-12.22400045 4.86399984zM307.21298933 71.05699873l-7.03900003 11.06400013-2.70900011-8.50500012 9.74800014-2.55900001z"/><path fill="#E9CCB9" d="M297.46498942 73.61499882l5.31100011 17.51800012-7.95400011 2.26999998-5.7260002-17.31099987 8.3690002-2.47700023z"/><path fill="#8F6C5A" d="M302.7769878 91.13299942l-2.27300001 4.76399994-5.681-2.49499997 7.954-2.26899997zM282.35198784 126.42699927l20.53700065 6.33499986 4.88500023-13.95199966-25.42200088 7.6169998z"/><path fill="#937AA2" d="M261.5329895 75.36599922l9.20400047 18.94399977-9.20400047 9.1880002V75.36599922z"/><path fill="#8F6C5A" d="M270.73698974 105.87899685l5.45200014-2.4960003-5.45200014 9.98200036v-7.48600006z"/><path fill="#3C3C3B" d="M287.02898932 81.70199776c0 1.32500004-1.07599998 2.39700007-2.40299996 2.39700007-1.32600002 0-2.40099995-1.07200003-2.40099995-2.39700007 0-1.324 1.07499993-2.39700008 2.40099995-2.39700008 1.32699998 0 2.40299996 1.07300008 2.40299996 2.39700008zM304.90898848 76.09099865c0 1.324-1.07599998 2.39700007-2.40199995 2.39700007-1.32700003 0-2.40199996-1.07300007-2.40199996-2.39700007 0-1.32500005 1.07499993-2.39700007 2.40199996-2.39700007 1.32599997 0 2.40199995 1.07200002 2.40199995 2.39700007z"/><path fill="#937AA2" d="M306.13098907 66.30799818l-10.1170001 5.02799988-6.34999978 2.317-14.15600026 3.673 1.36400032 3.62999988 12.93999994-2.6999998 8.25399983-2.66300011 9.14600038-4.53499985-1.08100033-4.75z"/><path fill="#8F6C5A" d="M315.27499008 95.89700031l-28.54199982 8.38999993 12.06699992 7.70399994 11.70200014-3.40299988 4.77299976-12.69099999z"/><path fill="#FFFEFF" d="M290.86298847 104.75199682l21.6079998-6.08200008-3.11800003 8.27800011-10.5539999 3.08800006-7.93599987-5.2840001z"/></g><g display="block"><path fill="#996A81" d="M290.73199368 131.74199653l-19.99599982-5.44500041-12.0430007-4.31099987 4.54500103 12.93200034 34.76500035 11.7960003-7.27100086-14.97200036z"/><path fill="#5C3F4D" d="M270.73699284 118.810997l-12.04399968 3.17599995 12.04399968 4.31199998V118.810997z"/><path fill="#996A81" d="M307.77399182 118.80999756l-9.76999974 27.90399933 24.99399948-25.84499932-15.22399974-2.05900001z"/></g><g display="block"><path fill="#785667" d="M235.62998962 96.6919899l5.29700089-2.37399864 2.88299942-3.97800064 6.17499924-13.59700013 3.09399986-16.1869998 5.97399902-9.1560006-3.5529995-11.64999963 21.0880003-2.33399963 14.48600006-7.19399834 8.4119997 11.52899742 8.84399987 7.74100113 6.9130001 9.22699929 6.50600053 5.7590003 2.8409996 4.763 7.61199951.90899993-11.52600098 8.0250001-4.37999725 6.03999996-2.53100014-10.49900008-4.74000168-10.37299966-24.89399924 4.82999977-22.59699998 7.19299999-.9090004 15.99400043.9090004 12.13799858-13.5359993-.79299926-11.68600082 2.60699844 1.22000122-4.00299835-1.90200043-4.61700058z"/><path fill="#B58B9F" d="M235.62998962 96.69199085l21.13199997 1.36100006-12.9519999-7.71199989-8.18000007 6.35099983z"/><path fill="#996A81" d="M256.76299 98.05399323l2.72700023-26.9960003-8.70600014-10.5020008-6.97400016 29.7850008 12.95300007 7.7130003z"/><path fill="#5C3F4D" d="M259.48898792 71.05699253l31.81199932-9.30200004-7.38599968-4.53900028-2.25899982-7.36699986-26.15600014-10.10000038-4.7149992 20.80700016 8.70399952 10.5010004z"/><path fill="#785667" d="M291.29999065 61.75599289l17.04199982-5.21800041-.01200008-7.04499984-17.2569995-19.27100015-6.64499998 26.5670004 6.87199974 4.967z"/><path fill="#D2A4BA" d="M291.07399178 30.22199154l-7.15800095 26.99600029-28.41600037-17.46700025 35.57400132-9.52900004z"/><path fill="#996A81" d="M321.74999332 64.47699285l-1.59100008 9.52900004-11.81599998-17.46799994-.01300001-7.046 13.42000007 14.9849999z"/><path fill="#B58B9F" d="M321.74999142 64.47799301l-1.59100008 9.52799988 15.10200023-5.38299996-13.51100015-4.14499992z"/><path fill="#5C3F4D" d="M335.26098633 68.6219914v5.3829999l-19.28899956 11.69699978-6.9470005-22.35899973-.6819992-6.80499983 11.81499957 16.0899998 15.10299969-4.00599992zM259.48898888 71.05698967l2.04500007 4.31000042v28.13000011l-25.22200012 1.81599999-.6819992-8.61999989 16.01999974-1.68400049 7.8389995-23.95200014z"/><path fill="#996A81" d="M308.34298897 56.53699207l-17.0420003 5.21899987-31.8119998 9.30200004 2.04500008 4.30900002 47.49099922-12.023-.6819992-6.80699993zM277.66798854 38.61499214l2.0439999-12.02199983-10.45199966-9.98199988 2.84099985 11.88099986 5.5669999 10.12299985z"/><path fill="#B58B9F" d="M277.6679902 38.61499214l-8.40799998-22.0039997-2.72599984 12.47599982 11.13399983 9.52799988z"/></g><g display="block"><path fill="#785667" d="M450.9610033 244.83000088l-13.61999988 2.74599987v4.2439999h23.91799974l8.9159999-2.66199988-4.125-4.3279999H450.9610033z"/><path fill="#996A81" d="M460.0090046 233.51599836l-7.75000025 2.99499989-14.91800093 11.06599998 28.70900059.21899987 8.3570013-11.53399992-14.39800072-2.74599982z"/><path fill="#785667" d="M467.84100294 248.6580007l-6.58200025 3.1609999v4.49299991h20.5l.41600036-3.9939999-14.3340001-3.6599999z"/><path fill="#B58B9F" d="M469.84100282 235.09600067l-3.14999997 3.2420001-5.43200016 13.48100043 20.91600036.4989996-2.9460001-10.98099995-9.38800013-6.24100018z"/><path fill="#785667" d="M450.46700382 213.21600056l-3.37599945 7.29399967 5.16799975 16.0010004 14.43199968 1.82699967 4.77999973-15.30499983-21.0039997-9.81699991z"/><path fill="#996A81" d="M472.42500484 217.3769989l-8.47799957 6.82199955 2.74399948 14.14000034 12.53800011 2.9979992 3.36199951-17.13799954-10.16599953-6.82199955z"/><path fill="#7D648C" d="M468.92500305 213.7149992l-4.97700023 10.4829998-16.8569994-3.68799972-8-23.26900006 16.99999976-.9989996 12.83399987 17.47299958z"/><path fill="#937AA2" d="M461.3160057 200.06999874l-1.30700015 4.65999985 3.93999958 19.467h18.6420002l6.21399974-29.11800002-27.48899936 4.99100017z"/><path fill="#614D6B" d="M446.59100342 191.41799927l-7.5 2.99600005v2.82800007l20.91800046 7.48800015 28.79600024-9.65200019-2.34000015-9.67700028-39.87400055 6.0170002z"/></g><g display="block"><path fill="#5C3F4D" d="M448.59200191 182.0980053l-9.5010004 5.32699978v6.9879998l49.7140007.66499996v-6.82199976l-40.2130003-6.15799979z"/><path fill="#785667" d="M431.25900269 155.93200493l-1.5 12.52300024 9.33199977 18.96900034 11.86999989-27.25400067-19.70199966-4.23799991z"/><path fill="#B58B9F" d="M436.5920031 139.41800404l-6.10100006 1.7180004-.7329998 27.3199997 18.83399963-8.28499984-5.16799975-19.03499985-6.83200001-1.71800041z"/><path fill="#785667" d="M450.46700287 144.82600355l-9.79299992-14.67299986-10.18299991 10.98299969 15.58799982 7.18499958 4.388-3.4949994z"/><path fill="#5C3F4D" d="M498.25900316 160.17000484l10.33200026 16.4380002-19.78500009 11.64800025-12.13100028-18.30300045 21.58400011-9.783z"/><path fill="#B58B9F" d="M481.95500278 156.77000427l5.14599991-15.48900032 18.29800034-1.86299896 3.19199943 37.18999863-23-7.98699952-3.63599968-11.85099983z"/><path fill="#996A81" d="M480.1750021 145.9080038l11.40500045-15.7539997 13.81900048 9.26399976-21.41800022 10.8999998-3.80600071-4.40999985z"/><path fill="#785667" d="M480.17500246 132.42900276l-14.12500036 13.4790001v42.80399895l22.75500011-.45699883 2.77500057-58.10099984-11.40500032 1.47399903"/><path fill="#996A81" d="M452.59100342 128.96600342l-11.91600037 1.18799972-1.58399963 57.27099991 26.95899963 1.28900147 10.625-36.37900067-10.625-6.42700004-5.7809999-13.47799969-7.67799973-3.4640007z"/><path fill="#D2A4BA" d="M468.67500275 160.75900245l-2.624 1.48200011 1.31200003 2.82400012 2.81200003-1.81000012-1.50000006-2.49600011zM465.55000275 172.05200171l-2.75000006 1.49800015 1.25000006 3.05800009 2.64000005-1.65800011-1.14000005-2.89800013z"/></g><g display="block"><path fill="#614D6B" d="M447.175004 75.39800453l-16.68400001-5.518 16.18400002-1.86399997.5 7.38199997z"/><path fill="#8F6C5A" d="M463.5090046 117.3490057l-7.66800023 4.76399994-2.24999904 8.04199982 12.45899915 15.7539997 21.05099917-18.23899984v-7.61899996l-23.59199906-2.70199966z"/><path fill="#614D6B" d="M491.58200413 104.3920021l12.1030001 17.8180008-11.27800011-1.01500034-12.23200011-6.33200002 11.40700012-10.47100043z"/><path fill="#C49A7F" d="M471.47200584 110.04900265l2.95299912 13.59999943 8.96900043 1.1400013 1.78100005 7.6420002 7.23300027-11.23600007 2.39199925-43.42700005-15.90999937-10.98700142-7.41799975 43.2680006z"/><path fill="#DFBEA7" d="M444.42500496 65.28400421l-3.75 54.33299828 33.74999905 4.03100013 7.52999973-50.3429985-37.52999878-8.0209999z"/><path fill="#C49A7F" d="M449.0090046 81.59600449h-2.9289999l8.01200008 19.0199995 4.45799994.8000002h2.7660001l13.90600007-16.82499982-4.63000011-.83200025-7.08299995 1.8300004-1.12100005 3.13799977-3.046.85600007-3.75-1.70500005v-3.28699994l-2.5-2.408-4.08300019-.58699988z"/><path fill="#7D648C" d="M471.47200394 51.04000473l15.62900066-5.32699966 18.29900074 15.03199958-4.19400024 22.0739994-19.2510004-13.70099925-10.48300076-18.07800007z"/><path fill="#937AA2" d="M451.65000343 43.04800415l-8.95899963 18.45800018 11.81799984 5.13899994 32.592 1.33300019v-22.2659998l-35.4510002-2.66400051z"/><path fill="#7D648C" d="M430.4920044 69.87900472l19.5560007 1.30200028 24.37699986 3.34299994 7.53000069-1.22000027h5.14500045v-5.32799983l-42.65700054-10.08000016-13.95100117 11.98300004z"/><path fill="#614D6B" d="M501.2070055 91.57300568l-11.43800044-5.32800055-3.1099999-8.47799969-4.70400047-4.46199989 5.14600039-5.32800055 14.10600042 14.84300042v8.75300026z"/><path fill="#937AA2" d="M486.2180047 82.18300247l-2.23800039 22.51099992 7.60100031 10.48299956 2.04999992-1.54999923 10.05300024 8.58399963-2.47800016-30.63700008-14.98799992-9.3909998z"/><path fill="#E9CCB9" d="M455.59200358 87.87800598l-1.49999976 12.73899985 4.14699977 1.58099985 3.07699997-.78099966 1.07199979-12.6880002-6.79599977-.85099984z"/><path fill="#515152" d="M454.0920043 80.04600406l1.5 4.546-9.51200008-2.995 8.01200008-1.551zM467.09100556 81.59600234l-3.58200001 3.99399996 11.71199989-.99799997-8.12999988-2.99599999z"/><path fill="#8F6C5A" d="M466.050004 108.00600034l-2.54099988 3.42300004-13.0420003-1.48600006-1.8369999-3.78999997 17.42000009 1.85299999z"/><path fill="#3C3C3B" d="M452.34200478 87.87800598c0 1.03400004-.839 1.87199998-1.875 1.87199998-1.03600002 0-1.875-.83799994-1.875-1.87199998s.83899998-1.87199998 1.875-1.87199998c1.036 0 1.875.83799994 1.875 1.87199998zM468.96600342 89.20900345c0 1.03400004-.83899999 1.87199998-1.875 1.87199998-1.03499997 0-1.875-.83799994-1.875-1.87199998s.84000003-1.87199998 1.875-1.87199998c1.03600001 0 1.875.83799994 1.875 1.87199998z"/><path fill="#8F6C5A" d="M483.98100376 104.69300747l9.64999962 8.93500042-1.22399974 7.56700039-8.42599988-16.50200081zM486.21800613 82.18300533l-4.73800087-5.7009998-37.43499946-5.69899982 37.90999985 2.52199984 4.70199966 4.46299994-.43899918 4.41499984z"/><path fill="#7D648C" d="M486.66000366 77.76700592l-.44099998 4.41699982 17.4640007 40.02700042-2.47600031-30.63700008-14.5470004-13.80700016z"/><path fill="#585B5B" d="M443.86800385 107.68100405l27.60400009 2.36800003-10.15700007-8.63300014-3.64499998.89100003-3.57800007-1.69000005"/><path fill="#8F6C5A" d="M454.0920043 100.61600304l3.935 3.38199997 3.28899998-2.58199996-7.22399998-.80000001z"/></g><g display="block"><path fill="#D2A4BA" d="M466.05001926 145.90700054l4.125-15.85000038 22.2310009-8.86400032-.8260002 8.95900035-25.5300007 15.75500035z"/><path fill="#D2A4BA" d="M440.67501831 130.15299988l15.16699982-8.04199982 10.20899963 23.79599953-25.37599945-15.75399971z"/></g><g display="block"><path fill="#785667" d="M552.25897694 261.9709959l-13.61999989 2.74599988v4.2439999h23.91699982l8.91699981-2.66199989-4.125-4.32799989h-15.08899974z"/><path fill="#996A81" d="M561.30497646 250.65799665l-7.74999976 2.99499989-14.917001 11.06500006 28.70900058.21999979 8.3570013-11.53399992-14.39900112-2.74599982z"/><path fill="#785667" d="M569.13897753 265.79899955l-6.58400011 3.1609999v4.4929999h20.5010004l.41499996-3.9939999-14.33200025-3.6599999z"/><path fill="#B58B9F" d="M571.13897765 252.2369957l-3.15000022 3.24300003-5.43400001 13.4800005 20.91600036.49899959-2.94500017-10.98000002-9.38699996-6.2420001z"/><path fill="#785667" d="M551.763978 230.355999l-3.375 7.29600047 5.16599942 16.00099945 14.43400001 1.82700062 4.77999974-15.3050003-21.00499917-9.81900025z"/><path fill="#996A81" d="M573.7219752 234.5189972l-8.47799956 6.81999969 2.7449994 14.1420002 12.53700019 2.99799919 3.3619995-17.1399994-10.16599952-6.81999969z"/><path fill="#7D648C" d="M570.22197723 230.85599804l-4.97799968 10.4829998-16.85599995-3.68699932-8-23.27000046 16.99999976-.9989996 12.83399987 17.47299958z"/><path fill="#937AA2" d="M562.61197567 217.21199703l-1.30700016 4.65800047 3.94099998 19.46799994h18.6420002l6.21500016-29.11800003-27.49100018 4.99199962z"/><path fill="#614D6B" d="M547.88897705 208.55999756l-7.5 2.99600005v2.82800007l20.91600037 7.48800015 28.79800033-9.65100002-3.19099998-9.70800018-39.02300072 6.04699993z"/></g><g display="block"><path fill="#5C3F4D" d="M549.88899422 199.24100304l-9.5 5.32699978v6.9879998l49.7140007.66499996v-6.82299978l-40.2140007-6.15699976z"/><path fill="#785667" d="M532.55499268 173.07400322l-1.5 12.52199984 9.33399987 18.97199964 11.86799979-27.25599956-19.70199966-4.23799992z"/><path fill="#B58B9F" d="M537.88899255 156.56000137l-6.09999967 1.71700001-.7340002 27.3189993 18.83399963-8.28499986-5.16699982-19.03399944-6.83299994-1.717z"/><path fill="#785667" d="M551.76399231 161.96700144l-9.79299992-14.671-10.18299991 10.98100018 15.58799982 7.18500018 4.38800001-3.49500036z"/><path fill="#5C3F4D" d="M599.5559926 177.31200314l10.33200026 16.43900013-19.78500009 11.6470003-12.13100028-18.30400037 21.58400011-9.78200006z"/><path fill="#B58B9F" d="M583.25199223 173.91100264l5.1459999-15.4880004 18.29800034-1.86400032 3.19199944 37.19200135-23-7.98700047-3.63599968-11.85300016z"/><path fill="#996A81" d="M581.47199154 163.0500021l11.40500045-15.75399971 13.81900048 9.26399976-21.41900063 10.8999998-3.8050003-4.40999985z"/><path fill="#785667" d="M581.4719919 149.57200241l-14.12500036 13.47799969v42.80600071l22.75600052-.45800019 2.77400017-58.10200119-11.40500033 1.47400094"/><path fill="#996A81" d="M553.88899279 146.1080017l-11.91799975 1.18799973-1.58200073 57.27099991 26.95700073 1.28900147 10.625-36.37900067-10.625-6.42700004-5.7820003-13.47799969-7.67499995-3.4640007z"/><path fill="#D2A4BA" d="M569.97099274 177.90000081l-2.624 1.48300004 1.31200003 2.82500005 2.81200003-1.81000003-1.50000006-2.49800006zM566.84699166 189.19500327l-2.75 1.49800015 1.25 3.05800008 2.64199996-1.6580001-1.14199996-2.89800013z"/></g><g display="block"><path fill="#614D6B" d="M548.47200108 92.54000282l-16.68400002-5.518 16.18400002-1.86399997.5 7.38199997z"/><path fill="#5A443B" d="M564.80500174 134.49100399l-7.6659999 4.76399994-2.25 8.04199982 12.45799971 15.7539997 21.04999972-18.23899984v-7.61899996l-23.59199953-2.70199966z"/><path fill="#614D6B" d="M592.8790012 121.53499985l12.1019997 17.8180008-11.27599972-1.01600028-12.2319997-6.33200014 11.40599972-10.47000038z"/><path fill="#7A5C50" d="M572.76900291 127.19000149l2.95299912 13.59999943 8.45900044 1.64900016 2.29100004 7.13300133 7.23300027-11.23600006 2.39199925-43.42700005-15.90999937-10.98700141-7.41799975 43.2680006z"/><path fill="#957362" d="M545.72200203 82.4260025l-3.75 54.33299828 33.74999905 4.03100014 7.52999973-50.3429985-37.52999878-8.02099992z"/><path fill="#7A5C50" d="M552.42500114 98.23900414l-4.49700069 1.08699989 3.83600044 5.64199972 3.625 12.79099989 4.45799995.79899979 4.11599993.00899982 6.93099976-12.65799952 7.07800055-3.36899995-5.20300007-2.0539999-7.96400023 2.2459998-4.16600013 3.99300004-2.46099972-4.67799997-3.78900004-2.72200013-1.96399975-1.08599948z"/><path fill="#5A443B" d="M557.63900065 115.28100252l-2.25000023 2.47699994 4.95800018 4.07699996 3.61600017-3.26799995-6.32400012-3.28599995z"/><path fill="#7D648C" d="M572.769001 68.18200302l15.62900067-5.32699966 18.29900074 15.03199958-4.19400024 22.07399941-19.2510004-13.70099926L572.769001 68.18200302z"/><path fill="#937AA2" d="M552.94600105 60.19000244l-8.95700073 18.45800018 11.81500053 5.13899994 32.59300042 1.33300019v-22.2659998l-35.45100022-2.6640005z"/><path fill="#7D648C" d="M531.78900146 87.021003l19.55600071 1.3020003 24.37699986 3.34299993 7.53000069-1.22000027h5.14500045v-5.32799983l-42.65700054-10.08000016L531.78900146 87.021003z"/><path fill="#614D6B" d="M602.50400257 108.71600342l-11.4370004-5.329-3.11099993-8.47799969-4.70400048-4.4630003 5.14600039-5.32799958 14.10600042 14.84399986v8.7539997z"/><path fill="#937AA2" d="M587.51500177 99.32500076l-2.23800039 22.51099992 7.60100031 10.48299956 2.04999992-1.54999923 10.05300024 8.58399963-2.47800016-30.63700008-14.98799992-9.3909998z"/><path fill="#9C7E70" d="M558.178002 102.0470028l-2.78900015 15.71100043 8.57400012.80900002.84200024-15.83500004-6.62700021-.68500042z"/><path fill="#515152" d="M548.33000135 96.88300395l9.84899998 1.35500002v3.80900001l-10.25199985-2.72200001.40299987-2.44200002zM565.38900042 98.23800063l-.58400011 4.49399996 13.16600036-.19199991V99.9620006l-12.58200025-1.72399998z"/><path fill="#3C3C3B" d="M554.2990017 104.03700256c0 1.03400004-.84000004 1.87199998-1.875 1.87199998-1.03499997 0-1.875-.83799994-1.875-1.87199998s.84000003-1.87199998 1.875-1.87199998c1.03499996 0 1.875.83799994 1.875 1.87199998zM572.769001 105.90900421c0 1.03400004-.84000003 1.87199998-1.875 1.87199998-1.036 0-1.875-.83799994-1.875-1.87199998s.839-1.87199998 1.875-1.87199998c1.03499997 0 1.875.83799994 1.875 1.87199998z"/><path fill="#5A443B" d="M585.27800083 121.83500576l9.64999962 8.93500042-1.22399974 7.56700039-8.42599988-16.50200081zM570.26000214 125.45800614l-4.06600047 5.66899991-13.5999999-1.03999996-2.66600037-6.79199981 20.33200074 2.16299986z"/><path fill="#FFFEFF" d="M552.59400177 124.76900363l14.33399963 1.6960001-1.5 3.05800009-11.43799972-.93600011-1.39599991-3.81800008z"/><path fill="#5A443B" d="M587.5150032 99.32500362l-4.73800087-5.7009998-37.43499946-5.69899981 37.90999985 2.52199983 4.70199966 4.46299994-.43899918 4.41499984z"/><path fill="#7D648C" d="M587.95700073 94.90900421l-.44199943 4.41600037 17.4659996 40.02799988-2.47699976-30.63700009-14.5470004-13.80700016z"/></g><g display="block"><path fill="#D2A4BA" d="M567.34698582 163.04899883l4.125-15.85000038 22.2310009-8.86400032-.82600022 8.95900035-25.53000068 15.75500035zM541.97098541 147.29499817l15.16699982-8.04199982 10.20899963 23.79599953-25.37599945-15.75399971z"/></g><g display="block"><path fill="#785667" d="M660.5200243 281.5420065l-13.61999989 2.74599987v4.2439999h23.91799975l8.91599989-2.66199989-4.125-4.32799989H660.5200243z"/><path fill="#996A81" d="M669.56802559 270.22800398l-7.75000024 2.99499988-14.91800094 11.06599999 28.7090006.21899986 8.3570013-11.53399992-14.39800072-2.74599981z"/><path fill="#785667" d="M677.40002394 285.37000632l-6.58200026 3.1609999v4.4929999h20.5l.41600037-3.99399989-14.33400011-3.6599999z"/><path fill="#B58B9F" d="M679.40002382 271.80800629l-3.14999998 3.2420001-5.43200016 13.48100042 20.91600037.4989996-2.9460001-10.98099995-9.38800013-6.24100017z"/><path fill="#785667" d="M660.02602482 249.92800617l-3.37599945 7.29399967 5.16799974 16.0010004 14.43199969 1.82699967 4.77999973-15.30499983-21.00399971-9.8169999z"/><path fill="#996A81" d="M681.98402584 254.08900452l-8.47799957 6.82199955 2.74399948 14.14000034 12.5380001 2.9979992 3.36199952-17.13799954-10.16599953-6.82199955z"/><path fill="#7D648C" d="M678.48402405 250.42700481l-4.97700024 10.4829998-16.8569994-3.68799972-8-23.26900005 16.99999977-.9989996 12.83399987 17.47299957z"/><path fill="#937AA2" d="M670.8750267 236.78200436l-1.30700016 4.65899992 3.93999958 19.46900034h18.6409998l6.21500015-29.12000084-27.48899937 4.99200058z"/><path fill="#614D6B" d="M656.15002441 228.13000488l-7.5 2.99500013v2.829l20.9170003 7.48800015 28.7970004-9.6520002-2.34200096-8.04700016-39.87199974 4.38700008z"/></g><g display="block"><path fill="#5C3F4D" d="M658.1509924 218.81101036l-9.50199986 5.32699978v6.9879998l49.7159996.66499996v-6.82299977l-40.21399975-6.15699977z"/><path fill="#785667" d="M640.81799316 192.64501l-1.5 12.5220003 9.33199978 18.97000027 11.86999989-27.25400066-19.70199967-4.23799992z"/><path fill="#B58B9F" d="M646.15099359 176.13101006l-6.10100007 1.717-.7329998 27.3189993 18.83399963-8.28399945-5.16799975-19.03499985-6.83200001-1.717z"/><path fill="#785667" d="M660.02599335 181.53900957l-9.79299993-14.67299986-10.1829999 10.98199964 15.58799982 7.18599963 4.388-3.4949994z"/><path fill="#5C3F4D" d="M707.81799364 196.88401031l10.33200026 16.4369998-19.78500009 11.64699984-12.13100028-18.30299997 21.58400011-9.78099967z"/><path fill="#B58B9F" d="M691.51399326 193.48200989l5.14599991-15.48800087 18.29800034-1.86399842 3.19199943 37.18999863-23-7.98699951-3.63599968-11.85099983z"/><path fill="#996A81" d="M689.73399258 182.62000942l11.40500044-15.7539997 13.81900049 9.26399975-21.41900063 10.8999998-3.8050003-4.40999985z"/><path fill="#785667" d="M689.73399293 169.14200974l-14.12500035 13.47900009v42.80399895l22.75600052-.45699883 2.77400016-58.10099983-11.40500033 1.47399902"/><path fill="#996A81" d="M662.1499939 165.67800903l-11.91600037 1.18799973-1.58399963 57.2709999 26.95899963 1.28900147 10.625-36.37900066-10.625-6.42700005-5.7809999-13.47799968-7.67799973-3.4640007z"/><path fill="#D2A4BA" d="M678.23399323 197.47100806l-2.62400001 1.48200011 1.31200004 2.82400013 2.81200003-1.81000013-1.50000006-2.4960001zM675.10899323 208.7650106l-2.75000006 1.49800014 1.25000006 3.05800009 2.64000005-1.65800011-1.14000005-2.89800012z"/></g><g display="block"><path fill="#614D6B" d="M656.734025 112.11001015L640.050025 106.5910102l16.18400001-1.86300003.5 7.38199997z"/><path fill="#87614C" d="M673.06802559 154.06001186l-7.66800022 4.76399994-2.24999905 8.04199982 12.45799923 15.75399971 21.0519991-18.23799968v-7.61899972l-23.59199906-2.70300007z"/><path fill="#614D6B" d="M701.14102513 141.10400772l12.1019997 17.8180008-11.27599973-1.01400042-12.2319997-6.334 11.40599973-10.47000038z"/><path fill="#A98268" d="M681.03102684 146.76100826l2.95299912 13.59999943 8.22400045 1.43700028 2.52600002 7.34500122 7.23300028-11.23500061 2.39199925-43.4279995-15.90999938-10.98700142-7.41799974 43.2680006z"/><path fill="#C09E87" d="M653.98402596 101.99600983l-3.75 54.33299827 33.74999904 4.03100014 7.52999973-50.3429985-37.52999877-8.02099991z"/><path fill="#A98268" d="M658.56802559 118.30801105l-2.9289999 2.16400004 8.01100015 16.85599947 4.45799983.8010006 4.11699998.00899982 11.7579999-15.00400019-3.83300018-2.6619997-7.08199978 1.82999992-4.16799998 3.99399996-3.74999977-4.9920001-2.5-2.40799952-4.08200025-.5880003z"/><path fill="#87614C" d="M665.90102458 134.85100985l-2.25000024 2.47699993 4.95800018 4.07699997 3.61600018-3.26799995-6.32400012-3.28599995z"/><path fill="#7D648C" d="M681.03102493 87.75201035l15.62900067-5.32699967 18.29900074 15.03199959-4.19400025 22.0739994-19.2510004-13.70099926-10.48300076-18.07800006z"/><path fill="#937AA2" d="M661.20902443 79.76000977l-8.95899963 18.4590001 11.81799984 5.13800002 32.592 1.33300018v-22.2659998l-35.45100021-2.6640005z"/><path fill="#7D648C" d="M640.0510254 106.59101033l19.5560007 1.30200029 24.37699986 3.34299993 7.53000068-1.21900034h5.14500046v-5.32799983L654.00202656 94.6080103l-13.95100117 11.98300004z"/><path fill="#614D6B" d="M710.7660265 128.2850113l-11.4370004-5.32800055-3.11099994-8.4779997-4.70400047-4.46199988 5.14600038-5.32800055 14.10600043 14.84300041v8.75300026z"/><path fill="#937AA2" d="M695.7770257 118.89500809l-2.2380004 22.51099992 7.60100032 10.48299956 2.04999992-1.54999924 10.05300024 8.58399964-2.47800016-30.63700009-14.98799992-9.3909998z"/><path fill="#CAAF9E" d="M665.15102601 121.30300903l-1.50000024 16.02600003 8.5730002.8079996.84300017-15.83599996-7.91600013-.99799967z"/><path fill="#585B5B" d="M655.98402548 116.4870081l9.41699982.82299995-.25 3.99300003-9.51200009-.83200002.34500027-3.98399997zM673.65102386 117.8080082l-.58300018 4.49400007 10.91600037.83200014v-3.60200012l-10.33300019-1.7240001z"/><path fill="#87614C" d="M678.52302551 145.02800798l-2.1079998 1.43900001-16.91600037-1.837-1.30999946-1.765 20.33399963 2.163z"/><path fill="#3C3C3B" d="M661.90102577 124.5900116c0 1.03400004-.83899998 1.87199998-1.875 1.87199998-1.03600001 0-1.875-.83799994-1.875-1.87199998s.83899999-1.87199998 1.875-1.87199998c1.03600002 0 1.875.83799994 1.875 1.87199998zM678.52502441 125.92100906c0 1.03400004-.83899998 1.87199998-1.875 1.87199998-1.03499996 0-1.875-.83799994-1.875-1.87199998s.84000004-1.87199998 1.875-1.87199998c1.03600002 0 1.875.83799994 1.875 1.87199998z"/><path fill="#87614C" d="M693.54002476 141.40501308l9.64999962 8.93500042-1.22399974 7.5670004-8.42599988-16.50200082zM695.77702713 118.89500809l-4.73800087-5.70100022-37.43499947-5.70100021 37.90999985 2.52400017 4.70199967 4.46200001-.43899918 4.41600025z"/><path fill="#7D648C" d="M696.21902466 114.47901154l-.44199944 4.41600036 17.4659996 40.02799988-2.47699975-30.63700008-14.54700041-13.80700016z"/><path fill="#585B5B" d="M668.0010249 150.89901114l-6.8129999 6.73900008 12.83199978 1.53300023-6.01899988-8.27200031z"/></g><g display="block"><path fill="#D2A4BA" d="M675.60900974 182.62001324l4.125-15.85000038 22.2310009-8.86400032-.82600021 8.95900034-25.53000069 15.75500036z"/><path fill="#D2A4BA" d="M650.23400879 166.86601257l15.16699982-8.04199981 10.20899963 23.79599952-25.37599945-15.7539997z"/></g></g></svg>