<svg xmlns="http://www.w3.org/2000/svg" viewBox="0 0 900 350" width="900" height="350" style="width:100%;height:100%"><defs><clipPath id="a"><path d="M0 0h900v350H0z"/></clipPath></defs><g clip-path="url(#a)"><g display="block"><path fill="#A3A3A3" d="M110.45600414 99.27299881l-14.3579998-10.99300003-19.22000027 9.87599945 7.83200074 73.59799957 39.36800003-10.81399917-13.6220007-61.66699982z"/><path fill="#C4C4C4" d="M96.09800339 88.27999878l3.90799904 81.59700012 44.07999992 1.8769989 4.91600037-80.61399841-52.90399933-2.86000061z"/><path fill="#CECECD" d="M103.77500343 95.72299767h34.14799881l-1.09399986 61.5740013-32.16600037-.6230011-.88799858-60.9510002z"/><path fill="#C4C4C4" d="M100.55800247 101.33399963h40.51399994v6.84399987l-39.83099937-1.15399933.27400016 7.32800007h38.05200005l-.4109993 7.69399953h-36.8200016l-.27399826 6.08200001h37.50499916l-.82100105 8.10899973h-36.13599968l-.13699913 6.57100105h36.68300056l-1.23200035 7.66399956H99.73600388l.8219986-49.13800049z"/><path fill="#C4C4C4" d="M109.89900303 92.74499893l.61499977 66.63100052h3.73699999l-.72599983-66.66500091h5.71499991l.51300001 66.66500091 2.71799994-.5550003.84599995-65.28900147h5.31900025l-.4840002 65.84400177s2.53900003.41799927 2.53900003 0c0-.41900253 1.1079998-67.62200165 1.1079998-67.62200165l-21.89999962-1.3619995v2.35300063z"/><path fill="#A3A3A3" d="M186.44900322 102.48999977l-18.59000063-27.93200111-31.92800093 8.01399994 5.00800133 88.39700317 35.47799969 3.5550003 10.03200054-72.0340023z"/><path fill="#C4C4C4" d="M169.48700142 175.95400238l-1.62800026-101.39600372 57.72200012 1.75300216-2.75600052 97.0509987-53.33799934 2.59200286zM90.3560028 133.65699482l-19.53299998-18.02999973-13.52299977 11.35099983.98900032 33.69400024 25.38799954 18.0529995 6.6789999-45.06799984z"/><path fill="#CECECD" d="M67.67300224 171.75400162l6.3010006-10.16399956-3.15200043-45.9639988h39.63300133v48.06899834l-42.7820015 8.05900002zM176.416996 85.57699966h41.65200043l-1.3369999 75.10199738-39.23200034-.75999832-1.08300019-74.34199906z"/><path fill="#C4C4C4" d="M172.49100494 92.42100143h49.41600037v8.34699822l-48.58099937-1.40699959.33399963 8.93800068h46.4109993l-.50099945 9.38499975h-44.9090004l-.33399963 7.41799998h45.74399948l-1.0019989 9.89099956h-44.07400132l-.16699981 8.01300049h44.74200058l-1.50300026 9.34899902h-46.57699967l1.00099945-59.9339981z"/><path fill="#C4C4C4" d="M183.88700485 81.94499588l.75 81.27000046h4.5569992l-.88499927-81.31200028h6.96999956l.62600004 81.31200028 3.31599999-.67699814 1.03100001-79.63199997h6.48800016l-.59000015 80.3089981s3.09700012.51000214 3.09700012 0c0-.50999831 1.34999943-82.47999953 1.34999943-82.47999953l-26.70999909-1.65999985v2.86999893z"/><path fill="#DDDDDC" d="M76.08100224 123.7650013l30.4260006-.63700104v37.5510006l-28.04200078 1.02300071-2.38399982-37.93700027z"/><path fill="#CECECD" d="M73.82800293 127.52200222l33.5550003-1.50199985v4.88299942l-32.3039999 1.1260004.3760004 3.88199997 31.9279995-1.12699986v5.2169999l-31.30200004.91799998v4.00700008l31.30200004-.5840001v3.75600027l-30.50500011.41699982v4.50800037l30.00500011-.33400058.5 4.59100055-31.50899982.44199944-2.54699993-30.44999981.50099945.25z"/><path fill="#DDDDDC" d="M353.30901146 197.4039979l-60.77399826-4.1110003 9.11499977-8.13300014 51.65899849 12.24400044z"/><g><path fill="#ECECEB" d="M724.4630127 190.74299622l-240.36800385 38.87700271-269.41399384 5.72000122h-14.83601379l-77.30700684-1.7880001-74.98397827-2.1439991L0 248.89299965l47.28601074 53.03000069 191.61399842 38.3959999 238.21399879 9.68199921 212.20000267-9.8160019 172.51399231-38.17299651 33.7000122-58.1780014-52.81600951-19.30300141-38.13699341 2.00900269-40.87799073-45.53900147-39.23400878 9.74199677z"/><path fill="#ECECEB" d="M129.24998474 180.16699743l-18.79399109-16.47199964 519.36999512 3.6800003-7.32800293 43.70399857-398.86999512-23.23699942-35.92799377 11.79699984-57.55599976-9.91999984-.89401245-9.5519998z"/><path fill="#ECECEB" d="M0 182.64299679l47.55399704 48.76500034 27.71500015-19.52499962 40.57500077-17.33800041 12.69099807-8.22300041 4.89099884-3.58299923-31.70299911-19.52200222-43.43499851-2.54499817L0 182.64299679z"/><path fill="#FFF" d="M101.72399902 163.2159977l24.49699974 17.7859993-24.49699974 6.75100004 41.5579995 21.27099931 43.16699898-12.24399948-51.56799889-9.29499984 9.20499993-5.08500003-33.63000107-18.70399976-8.73199845-.47999954z"/><path fill="#CECECD" d="M114.72000122 225.34399796l7.95500183 9.20600032 61.92300415 17.12699986 56.6289978-3.35000038 21.40499878 5.88500023 76.63999558.70800018 45.34900188-11.63400078 31.1960001 4.22299957 51.87599945-2.68999862 28.53800202-2.96300125 5.42100525 4.97300148 33.79199218-1.78700066 23.5149994-3.37999916 6.13900756 4.93299866 36.31298828 2.38000106 24.39300537-21.7140007 3.16600037-13.625-35.21200561-12.95899963-35.48098755-5.63000107-38.9670105 4.55800056-15.01399231 2.14500046-28.51000214-4.29000091-27.8180008 1.61200142-1.89199828-2.82900048-41.25200272-6.1119995-12.06500053-.53600121-60.41599846-1.60900116-30.29800415-2.41199875-78.02200317 2.68099975-74.35798646 17.87400055-34.94500732 19.21500016z"/><path fill="#3AA0BA" d="M618.11799622 226.00399685l-4.02101136 1.6079998-22.13198852 4.11200047-19.76200867 2.08499908-7.76699829.8199997-24.89900208-7.58799935-36.74200439-.77699947-31.7279892-1.6090002-50.1170044-.43900014-63.039999 4.11100006-21.4489994 1.0130005-65.82299805 12.57199954-79.72100067-5.09399986-55.05300904-8.93799973-6.6139984-1.0720005 30.47601317-14.65700006 72.57099915-14.56800032 60.23699188-4.28899956 60.77300072 4.11000061 85.67900276 7.68599987 34.8849945-.98200035 41.55900575 4.82600021 42.09300232-5.63100051 28.86799621 3.48600006 22.70100403 8.66900015 9.02600098 10.546z"/><path fill="#DDDDDC" d="M223.62800598 187.8419981l-74.3580017 17.87599993 10.45600127 6.43399954 72.57099915-14.56799984-8.66899872-9.74199963zM190.916996 236.81799889l-6.70999908 14.454 57.21800041-.15500022 20.81099892 2.68099976 8.40100097-11.88599968-79.72000122-5.09399986zM361.88701057 235.92499733l-22.104002 18.99499989 47.85200215-3.80200005 27.78599834-4.02200007 2.59200287-8.58000017-56.12600136-2.5909996zM470.75799656 231.90299702l-3.06499958 12.91599989 33.93099975 1.92799997-5.8430004-13.50399971-25.02299977-1.34000015zM564.58399773 238.15799642l-29.31299973-4.37899995.14599991 11.18099975 29.6819992 1.63500023-.51499938-8.43700003zM603.10298729 228.46299458l-17.30800057 8.13399958 15.61600018 12.37799955 35.11800098-19.21799946-33.4260006-1.29399967zM593.3619709 200.26399612l-6.97099876 6.52400017 22.6999991 8.67000008 19.483999-2.2340002-35.21299934-12.96000005zM518.91501045 199.19199796l38.96699906-4.55800004-.35899926 8.67000007-38.6079998-4.11200003zM446.07598782 196.24299622l-7.0899992 8.84799957 34.88500023-.9829998 1.5189991-7.06099987-29.31400013-.8039999z"/><path fill="#5EC0D9" d="M614.3999939 227.61299896l-11.29699707.85099983-16.81201172 8.24800015-21.4039917 1.44699955-29.31401062-4.28999996-33.06899262-.62599945-31.72499847-1.6079998-52.6760025 4.28999996h-55.9119997l-25.11400128 2.7709999-66.13500214 3.21699906-79.72099304-5.09399891-55.05400085-8.9380002 29.13600158-12.06500006 38.07299805-7.68599987 36.82099915-3.03899956 46.39499664 5.98799897 50.10700226-1.3399992 50.52399921 1.3399992 51.56000042 1.69799995 73.73199463 4.82600021 45.66900635-7.71799945 47.1000061 8.6119995 9.11599732 9.11600018z"/><path fill="#3AA0BA" d="M169.82600021 233.33299637l26.45399857-10.54599953 24.66600037-4.73699975 21.09199905-3.57500005 46.29500198-8.9380002-2.8600006-7.50600052-3.75299836-.26999855-41.82700157 7.32999897-35.30400086-.26900005-5.1960001 1.83200073-1.4159994 7.4629997-4.37899972-4.11099994-27.79399872 5.6309999-4.33200073-.09100001-25.60700226 12.33499963 33.96100235 5.45199967z"/><path fill="#C4C4C4" d="M199.58600044 215.54699612l-3.12800026 2.05700016-2.59199905-2.32499981-1.68100071-21.98499966-22.36000013-4.38000011-9.92099905 4.64799976-1.25100136 8.57900012-5.40699959-2.14499999.58099937-8.13299953 16.71300078-7.14900017 26.25599909 3.71500015 2.79000091 27.11799908z"/><path fill="#C4C4C4" d="M164.6420021 205.26899886l30.29699994-7.41799998.625 3.39699983-30.56499958 7.3280002.625 4.82600009 29.93999958-5.45200007.71600055 4.11099999-31.81700039 6.07800007.1789999-12.87000013z"/><path fill="#8CE0DC" d="M557.16599464 215.01099586l26.89999962 2.50299979 9.20700074 7.7750001-4.91600132 4.20199966 1.4300003-3.66499973-7.23999977-5.541-25.38099957-5.27399982z"/><path fill="#8CE0DC" d="M538.84501934 215.3679986l35.12300015 5.72000012 5.9869995 5.63200012-8.04199981-3.9330001-32.533-5.0050001-19.5710001-.35699988 19.03600026-2.05700016z"/><path fill="#CECECD" d="M167.85800743 225.4669962l-.70800018-24.04900075-18.68600017-5.88999939-18.3209998 5.72000027 1.25099945 11.3489995 5.00500011-.44599998-.71500015-7.95300019 13.5850004-4.20200014 12.04499972 4.1050005-.24800015 21.45499992 4.19999981 2.05599976 2.59200096-2.1449995z"/><path fill="#737373" d="M722.0819807 218.90399742l-1.63600015 35.11999893 6.96899992-3.70899963 8.348-16.53499985-13.68099976-14.87599945z"/><path fill="#8F8F8F" d="M856.74298477 217.14199543l14.7470001 27.80300045 10.67999995 2.26299953 5.78100013-20.40299987-31.20800018-9.66300011z"/><g opacity=".1"><path fill="#2B2B2B" d="M895.26998901 244.41900015l-59.70700073-21.49599981-74.62600326 14.03199958-53.71300126 15.14700014-15.44499969 5.12899989 105.42700267 24.31899929 90.15699696-23.47999907 7.90700531-13.65100002zM354.11800003 293.03300357l52.82299995-9.47399974 57.94199944 10.4119997-61.7939992 14.34500027-48.97100019-15.28300023zM200.1530075 320.0229919l76.36800224-9.42899967 77.59600228 13.94399977-81.44800233 10.8130002-72.51600218-15.3280003zM583.42498016 317.5590024l-54.59100055 15.18100023-68.35200024-10.80500018 69.46900034-11.2950002 53.47400045 6.91900015zM755.86702728 317.92499048l-79.66899824 16.56300085-90.2809987-19.4790008 89.03799867-14.3790009 80.91199827 17.29500085zM39.8769989 284.90099502l62.829 5.4519999 51.83600092-13.04899979-56.21500075-2.86000013-58.45000017 10.45700002z"/></g></g><g><path fill="#1C7678" d="M121.4750042 265.32800674l.8050003 15.72999955 12.60099983-1.07299996-4.64699936-15.37199974-8.75900077.71500015zm-53.80200005 2.32399989l.35699844 17.51699972 12.24500084-3.0380001-3.664999-15.283-8.93700028.80400038z"/><path fill="#5EC0D9" d="M45.7760048 202.32100677l90.71299743-9.91999816 13.58499908 73.01699829L49.4410019 273.9070053l-3.6649971-71.58599854z"/><path fill="#1C7678" d="M76.87800312 194.6340084l7.68599987-.7149999-.89300013-4.20000005 11.796-2.23499966.62699986 5.36199951 8.13300038-.8039999 1.7869997 10.63600016-27.88399982 3.03999948-1.25199986-11.08399963z"/><path fill="#FFF" d="M115.97000694 238.50900888l-33.34399986 1.06699992-1.2520008 8.34100008 35.49200057-2.83299995-.8959999-6.57500005zM107.44500542 227.98101044l-18.58199978.35300016-.51000023 7.5619998 19.76000023.84899998-.66800022-8.76399994zM97.6530056 225.80300999l-1.556-8.48999977 4.24399996.71499991-.76100003 7.3959999-1.92699993.37899996zM97.73900577 211.0790081l-1.641 3.6870001 2.121 2.13900012 1.787-2.57500011-2.267-3.2510001zM81.37500381 250.62300849l35.7859993-1.97999978.63000107 9.29799986-36.41600037 2.49599981v-9.81399989z"/><path fill="#5EC0D9" d="M87.78900445 253.25200772l-1.43900002 2.11600009 1.28000004 2.2960001 2.726-2.2960001-2.56700002-2.11600009zM99.8680044 252.44000793l-2.04499992 2.26899988 2.46799991 2.26699989 1.86999991-2.26699989-2.2929999-2.26899988zM110.66200565 251.92300749l-2.14199995 2.2589999 2.81999994 2.25800006 1.04999995-2.54200006"/></g></g><g display="block"><path fill="#CECECD" d="M117.98901367 25.2150009l33.7270012 11.53899976 34.3129999-6.30099964 22.49699956 5.2119999 12.23399925 2.83500003L253.98501587 21.723001l-55.57000065.8349998-35.73600101-10.09599995-44.69000054 12.75300005z"/><path fill="#ECECEB" d="M163.93001556 0l-45.94100189 25.2149992 45.27600098-8.72999978 35.90299988 10.85600018 54.81700134-5.61800003-23.5170021-11.15900016-30.88199902 8.04700017L163.93001556 0z"/><path fill="#CECECD" d="M598.62600708 110.84099701l-32.22299576 9.52700016-32.78200058-5.20200014-33.18200012 6.64300012-31.74299622-13.85100007 53.0919962.68999982 34.14199924-8.33500004 42.69599724 10.52800015z"/><path fill="#ECECEB" d="M598.62600708 110.84200191l-43.2559967-7.20700001-34.30200005 8.96200013-52.37199593-4.63800001 22.4679947-9.21200013 29.50500202 6.64299988 33.98099994-15.60500002 43.97599602 21.05700016z"/><path fill="#CECECD" d="M701.63703918 38.94300121l43.71300126 12.56300026 44.60499862-6.89700031 45.09199997 8.8039999 43.14599991-18.2869997-72.26099968.92399978-46.30900001-11.02299976-1.67700005.40199947-56.30900002 13.51400036z"/><path fill="#ECECEB" d="M701.63703918 38.94399929l58.71699906-9.54399985 46.63300133 11.82199973 71.20599937-6.09599972-30.57600021-12.19199991-37.50300026 3.26300001-52.9979992-9.78499985-55.47900009 22.53199959z"/></g><g display="block"><path fill="#369496" d="M428.02198792 188.46700287l-18.85800028 27.16899967-31.46000052 2.2340002 9.11600113-25.91800021 2.76599884-5.73700047 20.11400032 1.4470005 18.3220005.8050003z"/><path fill="#165E60" d="M377.70498657 217.87000275l6.52399826 42.71999931 13.13800097.26799965 5.1839999-2.68099976 7.23899996-.9829998 9.11600017.3579998 9.20499897-3.03899955-24.12999916-29.22500039-26.27599907-7.41799926z"/><path fill="#C3987B" d="M384.22998714 260.59000587l3.66299963 23.68499947 8.49000025-4.11100006 6.16699982-21.98699951-6.16699982 2.68099975-12.15299988-.26799965z"/><path fill="#3AA0BA" d="M396.38398743 280.1630025l12.78100013 15.99800014H385.7489872l2.14500046-12.51300002 8.48999977-3.48500013z"/><path fill="#27788C" d="M385.7489872 296.16000211l.89400005 2.95000005h21.53900051l.9829998-2.95000005H385.7489872z"/><path fill="#1C7678" d="M377.70498657 217.8700018l50.40599823 36.64299869-.07299995-54.26099968-.01599884-11.78499794-50.31699944 29.40299892z"/><path fill="#27788C" d="M400.85298586 285.79400086h-7.59700012l-.71499968 2.76999998h10.54599953l-2.23399973-2.76999998z"/><path fill="#8B6651" d="M384.22998714 260.59100288l16.62199975 3.66500002 1.69799995-6.07800007-18.3199997 2.41300005z"/><path fill="#C3987B" d="M409.79098606 257.19400024l3.6630001 23.41600037 8.4009998-4.11100006 4.55799984-15.9090004-3.93199968-3.3959999h-12.69000006z"/><path fill="#3AA0BA" d="M421.85598814 276.4989996l12.7800001 16.08799934h-23.32600022l2.14500046-12.60299969 8.40099966-3.48499965z"/><path fill="#27788C" d="M411.30998802 292.5859989l.89299965 2.85999989h21.53900051l.89400006-2.8599999h-23.32600022zM426.32398653 282.13000524h-7.50699997l-.80499983 2.8599999 10.63599968-.089-2.32399988-2.7709999z"/><path fill="#8B6651" d="M409.7909851 257.19400194l16.62199975 3.39600012 1.69799995-6.07700014-18.3199997 2.68100002z"/></g><g display="block"><path fill="#1C7678" d="M469.20098686 178.36801195l1.94999886-11.2590003-21.230999-3.30999994-6.43500041 4.20099997-5.00399876 10.54700017 30.71999931-.1789999z"/><path fill="#C3987B" d="M467.25298595 166.5000124l1.94800044 11.8670001 9.9829998 3.54900026 5.89100027-5.62500023-.97500038-9.45299983-16.84700013-.3380003z"/><path fill="#DFBDA5" d="M479.18298721 181.91501188l4.91600037-15.07800007 12.11600017.38600016.3000002 8.68799985-17.33200074 6.00400006zM483.33398819 163.22001243l-1.16100025-4.02000022-14.92100048 7.30100012 1.02300024 6.23500013 7.85200011-.75699997 7.20700038-8.75900006z"/></g><path fill="#165E60" d="M427.2199707 140.74099731l22.70000077 23.05900002-11.44000039 14.74699974-11.26000038-8.04399967v-14.78000021-14.98199988z" display="block"/><g display="block"><path fill="#165E60" d="M372.16497993 139.84899902l7.86499978 28.06299973-8.22199965 9.11700058-6.3460002 2.59199905-12.86999988-3.664999 19.57299995-36.10700036z"/></g><g display="block"><path fill="#1C7678" d="M371.80697966 177.02700138l7.57700014 21.092-1.82499981 6.02799989-6.21700001.85400009-18.75-29.04599953 19.21499968 1.07199955z"/><path fill="#C3987B" d="M371.34198046 205.00000241l2.8590002 7.776 5.18399981-1.3080001 7.35100004-9.12199997-7.35100004-4.22799993-8.04300001 6.882z"/><path fill="#DFBDA5" d="M374.20098066 212.77600145l3.50399971 4.99800015 12.39400006-7.24900022-3.36299992-8.17900023-12.53499985 10.4300003z"/></g><g display="block"><path fill="#C3987B" d="M370.11096573 70.76299858l19.92899907 64.25900078 7.21799981 8.05599975 7.97600031-8.05599975 8.31099892-16.71300125-11.34999943-57.019001-32.08399868 9.47300147z"/><path fill="#DFBDA5" d="M456.26496506 46.63199997l-2.9489994 71.4090004-51.1210003.35699844V61.28899956l54.0699997-14.6569996z"/><path fill="#4F5253" d="M422.3929634 63.52299905l6.16699983 6.3460002-21.18199921-.89300013 15.01499939-5.45300007zM437.40795946 69.06500101l3.4840002-5.89799976 11.70800019 4.82499993-15.19200039 1.07299983z"/><path fill="#C3987B" d="M407.37896252 68.97499752l13.31599998 8.22300029 10.36800003 13.58500028-2.50300026-20.91300011-21.18099975-.89500046zM437.40796375 69.06500244l-.62699985 21.62899971 6.79299986-14.38899994 9.02699983-8.31299972-15.19299984 1.07299995z"/><path fill="#E8CAB6" d="M428.55996323 69.86899948l8.84799957-.80400085-.62599969 21.62800026-5.54100013 1.16200065-2.68099975-21.98600006z"/><path fill="#8B6651" d="M431.06196666 90.78199697l2.32399988 3.39700007 3.3959999-3.48600006-5.71999978.08899999z"/><path fill="#FFF" d="M423.10796165 101.77600074l9.83099965 6.0769999 9.20499965-5.98799992-8.48999965-.8039999-10.54599965.71499992z"/><path fill="#3AA0BA" d="M418.97196198 99.96400166l14.50300014 11.37400007 12.41300022-11.7659998-12.41300022 7.20799995-14.50300014-6.81600022z"/><path fill="#27788C" d="M422.82396221 101.77399898l19.3199997.09099996 3.74400043-2.29299999-3.92199993.773-8.22300029-2.23399996-8.84199977 2.05599998-5.92900037-.203 3.85200023 1.81z"/><path fill="#4F5253" d="M456.2659607 46.63199902l11.88600158-3.03900004-40.39700031-9.5630002-47.63600064-3.75300026-14.74499893 27.79400063 10.45500183 6.61400032 19.03699875-1.2510004 61.39999771-16.80200005z"/><path fill="#474747" d="M365.3739624 58.07199955l29.49200058 5.36199951-2.0560007 19.0369997-5.62999964 1.87699986-1.51800013-12.51199955-14.033 4.111-6.2550001-17.87499952zM374.84696305 86.04599953l-18.94699967 20.46600008 11.56099987 14.94599962 11.94399977 15.44200039 4.57300043 5.47200012 10.4499998-2.93200111-4.38800048-4.41699982-15.19299972-48.97699928z"/><path fill="#6F7173" d="M380.1199646 30.27700019l50.13799906-17.87499976 37.89399862 31.19199943L380.1199646 30.2770002z"/><path fill="#2B2B2B" d="M420.69496155 73.80199814c1.875 0 3.3959999 1.5209999 3.3959999 3.3959999s-1.5209999 3.39599992-3.3959999 3.39599992-3.39599991-1.52099991-3.39599991-3.39599991 1.5209999-3.39599991 3.3959999-3.39599991zM443.57396698 72.99700093c1.82599998 0 3.30699992 1.4799999 3.30699992 3.30699992 0 1.82599998-1.48099994 3.30699993-3.30699992 3.30699993s-3.30699992-1.48099995-3.30699992-3.30699993c0-1.82700002 1.48099994-3.30699992 3.30699992-3.30699992z"/><path fill="#8B6651" d="M427.75596237 118.22000217h-34.94599914l12.42399978 16.80200005h9.29399967l13.2279997-16.80200005z"/><path fill="#DFBDA5" d="M376.45596433 91.13999939l11.26099991-2.59100056-2.05600023-16.7130003-13.85199976 4.29000044 4.64700008 15.01400042z"/><path fill="#8B6651" d="M382.97996283 82.2920034l-.89400006-6.3460002-4.73600006 1.34100008 5.63000012 5.00500011z"/></g><g display="block"><path fill="#8CE0DC" d="M390.03997803 135.02200317l-10.63500023 1.87800026-7.23999977 2.94799996 7.86499977 28.06400013 17.6960007 5.72000026 29.49300038-3.1289997v-7.95200062-21.80900002l-12.69099998-5.72000027h-24.48800087z"/><path fill="#FFF" d="M390.03997707 135.02200317l3.93300057 12.1539998 8.48999987-10.72399997 7.86499967 11.08200026 4.20000076-12.51200009h-24.48800087z"/><path fill="#50A9AA" d="M380.03097725 167.91100407l47.18900108-7.68499947.8029995 28.24100018-41.20000076 3.48499965-6.79199982-24.04100036z"/></g><g display="block"><path fill="#6F7173" d="M309.6929884 238.2469902l5.89899921 66.22500039-2.8609991 7.68699836-16.89200044 5.00400162-15.1929996-33.51500034 3.4859991-21.53800011 25.56100083-23.86299992z"/><path fill="#27788C" d="M295.84099007 317.16299105v5.00600004h34.85400009v-5.00600004l-25.11299992-1.96600008-9.74100017 1.96600008zM242.21598816 321.98998559v5.09399998h34.3199997v-5.09399998l-26.09799958-1.96599997-8.22200012 1.96599997z"/><path fill="#6F7173" d="M241.41298676 251.11699104l1.69799804 59.52300072 22.87900162-4.20100021 43.70299911-68.1910019-24.57699966-.894001-43.70299911 13.7630024z"/><path fill="#318FA6" d="M243.11098862 309.6559894l-.89500046 12.33500029h34.3199997l-10.54600001-15.55200053-10.18799973-4.55800009-12.6909995 7.77500034zM295.84099007 317.16398573h34.85400009l-15.1040001-12.69200039-19.75 12.69200039z"/><path fill="#4F5253" d="M265.9899869 306.43898869l9.3840003-14.5670004-33.0680008-10.45699977.80500031 28.23999977 22.87900019-3.2159996zM280.646986 283.64798927l3.84300042 7.68700028 28.68900108-14.0310011-3.48600101-39.05700015-29.04600048 45.40100097zM241.7699871 264.43298817l19.66200066-6.16599998-14.88900041-23.38899937-5.13100005 16.23899936.3579998 13.31599999z"/><path fill="#474747" d="M271.6209879 261.84198809l18.6789999 6.70300054 8.22099971-12.87000033-13.04699981-11.97600034-14.7790004-1.9319992.9260006 20.07499933z"/></g><path fill="#165E60" d="M304.59997559 168.00097656l3.3959999 46.91999817 20.19799996-16.17599916-23.59399986-30.743999z" display="block"/><g display="block"><path fill="#926D5A" d="M353.3090105 197.4039793l14.0300007-6.25500011-1.1600008-10.9039998-7.41799963-5.71900035-5.27299989 2.4130001-5.00500059 14.83599997 4.82600022 5.6290002z"/><path fill="#755445" d="M367.34101075 191.14897919l6.97000009-7.41800022-5.45000005-17.42800045-10.10000014 8.22200012 8.5800001 16.62400055z"/><path fill="#369496" d="M307.99700928 214.92197704l18.94700002 16.802001 26.36500025-34.3190012-9.56299972-11.17100048-35.74900055 28.68800068z"/><path fill="#755445" d="M343.74601078 186.23397827l3.66400015-19.3949995 5.63-.2680006.71600008 18.59000015-5.27300012 6.61400032-4.73700011-5.54100037z"/></g><g display="block"><path fill="#50A9AA" d="M240.42899132 155.13098145l15.55100012 2.3240013 26.18599939 17.51599885 8.76000023 29.40399933-5.45199967 39.3240013-13.85299968 18.1419983-30.2090006-10.72399902v-15.3730011l-6.3449993-44.14900017-3.03899956-30.65500069 8.40099907-5.8089981z"/><path fill="#ECECEB" d="M287.97599173 166.3919816l-5.63000012 5.36199999.71399999-13.31599998 4.91600013 7.954z"/><path fill="#369496" d="M259.91399193 183.81898117l17.15800094-12.2440002-6.43400049-4.38000035-10.72400045 16.62400055zM282.34599113 171.75398123l10.18799973 1.61000002 6.79199982-3.48700006-11.34999967-3.48500007-5.62999988 5.36200011z"/><path fill="#72CBCC" d="M285.47399235 243.69898224l13.0470004 11.97699737 11.17199946-17.42899894-5.09399986-70.2460003-17.51699925-10.81499862 12.24499965 12.69199753-16.98200011 1.87700271-.1779995 3.2159996 3.3069992 68.72800065z"/></g><g display="block"><path fill="#FFF" d="M283.06099224 158.43799019l1.6090002 6.61299991 3.30700017 1.34099985 11.35000038 3.4849999-12.24400044-12.68999959-4.0220003 1.25099993z"/><path fill="#755445" d="M272.15699005 148.42798042l2.592-25.9180007-11.26100015-43.43500185-28.9569993 24.22000123 10.09899902 46.56299972 17.51700044 17.5170021 8.48999953-.17900085 11.53000069 7.77500153.1779995-3.21700287 1.9659996-5.98799896-1.25099945-7.32799912-10.90299988-10.01000023z"/><path fill="#926D5A" d="M325.2449894 78.09098244l-43.43599988-13.31599999-18.32199955 14.29899979 8.49099923 67.74499893 50.22800064-.8050003 3.03899956-67.92299843z"/><path fill="#755445" d="M296.91299152 93.5529871l-18.58899974.89400005 10.5459998 6.3449998 5.62600013 9.63100003 4.29399967 7.34999943-1.87699986-24.21999931zM304.50998974 93.19497967l16.26600075.8050003-7.77500037 5.987-6.88200018 17.69600057-1.6090002-24.48800087z"/><path fill="#474747" d="M278.85999203 88.90498304l-.5359993 5.54300022 18.58799934-.89500021-.35599994-5.273-17.6960001.625zM320.77599049 89.53098226l-15.9090004-1.16199994-.35700035 4.82599997 16.26600075.806v-4.47000003z"/><path fill="#51362A" d="M298.79099417 117.77298665l7.32800007-.08899999-4.38000006 3.48600006-2.94800001-3.39700007zM285.0269928 126.61998129l26.72200012-1.25-7.954 13.49400043h-10.1880002l-8.57999992-12.24400043z"/><path fill="#FFF" d="M288.15498829 128.04998171l20.73399925-1.0719999-2.41299963 4.02199995-15.37200022.89399994-2.9489994-3.84399999z"/><path fill="#926D5A" d="M243.82599092 95.60898209l-9.29499984 7.68600034 3.306 15.10400057 11.26199984-4.55800056-5.273-18.23200035z"/><path fill="#51362A" d="M238.64199162 104.4569801l3.4870001-2.77100002 1.78700006 6.25600004-5.27400016-3.48500001zM249.09999228 113.83998537l-9.83200026 11.26200008-1.42999983-6.70300006 11.26200009-4.55900002z"/><path fill="#99796A" d="M296.91299105 93.55198574l7.59700012-.35599995 1.6090002 24.48799992-7.32900023.0880003-1.8770001-24.22000027z"/><path fill="#474747" d="M247.40099168 108.29898453l6.52299952-7.23899937-2.32299947-11.8870002 11.8869996-10.09899986-21.80699968-6.97099972-14.56899977 2.9489994 7.41799927 28.24200059 9.29500043-7.68600035 3.5760001 12.6909995zM263.48799038 79.07398129l-3.03900051-8.75799978 5.45200014-7.5070001 4.82600015-2.41299962 11.08200032 4.3789997-18.3210001 14.2989998z"/><path fill="#737373" d="M227.11299133 75.05198193l10.36699868-26.00599957 22.16499996 7.50600004 6.25599956 6.25699985-2.4129982 16.26499999-14.121001-1.51900005-22.253999-2.50300026z"/><path fill="#8F8F8F" d="M237.48099327 49.04598236l24.21899963-.71500015 14.03100037 6.88200009 6.07799912 9.56200015-15.90899945-1.96600008-28.41899967-13.763z"/><path fill="#737373" d="M281.80999172 64.77498245l13.8529998-2.85999965 2.68100071-6.3460002-.9829998-7.05999976-19.12700069-16.53399962-16.53400051 16.35499961 20.11000049 16.44499962z"/><path fill="#474747" d="M281.80899239 64.7749827l43.43600082 13.31599974-16.17700052-17.33799982-10.7249999-5.18399954-16.5340004 9.20599961z"/><path fill="#8F8F8F" d="M325.2449894 78.09098434l1.69799995-4.46899986-1.8770008-23.32600069-46.83099938-18.32100057 20.1090002 23.59400057 26.90100003 22.52200055z"/><path fill="#737373" d="M325.24499226 78.09098434l3.39599979 5.71999932 5.18400013.26800155-8.76000023-33.7820015.1800003 27.79400063z"/><path fill="#474747" d="M333.82399035 84.0799818l-9.47399998 14.4779997.89400005-20.46599961 8.57999993 5.98799991z"/><path fill="#2B2B2B" d="M288.60198975 99.36198258c1.72800004 0 3.12800002 1.39999998 3.12800002 3.12800002 0 1.727-1.39999998 3.12800003-3.12800002 3.12800003-1.72800005 0-3.12800002-1.40100003-3.12800002-3.12800003 0-1.72800004 1.39999997-3.12800002 3.12800002-3.12800002zM313.89398956 99.27298212c1.77699995 0 3.21700001 1.43999994 3.21700001 3.21699994 0 1.77700002-1.44000006 3.21899993-3.217 3.21899993-1.77699996 0-3.21700001-1.44199991-3.21700001-3.21899993 0-1.777 1.44000005-3.21699994 3.217-3.21699994z"/><g><path fill="#51362A" d="M261.4779892 146.9329853l20.68900013 28.03899956 12.19900036-28.58399963-32.8880005.54500008z"/></g><g><path fill="#FFF" d="M244.62999153 149.85799026l-4.20100021 5.27299977 19.4840002 28.68699932 10.72399998-16.62199953-26.00699997-17.33799956z"/></g></g><path fill="#165E60" d="M232.02898884 160.93998718l12.51200008 22.25500012-.625 30.02900028-29.49300003-4.02199936 17.60599995-48.26200104z" display="block"/><g display="block"><path fill="#369496" d="M214.4229889 209.20096779l45.57900046 6.07699966.0889988 18.0539999-34.5869999 4.55700016-11.08099937-28.68799972z"/><path fill="#755445" d="M260.09199 233.33296871l9.11599993 3.21600056 2.14500022-10.6340003-2.14500022-11.97600031-9.20500016 1.34000015.08900022 18.0539999z"/><path fill="#926D5A" d="M269.20799017 236.54896927l4.6470002-3.48500013 5.541-2.41300011.80499983-2.32500005 1.2510004-11.17099976-12.24400043-3.21600056v22.6100006z"/><path fill="#C4C4C4" d="M264.11398697 200.08496809l11.70800018 12.77999973 1.60899997.3579998.98300004-.44699955 9.11600018-12.69099998h-23.41600037z"/><path fill="#ECECEB" d="M264.11398697 200.08496834l12.7800002-2.05499996 10.63600017 2.05499996-10.63600016 1.87699996-12.78000021-1.87699996z"/><path fill="#1C7678" d="M270.01299047 203.74896789l7.1499998 7.5079999 5.53999979-7.5079999h-12.68999959z"/><path fill="#50A9AA" d="M270.01299047 203.74996845l6.87999982-1.16199998 5.80999977 1.16199998-5.80999977 1.07199999-6.87999982-1.07199999z"/><path fill="#DDDDDC" d="M275.82198727 212.86496735l-.268 2.77100002 3.21600007.80400002-.35699999-3.66400003-2.59100008.08899999z"/><path fill="#C4C4C4" d="M280.20198792 228.32696915l4.73699981 3.93200004-11.08399963.80400002 6.34699982-4.73600006z"/></g><g display="block"><path fill="#72CBCC" d="M651.85695267 196.7349968l-56.84200096-7.14999962-3.5739994 38.87699985 47.33500098 8.49100018 13.08099938-40.21800041z"/><path fill="#50A9AA" d="M654.00295258 111.91999817l-53.08800126 12.51200104-18.59000015 43.79299831 12.69099999 21.35999966 38.2520008 36.64299965 3.12800026-77.93299866 17.60700036-36.375z"/><path fill="#1C7678" d="M678.3999548 113.70800018l-13.49500037 25.64999771-28.50999975 8.93700219-3.4850006 87.13899803 63.09600066-12.51300049-1.42900085-49.69099844 8.40100097-15.19300043-9.83100128-34.4980011-14.74699878-9.83099747z"/><path fill="#72CBCC" d="M621.02395177 116.47799873l-12.96000028-1.519001-6.43499946 2.59200096 13.31699967 5.98799991-6.20700002 30.35999966 27.27999974 3.8220005-14.99499965-41.24300003z"/><path fill="#50A9AA" d="M636.01895332 157.72099876l37.19799996-3.6100006 5.18400001-40.40399933-32.11800003 26.44700002-10.26399994 17.56699991z"/></g><g display="block"><path fill="#72CBCC" d="M600.91597176 124.4319992l-5.63000107 62.18099976-.2699995 2.97299958-12.78100036-6.34499932-18.76700094-23.59500027 37.44800187-35.21399974z"/><path fill="#50A9AA" d="M595.01597023 189.58399487l-31.54800034-29.93999958-27.34799957 9.20599985-.80400085 25.02399969 59.70000076-4.28999996z"/><path fill="#8B6651" d="M518.2899685 169.07299948l-7.10699976-5.85300017-9.74099982 6.43400026 12.20099973 10.3360002 4.64699984-10.9170003z"/><path fill="#DDDDDC" d="M511.72096968 161.164999l-.80500007 28.68800069 2.68200007 3.84400081 2.77000007-3.66500091-.53600001-26.98999977-4.11100006-1.87700081z"/><path fill="#C4C4C4" d="M511.55396932 167.10899925l-19.26100057-20.20000076 39.98400116.76000023-20.72300059 19.44000053z"/><path fill="#1C7678" d="M511.78996819 163.88999891l-7.3669998-8.13799953 14.8739996.36299968-7.5069998 7.77499985z"/><path fill="#50A9AA" d="M504.42296839 155.75100052l7.9919998-.26199996 6.8819998.625-7.4179998 2.14499998-7.4559998-2.50800002z"/><path fill="#ECECEB" d="M532.27696991 147.66899848l-19.99300058 1.75500011-19.99100058-2.5140001 20.05300058-2.7660001 19.93100058 3.52500009z"/><path fill="#C4C4C4" d="M510.8269682 188.51200151l2.6810001 3.84300018 2.76999987-3.6639998 11.35100007 5.80999983-15.10399997 6.70300018-11.97599995-5.27400016 10.27799987-7.41800023z"/><path fill="#C3987B" d="M530.26296806 176.08699894L513.5979681 195.7519989l-10.45699978-8.4909997-1.69799995-17.60699987 28.8199997 6.43299961z"/><path fill="#8B6651" d="M535.31597042 193.87400055l.8039999-25.02299976-11.88699967-5.63200093-5.54099982.35800076.62599992 12.24499988-5.71999979 19.92900086 21.71799946-1.87700081z"/><path fill="#C3987B" d="M536.11996937 168.84999806l-11.88799978-5.63000018-2.05399966.08900023-2.1459999 7.4189999 15.90899944 5.18400026.1789999-7.06200021z"/><path fill="#DFBDA5" d="M524.23296833 163.21999931l-8.39999998-.1789999-4.916 8.72899986 8.40100002 4.05299973 4.91499996-12.60299969z"/></g><g display="block"><path fill="#8B6651" d="M654.71593761 183.14899397l1.0720005 7.41900015 9.1159997.71399975 8.04400016-5.1819998-15.64000035-4.91599978-2.592 1.96499968z"/><path fill="#DDDDDC" d="M652.65993857 183.68599224l-.8039999 28.68799973 2.85999996 6.34599971 2.59100002-6.16699886 1.60899997-33.02299976-6.25600005 4.15599918z"/><path fill="#C4C4C4" d="M654.44793856 186.18799305l-14.83600008-16.1760006 33.60400009-1.34000015-18.768 17.51600075z"/><path fill="#ECECEB" d="M673.21593857 168.6719948l-18.23100007 4.11099995-15.37300002-2.77099991 15.37300002-7.15100002 18.23100007 5.81099999zM651.8569386 212.3749957l2.592 3.84300018 2.85899998-3.6639998 9.02600002 6.16599978-11.70600003 5.81000006-13.22799999-6.79300004 10.45700002-5.36200017z"/><path fill="#72CBCC" d="M693.14694023 123.53799438l1.4300003 49.6910019 18.76800013 11.35099983 23.75200033 3.02400017-15.08300018-22.50800133-28.86700058-41.55800057z"/><path fill="#50A9AA" d="M694.57694149 173.22799492l42.52100086 14.37499928-63.52500152 21.10699916-.625-22.6109991 21.62900066-12.87099934z"/><path fill="#DFBDA5" d="M673.57393837 208.70999622l-.625-22.61100006-17.1609993 4.46800041 1.51899958 21.98600007 16.26699972-3.84300042z"/><path fill="#8B6651" d="M655.78893852 190.56699562l1.51900006 21.98600006-15.37199974-9.11600017.35699987-17.6960001 13.49599981 4.82600021z"/><path fill="#1C7678" d="M654.44893813 184.13299513l-7.50899958-8.49100018 16.44599914-.71500015-8.93699956 9.20600033z"/><path fill="#50A9AA" d="M646.940938 175.64199533l8.31200012-1.42999997 8.13200012.71499998-8.75700015 2.50299996-.22299999-.05199993-7.4640001-1.73600004z"/></g><g display="block"><path fill="#165E60" d="M666.0679741 317.92500436v6.88100016h40.48400115l-.625-6.88100016-25.1140008-4.46900022-14.74500036 4.46900022zM590.54797363 308.63000166v6.07700003h47.18799973l-.26799965-6.07700003-22.96900022-3.84300005-23.95099986 3.84300005z"/><path fill="#27788C" d="M649.9809742 272.16700363l-20.46700001-15.90999985-30.38700008 6.25699997 6.34600067 27.8840003 10.27799892 11.61899996 21.717 6.61400032 12.5130005-36.4640007z"/><path fill="#3AA0BA" d="M640.50697327 254.02300453l2.7709999-18.23099994 52.7290001-12.87099934-.98200035 40.39699936-23.59499956 11.70899963-21.44899916-2.8599987-9.47400093-18.144001z"/><path fill="#27788C" d="M591.44097137 228.46300507l49.06500102 25.56099987 55.50100088-31.10199929-104.5660019 5.54099942z"/><path fill="#165E60" d="M605.47297287 290.3980074l31.99499893 18.23200034h-24.57699907-22.3429991l14.92499924-18.23200035zM694.2199707 297.3690033l-13.31599998.09000015-12.60199928 10.00899972-2.23400116 10.45699988h39.8600006L694.2199707 297.3690033z"/><path fill="#318FA6" d="M599.1269741 262.51300526l50.8540001 9.65299892-9.47400093-18.14399934-49.06599999-25.55999922.10900116.4829998 7.57699967 33.56799984zM649.9809761 272.16600513l45.04399872-8.84800052-.8050003 34.0510006-25.91799927 10.09900092-18.32099915-35.302001z"/></g><g display="block"><path fill="#DFBDA5" d="M634.16096592 26.3769989l-29.37900066 13.26799774-26.39100075-8.67499923 11.24200058 103.91899871 34.90900111-2.49000167 11.72899985 24.71199798 12.72599936-34.27499771 20.58400154-22.33399868 5.15599823-6.59500027 3.66200256-3.13800013-.04199981-29.93300092-16.62700272-2.14299774-7.10199928 25.44999885-8.63500023-4.11100006 17.10300064-44.83999824-28.93500042-8.81499863z"/><path fill="#C3987B" d="M634.16097069 26.3769989l9.36799955 104.16799545-18.98599958 1.8540001 6.85599899 11.12900161 4.87300015 13.58299637 6.34800052-12.2689972 10.38999987-4.66999816 25.38899946-26.46500206V94.36399555l-9.55200005-8.56299972-9.55499935-3.57999993-6.40300011-3.56500053 10.81199956-46.69500065-29.53999901-5.58399582z"/><path fill="#8B6651" d="M665.5869646 76.51899338l1.0940001-8.9300003 7.63800026 1.26400017-8.73200035 7.66600013zM678.39997005 85.0339992l-19.1079998-2.81299996 19.1079998 12.14400005V85.0339992zM604.22996855 89.44799685l5.95300013 4.30999995 4.58300012-5.30999995-10.53600025 1z"/><path fill="#C3987B" d="M626.33596754 61.73899937l-8.08199984 4.0999999-3.4880001 22.61000013-3.78999972-17.22700023 1.2199998-12.52900028 14.13999986 3.04600048zM601.56996775 59.84899712l4.8130002 10.40399983-2.97700024 10.04799983-8.02400005-14.48600006-7.2790004-2.47599983 13.46700049-3.48999977z"/><path fill="#8B6651" d="M644.02596664 130.41599274l8.9829998 9.75600052-16.9909997 17.54800033-11.4749999-25.3220005 19.4829998-1.98200035z"/><path fill="#474747" d="M601.25396824 55.79199481l-13.59799957 2.99400002.44799995 4.55199998 13.4659996-3.48899999-.31599998-4.05700001zM611.82596636 54.62499547l14.81799984 2.60399991-.30699969 4.50999993-14.14000034-3.04599994-.37099981-4.0679999z"/><path fill="#8B6651" d="M634.5079689 96.90299463l-42.40200042 4.12000013 19.47200024 9.45400023 22.93000018-13.57400036z"/><path fill="#FFF" d="M623.7749672 100.50099301l-22.86199952 2.148 9.43599975 5.08700014 1.30699998.70499992 12.11899978-7.94000006z"/><path fill="#474747" d="M622.09196758 4.93699646l31.73499966 9.99399948-9.79599953 9.42799997-9.87000036 2.01800013-29.7579999 16.17999935 5.93499947-18.92599946 11.75400066-18.69399947z"/><path fill="#737373" d="M653.82696867 14.92999649l25.9039998 8.99600005-11.75099945 9.24899984-8.4700005 2.6090002-25.34899974-9.40600002 19.66599989-11.44800007z"/><path fill="#474747" d="M679.73196602 23.92499733l-1.37199974 37.88700104-15.9120003-.77400017-3.15600002 21.18300056-12.92799997-3.1610012 13.14499998-43.27700043 20.22300005-11.8579998z"/><path fill="#8F8F8F" d="M604.40396714 42.55599594l17.68799949-37.61800003L579.69396782 31.232996l24.70999932 11.32299995z"/><path fill="#2B2B2B" d="M596.25296813 66.4099996c1.85299987.39100004 2.95999998 2.09200014 2.56800002 3.94500012-.39100003 1.85299999-2.10400009 3.0160001-3.95700002 2.62500006-1.85299992-.3920002-2.94700002-2.14800012-2.55500006-4.0010001.39100003-1.853 2.09000003-2.96100003 3.94400006-2.56900007zM621.02096903 64.95699716c1.85399998.39199996 3.005 2.15999996 2.61300004 4.01200002-.38000012 1.79799992-2.16000009 3.00499994-4.01300007 2.61299998-1.79699987-.37899995-2.93699998-2.204-2.55699986-4.001.39199996-1.8530001 2.15999984-3.00399988 3.9569999-2.624z"/><g><path fill="#E8CAB6" d="M612.19696665 58.69299889l-10.62699986 1.15700054 2.66000009 29.59899997 10.53600001-1-2.56900024-29.75600051z"/></g></g><path fill="#27788C" d="M551.61401063 257.4950161l6.18099994-10.18099976-13.63399983-17.99699974 7.4529999 28.1779995z" display="block"/><g display="block"><path fill="#27788C" d="M542.25201619 304.89500904c-.06799996.06800032-4.63699997.954-4.63699997.954l-3.45400023 9.81800031 10.9090004.00199986.52600002-2.44000006.92700004-4.29000008-4.27100026-4.04400003z"/><path fill="#318FA6" d="M536.98101664 299.12300873l.63599968 6.727 8.90600013 3.08899998 2.81799984-12.63199997-12.35999965 2.81599999z"/><path fill="#27788C" d="M551.7960167 294.03301048l-14.1800004 11.81599999-10.7840003-.72700024-2.48600007-10.63399982 22.72300053-4.86100006 4.72700023 4.40600013z"/><g><path fill="#318FA6" d="M556.70401573 295.85201073l3.90700007 21.45100021 13.7249999-.81799984-4.908-12.18000007-12.72399997-8.4530003zM548.06901646 288.17101014l-13.9070001 7.31700027-7.3299999 9.63500023-10.79100083-16.9520005 36.66400146-20.67800057-4.63600063 20.67800057z"/><path fill="#3AA0BA" d="M541.61501694 272.03800964v6.54399968l-7.45299912 16.90499973 35.26599884 8.81699943-10.36099958-23.88199949-17.45200014-8.38399935z"/></g><g><path fill="#3AA0BA" d="M543.6150155 269.49201012l-7.27199983-9.04399968 21.45199967-13.13399982-5.0909996 14.36199975-9.08900023 7.81599975z"/><path fill="#73CFE5" d="M521.52801514 280.42201138l-4.63699913-9.98700047 19.45099938-9.98700047 16.36200034 1.22700024 4.90799904 10.36200023 1.45499992 8.38500047-17.45299935-1.84100056-20.0860002 1.84100056z"/></g></g><g display="block"><path fill="#5EC0D9" d="M520.50595831 299.12400055l1.38600005-9.49599981 19.722-11.046-20.08700001-4.5-22.26700008 2.31900024 3.99900055 15.99699974 16.35999947 6.72599983"/><path fill="#3AA0BA" d="M505.25795841 296.66900063l-1.454 7.63500022h-11.4039998l4.1769998-13.27000045 8.681 5.63500023z"/><path fill="#318FA6" d="M505.25695992 296.66900253l-1.45400048 7.63399983-4.36199999 19.0880003-12.90800047-.45499993 5.86700058-18.63300037 12.85700036-7.63399983z"/><path fill="#27788C" d="M518.71095943 300.66900063l-5.72800016 3.63600063h-9.1789999l-11.99900007-17.95200062 13.45300007-4.02200031 4.75 3.95400047 1.61199998 5.02200008 7.09100008 9.36199975z"/><path fill="#318FA6" d="M519.61895847 302.20000172l-6.63599991 1.94000053-12.48599983 24.1939993 14.5619998.34800052 1.92299986-3.38199997 2.63700008-23.10000038z"/><path fill="#3AA0BA" d="M511.62095976 291.30599976l1.36199999 12.99800086 4 20.99699998 9.84800005-20.1789999-4.94000006-15.4949999-10.26999998 1.67899896z"/></g><g display="block"><path fill="#318FA6" d="M493.20399141 281.85399652l-1.39699983 4.4979999 8.45299983 3.95499993 9.74899983-4.02299989-6.68099975-7.70299995-10.12400008 3.273z"/><path fill="#73CFE5" d="M487.78599167 273.50199413l-4.5 3.44300008 8.5209999 9.4070003 8.45299984-2.11300039 9.75000024 2.04500008 11.5199995-12.20199967-33.74399948-.5800004z"/><path fill="#318FA6" d="M491.87498951 262.7659955h-9.67999935l1.0909996 14.1800003 13.29300022 3.47600032 3.81700003-2.31800032 4.43099988 2.31800032 16.7019999-6.3400004-1.02199936-13.63400053-28.63200092 2.31800031z"/><path fill="#27788C" d="M508.91798878 255.87999535l.34000015-3.1360001 13.90600014-6.67899996-2.65700007 14.38199997-11.58900022-4.56699991zM496.57899094 256.83499527l-4.2279997-4.09000003-13.97399997-6.68099988 3.81799984 16.70199967 14.38399983-5.93099976z"/><path fill="#3AA0BA" d="M500.25999033 274.08299541l-1.70400011-1.70399951-16.36000061-9.61200017s9.88400078-10.02199966 10.15700054-10.02199966h16.90600014l11.2470007 7.70399976-18.6090007 11.5889995-1.63699996 2.04500008z"/><path fill="#73CFE5" d="M498.55599141 272.37699604l-1.977 8.04499984 3.61400009 1.43199992 4.63400006-1.43199992-2.93000007-8.38599992-3.34100008.34100008z"/><path fill="#27788C" d="M496.57899141 280.42099416h8.24800015l-4.56700006 3.81800008-3.68100009-3.81800008z"/><path fill="#2B2B2B" d="M496.10099101 273.50199509c0 1.60000002-1.29700005 2.89700007-2.89700007 2.89700007-1.60000003 0-2.89700008-1.29700005-2.89700008-2.89700007 0-1.60000003 1.29700005-2.89700008 2.89700008-2.89700008 1.60000002 0 2.89700007 1.29700005 2.89700007 2.89700008zM511.03199124 273.50199509c0 1.60000002-1.29799997 2.89700007-2.897 2.89700007-1.60100002 0-2.899-1.29700005-2.899-2.89700007 0-1.60000003 1.29799998-2.89700008 2.899-2.89700008 1.59900003 0 2.897 1.29700005 2.897 2.89700008z"/></g><g display="block"><path fill="#755445" d="M872.29393625 138.77599907l-1.25200033-12.4219997 5.4510001-20.82500004 13.8540002 11.61899948-4.8260002 22.34400082-8.403 8.40100002-4.0209998-.09000015-5.6300001 3.7539997-.08899976-1.52000045-.89500045-2.8599987.62699985-3.57500077 5.1840005-4.82600021z"/><path fill="#51362A" d="M877.47793674 138.079l-10.0999999 11.9590001-2.05500007-6.5239999-.1789999-.53800001-16.89199996-5.36199987 29.22599983.46499968z"/><path fill="#926D5A" d="M846.82193756 105.08299923l20.82400036-6.43500042 8.84800053 6.88200092-4.11100006 32.53200054-24.13100052-.4470005-1.4300003-32.53200054z"/><path fill="#755445" d="M860.407938 112.50099754l8.93599987.35699988-5.00499996 3.03900003-4.82499996 8.22200012.89400005-11.61800003zM856.74293756 112.3219986l-7.77600002.35699987 3.75400001 2.86000013 3.30599993 8.49100018.71600008-11.70800018z"/><path fill="#474747" d="M869.07693863 110.26599884l.26699972 2.59300005-8.93599987-.35800004.17799997-2.592 8.49100018.35699999zM848.96693707 110.53399879l7.59700012-.53500003.17700004 2.32400006-7.77400016.356v-2.14500003z"/><path fill="#51362A" d="M859.51393795 124.11899781l-3.48600006-.08899998 2.14500004 1.69799995 1.34100002-1.60899997zM866.57393694 128.0519985l-4.55900002 1.16199994-8.40100002-.35799998.80499983 1.43 8.40100026.62599993 3.39600015-1.25099994.3579998-1.60899995z"/><path fill="#926D5A" d="M885.96793902 113.48400068l4.37900007 3.6650002-1.52100003 7.23900009-5.4510001-2.14500022 2.59300006-8.75900007z"/><path fill="#51362A" d="M888.38093674 117.68399896l-1.69899997-1.34099998-.80499998 3.03999996 2.50399995-1.69899998zM883.37693644 122.2429998l4.7349999 5.36199998.7149999-3.217-5.4499998-2.14499999z"/><path fill="#99796A" d="M860.40693712 112.50100088l-3.66500008-.17799997-.71500003 11.70699978 3.48600006.08899974.89400005-11.61799955z"/><path fill="#474747" d="M884.17993915 119.56199932l-3.12800014-3.48599958 1.07200003-5.7200001-5.62999964-4.8259999 10.45699978-3.30599976 6.97099972 1.33999967-3.57499981 13.58500004-4.37899995-3.66499996-1.78799999 6.0779996zM876.49393702 105.52999878l1.42999982-4.20099986-2.592-3.57499993-2.32299993-1.16199994-5.36299994 2.05599976 8.84800005 6.88199997z"/><path fill="#737373" d="M893.92193794 103.56399965l-4.91599989-12.42199993-10.72500038 3.57399988-2.94899988 3.03899992 1.1619997 7.77499974 6.79200042-.71499968 10.63600003-1.25099993z"/><path fill="#8F8F8F" d="M889.00593948 91.14099956l-11.61900031-.35699988-6.79199994 3.30599994-2.94900036 4.5579999 7.68500042-.89399981 13.6750002-6.61300015z"/><path fill="#737373" d="M867.64693797 98.64799881l-6.61399997-1.33999968-1.3409996-3.03900003.5369997-3.39600006 9.20499987-7.95499977 7.95399958 7.86499977-9.74099958 7.86499977z"/><path fill="#474747" d="M867.64693737 98.6479987l-20.8239994 6.43500005 7.77499961-8.3110001 5.09500003-2.50300003 7.95399976 4.37900007z"/><path fill="#8F8F8F" d="M846.82193756 105.08299923l-.8050003-2.2340002.89500045-11.17099953 22.52099991-8.75899983-9.74100017 11.34999979-12.86999989 10.81399977z"/><path fill="#737373" d="M846.82293749 105.08299923l-1.6089999 2.7709999-2.50199992.08900071 4.1999998-16.26600075-.08899998 13.40600014z"/><path fill="#474747" d="M842.7109375 107.9419992l4.55800009 6.97099995-.44800008-9.82999992-4.11000001 2.85899997z"/><path fill="#2B2B2B" d="M864.42893791 115.27100039c.83899999 0 1.51999998.68099999 1.51999998 1.52099998 0 .83799998-.681 1.51899998-1.51999998 1.51899998-.83899998 0-1.51999998-.681-1.51999998-1.51899998 0-.83999999.681-1.52099998 1.51999998-1.52099998zM852.27493723 115.1820004c.888 0 1.60700004.72099995 1.60700004 1.60999997 0 .888-.71900005 1.60799996-1.60700004 1.60799996-.88900002 0-1.60900004-.71999997-1.60900004-1.60799996 0-.88900002.72000002-1.60999997 1.60900004-1.60999997z"/></g><g display="block"><path fill="#926D5A" d="M833.32695532 162.37200308l-6.70300007-3.03900027.53600001-5.18499995 3.575-2.77000022 2.5019999 1.16200018 2.41300011 7.06100011-2.32299995 2.77100015z"/><path fill="#755445" d="M837.97495556 156.91800284l-1.7880001-9.2939999-2.681-.09000016-.35700011 8.93700004 2.5020001 3.12899995 2.3240001-2.68199993zM826.62395567 159.33200264l-3.3070001-3.5749998 2.59200012-8.40100003 4.8260001 4.02199995-4.11100012 7.95399988z"/><g><path fill="#165E60" d="M856.74195576 148.25000286l-1.60800028 22.52199936-9.7420001-7.77499962 11.35000038-14.74699974z"/></g><g><path fill="#369496" d="M855.13395596 170.77200246l-9.11700035 8.04299998-12.69100022-16.44399977 4.64800024-5.45200014 17.16000033 13.85299993z"/></g></g><g display="block"><path fill="#474747" d="M854.24095726 181.94298553l-2.7709999 31.8170004 1.34100007 3.6640005 8.1329999 2.41300011 7.32800007-16.0870006-1.69799996-10.36699987-12.33300018-11.44000054z"/><path fill="#101210" d="M860.94395733 219.83698672v2.41299993h-16.7140007v-2.41299993l12.06600046-.98299998 4.64800024.98299998z"/><path fill="#4F5253" d="M887.0409565 188.10998726l-.80499935 28.60000038-10.9920001-2.05700016-21.00299979-32.71000004 11.79699945-.4470005 21.00299979 6.61400032z"/><path fill="#2B2B2B" d="M860.94395733 219.83598518h-16.7140007l7.23900032-6.07600021 9.47500038 6.07600021z"/><path fill="#474747" d="M875.24395823 214.65298873l-4.4690001-6.97100001 15.908-5.00500012-.62599993 22.07600022-10.81299997-10.10000009zM868.27195787 203.7509861l-1.87700033 3.66400051-13.763-6.70300007 1.6090002-18.76900005 14.03100013 21.8079996zM886.86195612 194.45598674l-9.56299973-2.9490001 9.74199963-3.3970001-.1789999 6.3460002z"/></g><g display="block"><path fill="#50A9AA" d="M887.48796654 142.08299637l-7.41800022 1.0720005-12.60200024 8.40100098-4.10999966 14.12099922 2.5909996 18.85800087 6.6130004 8.57999992 14.47899961-5.00500106v-7.32899952l3.03900052-21.18100024 1.51799964-14.74600076-4.10999965-2.77099991z"/><path fill="#FFF" d="M885.52196693 139.49099731l1.96499968 2.59300042-9.29299974 13.76300048-5.0949998-8.04300044 12.42299986-8.31300046zM867.11196661 143.60199714l-.806 3.21699995-1.6070001.62599998-5.45300008 1.69799996 5.89800013-6.1659999 1.96800005.625z"/><path fill="#ECECEB" d="M864.6979667 147.44499731l2.68000006 2.592-.268-6.434-2.41200007 3.842z"/><path fill="#369496" d="M878.19396639 155.8449974l-8.22399998-5.89699995 3.12799996-2.14499986 5.09600002 8.04199982zM867.3789668 150.03699774l-4.8269999.80399996-3.30699992-1.69799996 5.4519999-1.69799995 2.68199993 2.59199995z"/><path fill="#72CBCC" d="M865.9489665 184.53399849l-6.2559998 5.80999947-5.4519999-8.40100003 2.50199985-33.69299984 8.40100002-5.27400017-5.898 6.16600037 8.13300014.8939991.08999967 1.52000046-1.51999998 32.97800064z"/></g><g display="block"><path fill="#369496" d="M878.10297585 170.85999632v8.7579999l16.62300014 2.1459999 5.27299976-13.76399993-21.8959999 2.86000013z"/><path fill="#165E60" d="M885.61097765 155.48799694l.26699972 14.38900005 14.12099981-1.8760004-8.40099978-23.14799976-5.98699975 10.6350001z"/><path fill="#755445" d="M878.10297608 179.61799717l-4.37899994 1.51999998-.98300004-5.09500006.98300004-5.71900007 4.37899994.53600025v8.7579999z"/><path fill="#926D5A" d="M873.72397637 181.13799715l-2.23399996-1.69799995-2.68199993-1.16200018-.3570001-1.16199994-.53699995-5.362 5.80999994-1.43000006v10.81400013z"/><path fill="#C4C4C4" d="M876.13697672 163.61999726l-5.54100004 6.16799999-.80499998.1780002-.44800001-.26800012-4.46800006-6.07800007h11.26200009z"/><path fill="#DDDDDC" d="M876.13697672 163.6199964l-6.07800004-.98300001-5.18400005.983 5.18400005.89500002 6.07800004-.89500001z"/><path fill="#1C7678" d="M873.36697674 165.40799725l-3.48600003 3.57599998-2.59200004-3.57599998h6.07800007z"/><path fill="#50A9AA" d="M867.2899766 165.40799706l2.76900011.447 3.3070001-.447-3.3070001-.53700002-2.76900011.53700002z"/><path fill="#DDDDDC" d="M870.59597635 169.78699714l.08899999 1.252-1.51999998.447.17900002-1.78799999 1.25199997.08899999z"/><path fill="#C4C4C4" d="M868.45097679 177.11599612l-2.2339999 1.96599996 5.27199983.35799992-3.03799993-2.32399988z"/></g><g display="block"><path fill="#369496" d="M786.13998795 168.3579917l-8.49199987 12.24399995-14.2099998.9829998 4.11100006-11.7079997 10.3679998-1.87599993 8.2229998.35699988z"/><path fill="#165E60" d="M763.43798828 181.5849924l2.94900036 19.30599976 5.98900008.1779995 2.32300002-1.25099945 3.21800011-.4470005 4.1999998.1789999 4.11100055-1.33999968-10.90300045-13.22799969-11.88700047-3.39699983z"/><path fill="#C3987B" d="M766.38698816 200.88999176l1.6980002 10.72500038 3.75399994-1.87700033 2.86000014-9.921-2.86000014 1.25200033-5.45200014-.17900038z"/><path fill="#3AA0BA" d="M771.83898854 209.73699093l5.80899978 7.23999977h-10.54599953l.9829998-5.62999988 3.75399995-1.6099999z"/><path fill="#27788C" d="M767.1019888 216.97599173l.35699987 1.342h9.74300003l.44599962-1.342h-10.54599953z"/><path fill="#1C7678" d="M763.43798828 181.58499181l22.79000092 16.62499965-.0890007-29.85199929-22.70100022 13.22699964z"/><path fill="#27788C" d="M773.89498842 212.23899221h-3.39600003l-.35800004 1.34200001h4.73600006l-.982-1.342z"/><path fill="#8B6651" d="M766.38698816 200.88899004l7.50800014 1.60800004.80400014-2.68000006-8.31200028 1.07200002z"/><path fill="#C3987B" d="M777.91698861 199.36999226l1.69799996 10.63599968 3.842-1.87699986 1.96600008-7.23900008-1.6960001-1.51999974h-5.80999994z"/><path fill="#3AA0BA" d="M783.45698789 208.12899303l5.71999976 7.23999978h-10.54599953l.9829998-5.7199998 3.84299997-1.51999998z"/><path fill="#27788C" d="M778.63098812 215.36699241l.44699955 1.25199998h9.65300036l.44599962-1.25199998h-10.54599953zM785.42298865 210.63099235h-3.3959999l-.35700012 1.25199998h4.73600006l-.98300004-1.25199998z"/><path fill="#8B6651" d="M777.91598892 199.36999215l7.50700021 1.51999997.80500007-2.68199992-8.31200028 1.16199995z"/></g><g display="block"><path fill="#369496" d="M786.13998795 168.3579917l-8.49199987 12.24399995-14.2099998.9829998 4.11100006-11.7079997 10.3679998-1.87599993 8.2229998.35699988z"/><path fill="#165E60" d="M763.43798828 181.5849924l2.94900036 19.30599976 5.98900008.1779995 2.32300002-1.25099945 3.21800011-.4470005 4.1999998.1789999 4.11100055-1.33999968-10.90300045-13.22799969-11.88700047-3.39699983z"/><path fill="#C3987B" d="M766.38698816 200.88999176l1.6980002 10.72500038 3.75399994-1.87700033 2.86000014-9.921-2.86000014 1.25200033-5.45200014-.17900038z"/><path fill="#3AA0BA" d="M771.83898854 209.73699093l5.80899978 7.23999977h-10.54599953l.9829998-5.62999988 3.75399995-1.6099999z"/><path fill="#27788C" d="M767.1019888 216.97599173l.35699987 1.342h9.74300003l.44599962-1.342h-10.54599953z"/><path fill="#1C7678" d="M763.43798828 181.58499181l22.79000092 16.62499965-.0890007-29.85199929-22.70100022 13.22699964z"/><path fill="#27788C" d="M773.89498842 212.23899221h-3.39600003l-.35800004 1.34200001h4.73600006l-.982-1.342z"/><path fill="#8B6651" d="M766.38698816 200.88899004l7.50800014 1.60800004.80400014-2.68000006-8.31200028 1.07200002z"/><path fill="#C3987B" d="M777.91698861 199.36999226l1.69799996 10.63599968 3.842-1.87699986 1.96600008-7.23900008-1.6960001-1.51999974h-5.80999994z"/><path fill="#3AA0BA" d="M783.45698789 208.12899303l5.71999976 7.23999978h-10.54599953l.9829998-5.7199998 3.84299997-1.51999998z"/><path fill="#27788C" d="M778.63098812 215.36699241l.44699955 1.25199998h9.65300036l.44599962-1.25199998h-10.54599953zM785.42298865 210.63099235h-3.3959999l-.35700012 1.25199998h4.73600006l-.98300004-1.25199998z"/><path fill="#8B6651" d="M777.91598892 199.36999215l7.50700021 1.51999997.80500007-2.68199992-8.31200028 1.16199995z"/></g><g display="block"><path fill="#754F40" d="M803.7880063 148.72399855c.15199996-.15300012.45300007-2.29600013.78700018-2.70400012.3349998-.408 2.68199993-4.18299997 2.68199993-4.18299997l4.89700007 3.19399998-1.0710001 4.04999998-7.29500007-.35699987z"/><path fill="#573A2F" d="M799.04900599 149.85699885l-.98099995 4.15500004 5.46399987-.67000007 7.55199992-4.26099998-6.5089999-3.06100005-5.52599994 3.83700006z"/><path fill="#754F40" d="M800.6240061 144.2269988l-1.57500011 5.63099993s1.4220001 2.48899996 1.5750001 2.48899996c.153 0 2.72500009-2.32999992 2.72500009-2.32999992l-1.45000011-5.52699995-1.27499998-.26300001z"/><g><path fill="#474747" d="M785.78100586 146.72799826l10.27799988 10.45700001-7.00899995 5.33299995-3.26899993-2.29299975v-13.49700021z"/></g><g><path fill="#6F7173" d="M803.53200626 153.3429985l-4.48300027-3.48500013-9.99900008 12.65999985 5.80300021 3.28999996 8.67900014-12.46499968z"/></g></g><g display="block"><path fill="#858686" d="M769.06903505 144.227005l-4.82700014.80499983-3.30700016 1.34000016 3.57500076 12.69099998 8.04399956 2.59199953 13.22700035-1.42999983v-13.49599981l-5.7210002-2.50199986-5.13800012 4.91599966-5.85300005-4.91599966z"/><path fill="#6F7173" d="M764.51103497 159.06200504l21.2709999-3.48500013.35700035 12.78100014-18.59000015 1.51900005-3.0380001-10.81500006z"/></g><g display="block"><path fill="#474747" d="M760.93603611 146.37200928l3.57399988 12.69100046-3.75299978 4.11100006-2.8600001 1.16200018-5.8109999-1.6090002 8.8499999-16.3550005z"/><path fill="#6F7173" d="M760.75803638 163.1740098l4.35000014 6.70299983-1.66900015 7.35399985-11.35100031-14.5039997 8.67000032.44700002z"/></g><g display="block"><path fill="#573A2F" d="M760.04104233 115.18000984l9.02700025 29.04700089 5.85399979 4.914999 5.13900042-4.914999-5.54100037-33.3369999-14.4790001 4.28999901z"/><path fill="#754F40" d="M798.920043 104.27700806l-1.34099961 32.26300048-23.05900002.17900086v-25.82900047l24.39999962-6.61300087z"/><path fill="#3AA0BA" d="M783.63704324 111.87401044l2.77100014 2.8599999-9.56400013-.35799992 6.79299999-2.50199998zM790.42804146 114.46500945l1.60899997-2.76999998 5.273 2.23399997-6.88199997.53600001z"/><path fill="#573A2F" d="M776.8450427 114.37501001l6.07599998 3.66499985 4.648 6.16699993-1.16099977-9.47399997-9.5630002-.3579998zM790.42804265 114.46500874l-.26800013 9.74100017 3.03900004-6.52399993 4.11100006-3.75399995-6.88199997.5369997z"/><path fill="#7F5A4B" d="M786.40704179 114.73400927l4.01999998-.26800013-.26699996 9.74100018-2.50300002.5369997-1.25-10.00999975z"/><path fill="#33231B" d="M787.56904364 124.2070105l.983 1.51999999 1.609-1.51999998h-2.592z"/><path fill="#FFF" d="M783.93704128 129.1220082l4.46899989 2.77199996 4.52099988-2.63300002-4.16399988-.40699994-4.82599989.268z"/><path fill="#3AA0BA" d="M781.83904457 128.12000847l6.80200017 5.38199997 5.5100001-5.03200007-5.5100001 2.97600007-6.80200017-3.32599997z"/><path fill="#27788C" d="M783.81504488 129.1220113l8.81399965.17000002 1.52300024-.823-1.75699997.118-3.75400006-1.073-3.84300006.983-2.96000004-.37699999 1.97700024 1.00199997z"/><path fill="#318FA6" d="M798.92004204 104.27700937l5.36199951-1.34100008-18.23299933-4.37900007-21.44899988-1.69799995-7.50799942 12.15400028 7.95399952 3.84399986 6.16699982-.98300028 27.70699978-7.59699976z"/><path fill="#27788C" d="M760.75804281 117.59300995l-3.66599989-8.57999992 14.12199974 2.85999989-.89299965 8.57999969-2.59300017.89400005-.71399999-5.7189998-2.41400006 3.30599993-3.84199998-1.34099984zM754.76904297 133.76901007l9.47399998 11.26100015 4.8260002-.8039999-7.4180001-23.86200046-6.88200008 13.4050002z"/><path fill="#3AA0BA" d="M764.60004425 96.85900944l22.61099958-8.04299992 17.07099963 14.11999989-39.68199921-6.07699997z"/><path fill="#2B2B2B" d="M782.9210434 116.52001047c.83899998 0 1.51999998.681 1.51999998 1.52099998 0 .83799999-.681 1.51899998-1.51999998 1.51899998-.839 0-1.51999998-.681-1.51999998-1.51899998 0-.83999998.68099999-1.52099998 1.51999998-1.52099998zM793.19904327 116.16301012c.83999998 0 1.51999998.681 1.51999998 1.52099998 0 .83799999-.68 1.51899998-1.51999998 1.51899998-.83899998 0-1.51999998-.681-1.51999998-1.51899998 0-.83999999.681-1.52099998 1.51999998-1.52099998z"/><path fill="#33231B" d="M786.0500431 136.6290102h-15.72999954l7.63899978 9.6079998 2.10200004-2.01099992 5.98899973-7.59699988z"/><path fill="#754F40" d="M762.90204334 124.38601017l5.09399987-1.16200018-.98399997-7.59800005-6.2559998 1.967 2.1459999 6.79300023z"/><path fill="#33231B" d="M765.85104322 120.3640095l-.44700002-2.8599999-2.14499998.62599993 2.592 2.23399997z"/><path fill="#27788C" d="M804.28204465 102.93601036l-5.80999994 11.70800018.44799995-10.3670001 5.36199999-1.34100008z"/></g><g display="block"><path fill="#858686" d="M716.51794815 200.88999557l84.36700058 5.24900055 9.56299973 17.36200047-3.30699921 33.06799984-9.6020012 8.66500091-13.63299941-1.91600036.1930008-16.72400093-61.06900025-4.6819992-2.58200073 12.11100005-13.22399903-1.92300033 9.29399872-51.210001z"/><path fill="#3AA0BA" d="M716.51794815 200.88899612l84.36800003 5.25 9.56299973 17.36100007-3.30700302 33.06900024-8.31900025-19.61600018-98.45199966-12.42299985 16.14700317-23.64100028z"/><path fill="#5EC0D9" d="M886.6839447 198.62499714l-90.013-13.19699955-80.15300036 15.4619999 83.27800023 14.56699943 42.8269993 11.08300018 44.06100083-27.91499996z"/><path fill="#737373" d="M799.79595184 215.45700073L886.68395234 198.625l8.58600234 45.79300022-13.10000229 2.78900051-3.8429985-8.7350006-64.92900086 8.27400016L812.72795486 262l-15.18800354 3.23500061 2.25600052-49.77799988z"/><path fill="#318FA6" d="M799.79594803 215.45699763l-.97399902 21.49599958 101.1780014-17.11699963-13.3160019-21.21099949-86.88800048 16.83199954z"/><path fill="#CECECD" d="M795.97095013 173.0949974l-.53900004 3.6779995 3.8450001-1.98000002-.297 10.97400022-2.74000001 3.14700007-1.4920001 3.16400004 1.92400002 2.63899994 6.67800021-8.30900002-2.4640001-16.53100014-4.91500008 3.21800042z"/><path fill="#2B2B2B" d="M746.81594849 200.88999689l52.72899985 9.11599981 60.32799935-9.7419998-58.98699927-8.59199983-54.06999993 9.21799982z" opacity=".1"/><path fill="#ECECEB" d="M796.70694733 197.76299787l-23.30099917 3.5629999-10.94300031-3.50399989-1.52799988 2.43499988 12.88500023 3.75199992 24.32299995-3.73299992-1.43600082-2.5129999z"/><path fill="#CECECD" d="M796.70694542 197.76299667l-23.30099964 3.56299973-10.94299984-3.50399971.29500007-31.56599999 33.89699936 1.62599945.05200005 29.88100052z"/><path fill="#1C7678" d="M773.4069457 201.3249979l23.29999972-3.56200027-.0359993-20.1260004-15.55000043-1.16800023-18.47600055 1.94400025-.1819992 19.40999984 10.94399977 3.50200081z"/><path fill="#ECECEB" d="M762.75794792 166.25599754l19.99900007 3.79600012 13.89699984-2.17000013-7.16100025-3.2940001-18.50099945.12100006-8.2340002 1.54700005z"/><path fill="#50A9AA" d="M762.64495087 178.41299777l8.11100006 3.35100002 13.15800047-1.96600008 7.09100008.53600002 5.66600036-2.61999995-15.63600051-2.20600003-18.39000046 2.90500002z"/><path fill="#72CBCC" d="M784.35195029 188.10899794l-1.69799996-.80399996.804-1.60799998 1.42999997.71399996-.53600001 1.69799998zM774.25295073 186.9469968l2.59200007 1.162-1.43100006 2.41399998-2.41300005-1.519 1.25200004-2.05699997zM769.33694726 183.37199783l1.07200003 1.43099997-1.25100002.71499994-.62500003-.80499995.80400002-1.34099996zM781.49294865 193.02499819l-.09000003 1.69800001 2.76999998.53599996-.17900002-2.32399989-2.50099993.08999992zM775.95094654 195.97399604l-.62500003.89400003 1.16200003.71400001.71400002-.71400001-1.25100002-.89400003z"/><g><path fill="#DDDDDC" d="M824.2119494 188.16799736l-.35700004 11.2709999 1.16200004 1.50699998 1.34000005-1.4369998-1.07300005-8.75600004-1.072-2.58500004z"/><path fill="#C4C4C4" d="M825.28495203 190.75299716l-6.97100006-7.96799994 14.13000011.06099988-7.15900005 7.90700006z"/><path fill="#ECECEB" d="M832.44395208 182.8459973l-7.15900005 1.01600007-6.97100006-1.07700006 7.06500006-1.66500005 7.06500005 1.72600004z"/><path fill="#DDDDDC" d="M823.9339478 196.93799758l1.08200002 1.26399994 1.05900001-1.13199997 4.02400017 2.73299998-5.08300018 1.14299995-5.6750002-.99299991 4.59300018-3.01499999z"/><path fill="#1C7678" d="M825.37394488 189.31699657l-3.30700004-3.661 7.1500001-.28699995-3.84300006 3.94799995z"/><path fill="#50A9AA" d="M822.067945 185.65599803l3.66299989-.57399998 3.48499988.28599998-3.8419999 1.07799998-3.30599987-.78999998z"/><path fill="#DDDDDC" d="M838.51194483 188.520998l-.35700005 11.27099991 1.16200004 1.50699997 1.34000005-1.4369998-1.07300004-8.75600004-1.072-2.58500004z"/><path fill="#C4C4C4" d="M839.5839457 191.10499716l-6.97100014-7.96700025 15.19400024-.50300002-8.2230001 8.47000027z"/><path fill="#ECECEB" d="M847.8069458 182.63399791l-8.2230001 1.58099998-6.97100014-1.077 7.59600012-2.01899996 7.59800012 1.51499998z"/><path fill="#DDDDDC" d="M838.20894706 198.07299876l1.27099996.87000013.95800001-.87000013 5.18000007 3.17500007-5.96600008 1.21100009-5.96600008-1.51300007 4.52300012-2.87300009z"/><path fill="#1C7678" d="M839.58494213 189.66899776l-3.21799996-3.661 7.05999994-.28699995-3.84199998 3.94799995z"/><path fill="#50A9AA" d="M836.36694217 186.00899676l3.57399997-.57399998 3.48599997.28699997-3.75299998 1.077-3.30699996-.78999999z"/><path fill="#DDDDDC" d="M811.25294977 192.97799683l-.35700005 11.2709999 1.25100005 1.50699997 1.25100004-1.4369998-.98300004-8.75600004-1.162-2.58500003z"/><path fill="#C4C4C4" d="M812.41495202 195.56199789l-7.85399983-8.97799969 15.88599968.18499995-8.03199985 8.79299974z"/><path fill="#ECECEB" d="M820.4479518 186.76799754l-8.12199978 1.90299996-7.76599976-2.08699995 8.16699977-1.50299996 7.72099976 1.68699995z"/><path fill="#DDDDDC" d="M810.97694981 201.69399667l1.16999996.8319999.94300002-.9510001 4.99999982 3.21100009-6.13999984 1.45700013-5.74599984-1.60000008 4.77299988-2.94899994z"/><path fill="#1C7678" d="M812.41595104 194.4139967l-3.21799996-3.66100002 7.05999994-.28699994-3.84199998 3.94799996z"/><path fill="#50A9AA" d="M809.19795108 190.75299815l3.57399997-.57399998 3.48599997.28699997-3.75399998 1.077-3.30599996-.78999999z"/></g></g></g></svg>