<svg xmlns="http://www.w3.org/2000/svg" viewBox="0 0 900 350" width="900" height="350" style="width:100%;height:100%"><defs><clipPath id="a"><path d="M0 0h900v350H0z"/></clipPath></defs><g clip-path="url(#a)"><g display="block"><path fill="#2B2B2B" d="M285.47299576 244.09500599l28.24900055-3.6590004 12.41800022-4.2369995 17.5260005 5.8249998 48.06600141-10.75600004-65.59200191-15.80199957-40.66700077 28.6289997z" opacity=".1"/><path fill="#C4C4C4" d="M109.17499614 64.2720108v118.50799942h6.38600015l-.7090001-121.34600067-5.67700005 2.83800125zM97.4659965 64.2720108v118.50799942h6.38600016l-.70900011-121.34600067-5.67700005 2.83800125z"/><path fill="#DDDDDC" d="M338.29299927 175.75000954l-52.82000733 26.54400062L42.6619873 193.3810091l40.69300843-27.6810007 256.05900573 1.67000007-1.1210022 8.38000107z"/><path fill="#858686" d="M285.47399902 244.09500694l-242.81199646-5.43300056v-45.28100014l242.81199646 5.72000122 3.1930008 19.46799913-3.1930008 25.52600035z"/><path fill="#C4C4C4" d="M218.07400322 78.07601166v98.605999l45.8730011 2.144001 3.49300003-48.27099991-.644001-52.4790001h-48.72200013z"/><path fill="#858686" d="M263.94599247 178.82500458l14.81299973-5.14699936 2.1289997-46.84000045-2.1289997-50.59699983-11.96400023 1.83499909-2.8489995 100.74900055z"/><path fill="#A3A3A3" d="M278.76000977 173.67700958l41.52600097 2.07300186V80.86001205l-41.52600097-4.62000274v97.43700027z"/><path fill="#737373" d="M308.93199348 137.36401153c-1.06399917.3549999-30.17299938-1.77400017-30.17299938-1.77400017l-3.1789999 1.81400013 3.1789999 4.3959999 31.23700047 1.5960002-1.06400109-6.03200006zM306.27200985 146.94401002l-27.51200008-.88699985-2.29199982 2.306 2.29199982 3.19300008 28.9310007 1.48899984-1.41900062-6.10100007z"/><path fill="#6F7173" d="M285.47299576 199.1010046v44.99499989l43.86100006-17.0529995 8.95899963-51.29300118-52.8199997 23.3510008z"/><path fill="#9DA1A2" d="M127.89100647 106.62700653l71.3069992 2.70700073.2610016 46.56900025-72.6320038-1.79300118 1.064003-47.4829998z"/><path fill="#FFF" d="M133.74399567 113.35101128l57.63500023 3.67400074-1.06399918 32.52600002-54.97400093-3.49500084-1.59700012-32.70499992z"/><path stroke-miterlimit="10" stroke="#A3A3A3" d="M169.404001 135.61200273l-5.25600004 2.79399991M164.102996 139.49301147c0 1.06500006-.86399997 1.92900002-1.92900003 1.92900002-1.06599998 0-1.92900002-.86399996-1.92900002-1.92900002 0-1.06500005.86300004-1.92900002 1.92900002-1.92900002 1.06500006 0 1.92900002.86399997 1.92900002 1.92900002zM177.76300746 135.96501255l1.05799997 5.85699987M179.87599438 141.90600324c1.01500005.32500004 1.57399995 1.41200006 1.24900002 2.42700004-.32500005 1.01400006-1.41100002 1.57299996-2.426 1.24800003-1.01400006-.32500005-1.57299996-1.41100002-1.24900007-2.426.32500004-1.01499999 1.41100007-1.57400012 2.42600005-1.24900007zM178.24399269 130.64101195l3.87199998-4.51999998M181.51399755 125.25000578c-.38899993-.99199998.10000003-2.111 1.09200001-2.49999994.991-.38999998 2.11099994.09899998 2.5 1.09099996.38899994.99199999-.09899997 2.11099994-1.09100002 2.5-.99199998.38899994-2.11199993-.09899997-2.50099999-1.09100002z" fill="none"/><path fill="#D1A1B8" d="M179.9150064 128.72300148l2.3280003 10.77000046-4.0580002-1.42000032-5.64600027-7.68599987 7.37600017-1.66400027z"/><path fill="#9075A0" d="M168.3389988 131.4510113l5.32200011-5.45599997 6.2540001 2.72799993-8.51600003 4.42800009 2.72799992 4.9239999-5.7880001-1.73000002v-4.89399993z"/><path fill="#A688BA" d="M168.33899355 131.45101047l3.05999982 1.69999992 2.72800005 4.92299998h4.05799985l-3.51699984-6.6229999-4.34300006-2.03500009-1.98599982 2.03500009z"/><path fill="#9075A0" d="M236.19600487 115.98601055l23.94900036 1.06499958-.79800034 27.6750002-22.88499927-.533-.26600075-28.20699978z"/><path fill="#ECECEB" d="M240.45400763 122.63901043l14.36999988-.26499939v17.29599953l-14.36999988-.53100014v-16.5z"/><path fill="#B3889D" d="M224.62100303 113.8570056l3.85800004.1329999-.39900005 10.91099977h-3.32599997l-.13300002-11.04399967zM224.88700306 130.88800621l3.19299996-.26600027.13300002 10.51100016-3.32599998-.26600027v-9.97899962zM225.01999867 148.18600798l3.19299996-.26600027.26600003 11.5760002-3.592-.13299989.13300001-11.17700004z"/><path stroke-miterlimit="10" stroke="#858686" d="M237.08300114 150.6690083l15.07999992.354M237.08300114 153.86300854l15.07999992.354M237.08300114 157.0560017l15.07999992.35400001M237.08300114 160.24900195l15.07999992.356M237.08300114 163.44201037l15.07999992.356" fill="none"/><path fill="#B3889D" d="M203.59800053 109.46601224l4.25800013.13300013.26600003 5.05699993-4.39100003-.13300014-.13300013-5.05699992zM203.86499763 117.98201084h4.25699996l.1329999 4.52400017h-4.38999986v-4.52400017zM203.9970026 126.89701176l4.39100003-.1329999.13300014 4.78999996-4.39100003-.26600003-.13300014-4.39100003zM204.26399446 135.41201258h4.125v4.65799999l-4.2579999-.26699996.1329999-4.39100003z"/><path fill="#6F7173" d="M272.52000535 207.9270134l2.661-.13300038-.53199994 29.27099991-2.79400003.40000057.66499997-29.5380001zM267.46401143 207.79300499l-.53199994 29.2709999h-2.66100002l.66500002-29.53599929 2.52799994.26499939zM259.8799895 207.66100407l-.53199994 29.13900089h-2.66100001l.66499996-29.67100048 2.528.53199959z"/><path fill="#C4C4C4" d="M172.59700012 203.27001476l61.47100067 1.33199978-1.06399917 30.60099983-58.81100083-1.59599971-1.59600067-30.3369999z"/><path fill="#9DA1A2" d="M227.41499412 208.59201258l2.12900002-1.72999996 1.72900002 1.99599995-2.66100001 2.26199995-1.19700003-2.52799994zM227.1489942 231.07800293l2.26099994-1.99600005 2.12899993 2.52800005-2.66199994 1.46400005-1.72799992-1.99600005z"/><path fill="#D1A1B8" d="M238.05800438 204.86700964l8.3829999.13300002v3.45899999l-8.6489997-.26600004.2659998-3.32599997zM237.79299927 211.25301123l8.1170001.13300001.1329999 3.46000004-8.25-.26600003v-3.32700002zM237.92700362 217.639009l7.85000015.13300002v3.194l-7.98400021-.26600003.13400006-3.061z"/><g opacity=".1"><path fill="#2B2B2B" d="M133.72999334 185.07300854l-1.62599992.866 5.83100009 1.56800001 10.17900013-1.217-4.26400017-.76-10.12000013-.45700001zM153.70799494 176.4630096l-3.06500006.67500007 9.32600011 3.47599995 7.19000016-1.00399995 2.24399996-1.625-2.24399996-.91500008-13.45100021-.607zM169.40399456 182.93200183l-3.17300034.67900002 7.03000021 3.36600006 13.52800036-1.2060001-3.86200047-2.22799992-13.52299976-.61100006zM186.78899956 179.00500917l-2.75.13999987 6.25400066 8.6500001 25.81199932-2.722 1.96899986-2.83499993-31.28499984-3.23300004zM257.85999107 190.1340139l-1.97200012 1.40000009 13.30499983 3.75200009 4.32500017-3.7520001 21.48800003-4.02700006-12.04199981-3.9280001-25.1040001 6.55500007z"/></g><path fill="#9DA1A2" d="M290.48600388 184.97400355l-.4449997 2.82099998-7.92999983-1.19599998-12.04300022 3.75900007-.61199999 2.95200014-10.1829996-1.38700009.19299983-2.16400003-1.60599994.37599993.31899929-2.34200001 4.48600006-2.36000002 7.88900041-.18 12.00400019-3.60699982.33599949-2.46200037 5.33200073-.61699962-.51100063 4.00999975 2.7709999 2.39700007z"/><path fill="#A3A3A3" d="M258.18000793 187.79301238l3.23799992-5.3110001 5.13700008 1.76300005 14.24300004-3.33999996.55499982-2.91899991 6.87299967.58099985-4.45699978 1.4250002 2.43900013 1.32899975 4.09899998-.8729999.17999935 4.52699994-7.52299976-1.39499998-13.92899943 4.02999997 1.03399992 2.7479999-10.60200023-.59899997 6.1619997-1.704-2.53199959-1.89699995-4.91699982 1.63500011z"/><path fill="#858686" d="M282.96400404 183.5800116l-.8540001 3.0200001 7.93100024 1.19500006.44500017-2.82000005-7.52200031-1.3950001zM270.06898975 190.3570118l-.61299991 2.95200002-10.18199969-1.38699997.19299984-2.16400003 10.60199976.59899998zM263.09698558 186.15700376l-.36800003 2.70000005 2.9000001-.80200005-2.53200007-1.898z"/><path fill="#C4C4C4" d="M187.38799286 171.46301365l16.03199959-1.50600004 10.8579998 7.18499982-19.23999977 3.99099982-7.64999962-9.6699996z"/><path fill="#737373" d="M214.27900124 177.14200306L195.038002 179.0060029l-2.29500007 2.91800002 1.8959999 4.08999988 19.6399994-3.81499988v-5.05699986z"/><path fill="#A3A3A3" d="M187.38900137 171.4630065l-.59899998 7.54200008 7.85000015 7.0080001.39899992-7.0080001-7.6500001-7.54200008z"/><path fill="#858686" d="M201.35900319 176.34400582l6.25300014-.62099999-3.79200018-2.50499993-5.38800013.46499991 2.92700017 2.66100001z"/><path fill="#CECECD" d="M166.2320013 172.69501555l-5.8860001-2.19400013-6.63800006 2.19400013 5.4640001 4.44200003 5.22199977-.67400002 1.8380003-3.76800001z"/><path fill="#8F8F8F" d="M163.16599655 172.69501162l-3.1960001-.53499997-1.76200008 1.48999995 3.15500009 1.61999994 1.8030001-2.57499992z"/><path fill="#8F8F8F" d="M153.70900583 172.69500947v3.76799995l5.46299994 2.5299999 2.38199997-.67400002 2.72800005.67400003 2.87699985-1.92299998-.92700004-4.37499988-1.83799982 3.09199993-5.222.67600002-5.46299995-3.76799995z"/><path fill="#737373" d="M159.17299652 176.4630065v2.53100001h5.10899997l.11300015-3.20600009-5.22200012.67500008z"/><path fill="#CECECD" d="M182.67299461 179.14500916l-6.59700023-2.20599997-6.67300022 2.20599997 3.4590001 4.46599996 7.28500033-.67799997 2.52600002-3.78799999z"/><path fill="#8F8F8F" d="M178.9119935 179.14501587l-3.21300009-.53800002-2.8370001 2.00699997h4.79700005l1.25300014-1.46899995z"/><path fill="#8F8F8F" d="M169.40399313 179.14500475v3.78799987l3.45800018 2.5439999 4.42900002-.67799997 2.74199999.67799998 2.89400005-1.9339999-.25400019-4.39799988-2.52599978 3.10899989-7.28500009.67899998-3.45800018-3.78799987z"/><path fill="#737373" d="M172.86199784 182.93200547v2.54399996h7.17199993l.11299992-3.22199988-7.28499985.67799992z"/><path fill="#CECECD" d="M144.50999975 182.23801488l-5.78700012-1.65099997-4.31500011 1.65099997 3.43300008 3.34200006 3.92900014-.50800001 2.74000001-2.83400005z"/><path fill="#8F8F8F" d="M140.84600282 182.2380056l-2.40500003-.40199997-1.325 1.12099999 2.793.38099998.93700003-1.1z"/><path fill="#8F8F8F" d="M134.40899515 182.23800182l-.6789999 2.8349999 4.11199987 1.90499987 1.792-.50899994 2.05100005.50899994 2.16499997-1.4469999.65999984-3.29299987-2.73999977 2.32799989-3.92800009.507-3.43299997-2.83499989z"/><path fill="#737373" d="M137.84199977 185.07301134v1.90399998h3.84399998l.084-2.41199994-3.92799998.50799996z"/><g opacity=".1"><path fill="#2B2B2B" d="M803.70399094 275.38202047l-4.24699974 1.86599994 12.84700012 6.96300006 23.5209999-5.23299998-6.41100025-2.435-25.71000003-1.16100002zM854.63000393 312.64001226l-4.96799946 2.48299993 17.0309999 6.38699996 13.1280005-7.40699983-3.97700024-.50500011-21.2140007-.95799995zM184.71300793 332.89102006l-2.09300042 3.03299996 11.70900012 3.46000007 15.079-5.27800012-3.48099995-2.17299986H193.1910076l-8.47799968.95799995zM136.93899727 316.01000309l-9.66900063 7.1960001 15.78900051 13.73799992 39.56199933-10.22300005 6.45300102-10.71099997-29.3400004-5.41100025-22.79499983 5.41100025zM215.54401016 304.39000893l54.52399922-34.06200028 37.63199901 5.14500046-8.17699814 17.5189997-47.3600006 25.14700067-36.61899949-13.74900055zM299.70701218 319.82601666l-.18500138 9.29599977 53.806 14.6539998 59.22199988-25.01399946-67.67599964-14.90300035-45.16699886 15.96700024zM565.4610138 331.26801348l-5.5 13.3039999h-54.64099885l11.70899964-7.18299997 48.4319992-6.12099993z"/></g><path fill="#DDDDDC" d="M577.9199791 297.73800373l11.13500213 28.47300053 69.01100159-21.6870004-17.0320015-19.0270003-63.11400222 12.24100017z"/><path fill="#ECECEB" d="M585.6839714 299.06901455l24.1269989 28.73899937 65.1949997-23.28399927-24.3920002-18.47199935-7.45099926-5.07900047-57.47899913 18.09599972z"/><path stroke-miterlimit="10" stroke="#A3A3A3" d="M640.8570013 287.44901562l19.33799935 15.43400001M635.53597927 289.57801342l19.33600044 15.43400002M629.68197536 291.17402172l19.33600045 15.43400002" fill="none"/><path stroke-miterlimit="10" stroke="#9DA1A2" stroke-width="3" d="M353.3280077 263.76500797l13.70399976-8.51500034 6.91799998 10.77800043-5.0699997 10.77600042M303.70299149 319.79299355l-13.57599974-.47899986-3.72499979 7.78399992-19.15899956-6.29799986" fill="none"/><path fill="#734D60" d="M316.73900795 308.20501304l31.6669996-12.24099994 31.13399909 10.64499998-29.80499912 20.4909997-32.99599957-18.89499974z"/><path fill="#96637C" d="M379.54000664 306.60901642l-30.60399908 8.51500034-32.19799906-6.91800022 1.33099937 12.77300024 30.60099972 7.18499994 29.80500042-9.31399989 1.06499863-12.24100041z"/><path fill="#858686" d="M352.39600515 315.38999939l23.6840005-30.0699997-6.65299988-3.72500038-20.4900006 28.73900032-26.07899965-23.15100002-4.79000091 5.3220005 27.41000056 23.15100003 6.91799998-.26600075z"/><path fill="#A688BA" d="M338.55898571 265.62700099l10.9099999-6.121 9.57999987 6.121-11.44299984 6.91899997-9.04699993-6.91899997z"/><path fill="#9075A0" d="M338.55898523 265.6279993l-.2670002 14.10399962 10.112 5.58799982.63600015-7.44199967-1.43400002-6.39600015-9.04699993-5.85399961z"/><path fill="#785D88" d="M347.60700274 271.48199892l11.44200038-5.85399961-.53200006 13.30499982-10.11299992 6.38699961-.7970004-13.83799982z"/><path fill="#A3A3A3" d="M352.39599872 315.39000511l-2.5359999-45.06100082h-3.67299998l-1.77400016 45.32699966 7.98300004-.26599884zM316.7380023 308.20500755l-11.17700005 3.32600022 8.16100014-27.89599991 4.34700024 8.86999988-1.33100033 15.69999981zM379.54000616 306.60800648l-3.46000004-21.2880001 4.70099998-7.45199872 8.33899998 32.37799835-9.57999992-3.63799953z"/><path fill="#9DA1A2" d="M313.72299099 283.63400936l24.83600044-18.00599956-.2659998 14.10299974-20.22399997 12.7729997-4.34600067-8.86999988zM358.51698685 278.93299913l17.5630002 6.38699961 4.70099974-7.45099974-21.73200036-12.2409997-.53199958 13.30499983z"/><path fill="#9075A0" d="M316.73899174 308.20599937l-11.17700005 3.32500029-4.79100036 8.29499984 4.79100036 5.94200015 12.50699997-4.78900004 2.217-7.00800013-3.54699992-5.7650001zM379.5389862 306.60901165l-4.52400016 7.18499982 3.46000004 5.05599988 11.5749998 2.52800035 4.56900025-3.99200034-2.83900023-8.02699971-12.2409997-2.75z"/><path fill="#785D88" d="M320.28699207 313.97100353l-12.58700037 3.5810001-6.92900037 2.27300005 4.79100036 7.27400011 12.50699997-6.12100014 2.21800041-7.00700012zM375.01498604 313.79401684l12.78799987 2.22200012 5.92799973 1.36899984-3.19299984 6.34300005-12.06400013-4.878-3.45899963-5.05600001z"/><path fill="#9075A0" d="M348.13900465 310.24602318l-7.43300003 3.10999965-1.29099989 12.63500047 9.62499988 9.62400031 6.41699994-11.1770004-.66499996-10.44399989-6.65299994-3.74800014z"/><path fill="#785D88" d="M348.13898563 310.24501514l.2659998 10.78700018.32500028 13.1670003 8.98899985-8.86400032-1.58599997-12.2130003-7.99399996-2.87699986z"/><path fill="#D1A1B8" d="M305.56100297 311.53100252l2.13800001 6.01999986-2.13800001 9.54700005-5.8540001-7.273 5.8540001-8.2939999zM339.4140091 325.98900223l8.99000042-4.95800019 9.31400043 4.30500007-8.91400042 11.87500024-9.39000044-11.22200012zM390.53801143 323.72799921l-2.73500001-7.71199995 3.97700006-6.65799994 3.90300005 8.02799994-5.1450001 6.34199995z"/><path fill="#A3A3A3" d="M301.91098785 254.40702057l-28.38599777-6.56399918-25.53200054 14.63599968-32.4499979 12.99499989 47.33799791 15.30099964 30.86799956-17.56299949 8.16199874-18.80500054z"/><path fill="#C4C4C4" d="M247.9939946 262.47901535l44.69099914 9.66799927-29.8029995 25.01499939-55.85299873-21.6869998 40.96499908-12.99599886z"/><path fill="#8F8F8F" d="M301.91100311 254.40699959l-9.22500038 17.74099922-29.8050003 22.88500023-2.12800026 5.76499939 2.12800026 5.85499954 34.41699981-27.14299917 9.57900048-13.74900007-4.9659996-11.35399914z"/><path fill="#737373" d="M207.02900124 275.47301865l4.75900077 13.92700016 51.09300042 17.25300014v-11.62000012l-55.8520012-19.56000018z"/><path fill="#96637C" d="M256.47999763 284.74299634l-13.64499998-2.83799994 7.88800002 8.86999988 5.75699996-6.03199994zM220.83600283 275.47399974l12.59599971 2.528-5.23399984 4.88600003-7.36199987-7.41400003z"/><path fill="#FFF" d="M220.83600307 275.4740119l-4.43500019 3.28199982 6.03200017 10.64399982 5.76499977-6.51199982-7.36199975-7.41399982zM242.83500028 281.90502024l-4.41999984 4.5599997 5.6619998 10.69700027 6.64599981-6.3870002-7.88799977-8.86999977z"/><path fill="#8F8F8F" d="M182.61999321 310.6010127v6.829l-9.40199852.71000004v7.9829998l-10.46700048 4.70199967-4.25800002-7.00899983-4.43500006-1.08199978-4.61300016 1.61600018-7.09599971 6.47499943-8.3380003-6.47499943-3.19299889-9.70600009h4.61299896l-1.59700012-12.11600041 28.03000021 1.33100032 6.7409997-7.00799942.59800053 9.39199973 13.41699886 4.3579998z"/><path fill="#737373" d="M150.50999856 316.82001495l-1.06499982 7.52799988 9.04699993-.53199982.1789999-6.99600006h-8.16100001zM143.05900335 321.77600878l-.71000004 9.04800016-10.28899955-6.65300011-1.2420001-9.5270002 12.2409997 7.13200015zM172.1540023 310.59999514l1.06400002 7.53999996-5.49900007-5.21200001 4.43500006-2.32799995z"/><path fill="#A3A3A3" d="M162.57399607 322.73499465l.17700004 8.08899999 10.46700001-4.70000005v-7.98399997l-10.64400005 4.59500003z"/><path fill="#CECECD" d="M144.12299442 296.85199928l6.56399966 4.96700001 5.49900007-1.55200005 1.597-3.41499996h10.82199967l-3.19299984 4.96700001 5.14400005 2.03999996 9.04800034-.79799986 3.01599884 7.5399999h-10.46699905l-4.43500042 2.32699997 5.4989996 5.21299958-10.6439991 4.59300041-3.90300012-5.91400003h-8.16100002l-7.4499998 4.95700025-12.24200059-7.13199997 8.3390007-1.71700024 3.3699999-5.96399999-8.69299985-4.43499994 10.28999996-5.67700005z"/><path fill="#737373" d="M145.18799639 310.60000539l8.86899984-6.74199987 6.74099981 3.72599984-7.80399982 5.34399986-7.80599983-2.32799983z"/><path fill="#8F8F8F" d="M154.05699635 303.85800552l-1.06400013 9.0699997 10.99900007-5.34399986-9.93499994-3.72599984z"/><path fill="#CECECD" d="M186.17600155 325.99200761l9.2840004-3.46099984 10.467 3.46099984-8.61899995 7.00600016-8.23500014-1.06500005-2.89700031-5.9410001z"/><path fill="#8F8F8F" d="M191.01000524 325.99201536l5.041-.84399998 2.7800001 2.35000002-5.85500014.79799998-1.96599996-2.30400002z"/><path fill="#8F8F8F" d="M205.92700768 325.9910078v5.94200004l-8.61900032 3.99100005-3.75600004-1.06400013-4.30099976 1.06400013-4.53800059-3.0330001 1.4630003-6.89999999 2.89699984 4.877 8.23500025 1.06500004 8.61900032-5.94200004z"/><path fill="#737373" d="M197.30799437 331.93300319v3.99099993h-8.0580001l-.17700004-5.0539999 8.23500014 1.06299997z"/><path fill="#CECECD" d="M827.64099693 268.18201709l-11.25099986-4.194-12.68699986 4.194 10.4469999 8.49 9.98000014-1.28999995 3.51099968-7.20000005z"/><path fill="#8F8F8F" d="M821.78302956 268.18201196l-6.10999978-1.02400005-3.36999977 2.84900005 6.03199983 3.09700005 3.44799972-4.92200005z"/><path fill="#8F8F8F" d="M803.70402145 268.18101215v7.2010001l10.44499946 4.83700001 4.55200005-1.28999996 5.21399998 1.28999996 5.4989996-3.67600012-1.77299977-8.36199999-3.51099967 5.91100005-9.98100019 1.29000005-10.44499946-7.2010001z"/><path fill="#737373" d="M814.15001488 275.38199878v4.8369999h9.7659998l.21399974-6.12699986-9.97999954 1.28999996z"/><path fill="#CECECD" d="M875.44502449 306.6980083l-10.34899959-3.4610002-10.46499959 3.4610002 5.42299939 7.0059998 11.42900037-1.06499958 3.96199942-5.94100022z"/><path fill="#8F8F8F" d="M869.54602528 306.6980161l-5.0409999-.84400003-4.44899987 3.14900004h7.52499985l1.96499992-2.305z"/><path fill="#8F8F8F" d="M854.62999916 306.69900846v5.9410001l5.4250002 3.992 6.94900011-1.0639999 4.3019998 1.0639999 4.5380006-3.03400005-.39900018-6.89900005-3.96099996 4.87700008-11.42900038 1.06400003-5.42500019-5.9410001z"/><path fill="#737373" d="M860.0560193 312.64000392v3.9920001h11.25l.17800046-5.05600023-11.42800045 1.06400013z"/><path fill="#CECECD" d="M828.94501019 294.87300515l-9.07599998-2.59100008-6.76799989 2.59100008 5.385 5.24300003 6.16199993-.796 4.29699994-4.44700003z"/><path fill="#8F8F8F" d="M823.1989727 294.87301344l-3.77300006-.63099999-2.08100003 1.75799996 4.38200009.598 1.472-1.72499997z"/><path fill="#8F8F8F" d="M813.10002804 294.87201977l-1.06300068 4.44700002 6.44900036 2.987 2.80900013-.79699994 3.22100008.79699993 3.3959999-2.26999998 1.03300048-5.16400003-4.29700041 3.65-6.16200018.79700002-5.38599968-4.44700002z"/><path fill="#737373" d="M818.48601651 299.31900144v2.98699998h6.02900005l.13300013-3.78399992-6.16200018.79699994z"/><path fill="#9DA1A2" d="M565.46097422 320.64902075l15.16799974-5.08199986 1.59599972 2.5409999-17.82799912 7.30499982 1.06399966-4.76399986z"/><path fill="#96637C" d="M578.57897758 316.25399971l3.64599991-6.54199982 8.25 3.46099997-3.32800007 7.47699976-7.35400009-1.63699985-1.21399975-2.75900006z"/><path fill="#B3889D" d="M582.2249837 309.7119999l4.9230002 10.9369998 6.51900018-8.27499987-11.44200039-2.66199994z"/><path fill="#8F8F8F" d="M517.02899551 325.94499534l26.25599957-10.59200042 22.17599964 5.29600048-19.16099977 14.8760004-29.27099944-9.58000046z"/><path fill="#6F7173" d="M565.46097088 320.65000534v10.61800027l-18.09699965 12.50600028-2.60899973-4.20300007 1.54599953-5.1090002 19.15999985-13.81200028z"/><path fill="#737373" d="M517.02902126 325.9450159l29.27099991 8.51599998 1.06500054 9.31399995-30.33600045-6.38699984V325.9450159z"/><path fill="#D1A1B8" d="M534.4150238 323.37302075l8.42699963-3.90299998 9.49099964 2.57200003-9.66899961 4.96799993-8.24899966-3.63699998z"/><path fill="#96637C" d="M552.33299065 322.04200077l.35299968 1.86299992-9.3130001 4.967-9.5790001-2.92699995.6199999-2.57200012 8.8260002 2.57200012 9.09300042-3.90299997z"/><path fill="#2B2B2B" d="M428.32598877 271.65999985l-36.19000244 10.11200046 38.31900024 22.88500023 86.5739975 21.28900051 47.95199966-5.4110012.4790001 10.7330017 158.77799987-8.02700042 35.9240036-13.26200104 38.14900208 4.125 47.89299011-15.0349996-75.1309967-20.09099985-70.25299835-19.47000122-272.49399567 12.15200043zM88.23999405 253.83102226l112.7709999 19.27200032L82.53399659 309.0040226l5.70599747-55.17300034z" opacity=".1"/><path fill="#734D60" d="M165.66399765 124.89400578l-73.48400116-3.4960003 31.89100075-12.11800002 41.59300041 15.61400032z"/><path fill="#D1A1B8" d="M120.83799553 102.7730093l-11.66399956 1.04899979-37.6099987 6.57599973 3.06499863 11.3000002 3.3730011 8.91299962 25.47199916-12.6289997 17.36399937-15.20899964z"/><path fill="#737373" d="M109.17499733 103.82200909l-34.54500008 17.87800026-7.32299995-12.96400023 41.86800003-4.91400003z"/><path fill="#543042" d="M109.33099782 288.03801537s-10.63499963 2.06399917-18.88500058-4.35300065c-13.35099983-10.38399982-9.49399948-25.81099987-9.49399948-25.81099987l46.2840004-10.0579996-1.36400033 5.61899947s16.79000092 26.39400006-16.541 34.60300065z"/><path fill="#734D60" d="M126.93899632 253.72000217c-.28100014 11.89499975-.88999987 29.37199974-17.6069994 34.31799984 0 0 17.30999946-5.24300003 33.88499927-10.83100032 5.97300053-2.71899987 13.68699932-16.95999957 11.16899967-29.3909998l-27.44699954 5.90400028z"/><path fill="#B3889D" d="M202.22000504 227.141016l-6.20700074 14.95300008-111.89499664 32.09699916-1.58200073-21.06399965 57.18499899-14.7210002 62.49899912-11.26499938z"/><path fill="#D1A1B8" d="M81.57099915 174.74700356l114.92799758 34.1109991-72.8239994 13.41299916-44.3049984-.04099846 2.20100022-47.4829998z"/><path fill="#96637C" d="M160.45999908 212.33200455l8.31200028 6.97199917-3.36399841 15.92900013-82.8730011 17.89299942-3.16500092-30.89699936 81.09000015-9.89699936z"/><path fill="#734D60" d="M162.33600235 221.01001358l-81.7310028 13.27799988.8959999 8.73600006 82.3900032-14.819-1.5550003-7.19499994z"/><path fill="#D1A1B8" d="M105.48899746 230.245008l1.33500004 8.22399997 22.86299991-4.11199987-1.66600036-7.77199996-22.5319996 3.65999985z"/><path fill="#FFF" d="M160.45999718 212.3320055l4.9489994 22.90199947 36.81099892-8.09199953-5.71999931-18.28399992-36.03999901 3.47399998z"/><path fill="#96637C" d="M78.00099564 130.6120106l42.83600163-27.8380009 49.36600184 5.460001-4.53900146 16.65899992-44.78100038-11.30100012-42.88200163 47.76200104V130.6120106z"/><path fill="#C4C4C4" d="M343.66699028 242.02400208l-29.94399929-1.58799744-14.0159998-150.1930008 8.56400014-5.13800048 24.77400016-4.24500275 14.02999974 88.61400032-3.40800095 72.55000115z"/><path fill="#737373" d="M333.04499817 80.86001015l-33.33699799 9.38199997L76.88700867 55.2800095l1.41899109-27.64000058 254.7389984 53.22000122z"/><path fill="#9075A0" d="M316.73799896 122.34200668l-107.06300068-22.6469984L81.81499481 96.2740078l-.51899719-50.69999886 232.4260025 40.72399879 3.01599884 36.04399895z"/><path fill="#785D88" d="M315.51200104 107.6910057l-97.9430027-18.4099996-135.1590023-16.90399957v4.42300034l134.6270027 16.12599917 98.94900132 20.42499951-.47399902-5.65999984zM314.5759964 96.50100899L199.19799376 74.4710083 80.27999115 56.67500877l2.12900543 5.9849987 117.8629973 14.99200094 114.30400252 23.30899966V96.501009z"/><path fill="#C4C4C4" d="M899.29397583 11.98300934l-17.40098572 232.147995-512.2440033-13.45199586V57.9750061l529.64498902-45.99199676zM44.95400047 4.66500854L15.85900021 8.74499512 0 327.76400757l40.6960001 11.61898804 10.64400005-176.88099385L44.95400047 4.66500854z"/><path fill="#9DA1A2" d="M369.65000916 57.97600555L44.95401 4.66601562 40.69599915 339.3840027l55.35100555-23.20399476L80.43600464 29.76800537 333.0450058 80.8610077l10.62099457 161.16300201 25.98400879-11.34500122V57.97600555z"/><path fill="#9075A0" d="M342.68601322 141.7590046l13.96800041-.62599946v26.1779995l-12.24100017 3.75900078-1.72700024-29.31100083z"/><path fill="#785D88" d="M347.0749855 146.05701303l6.20800019-1.33099985v9.4920001l-6.20800019 1.06399966v-9.2249999z"/><path fill="#2B2B2B" d="M390.94399738 231.07801056l-3.14100027-174.67899323-18.15300035 1.57699585v172.70300293l21.29400062.39899445z" opacity=".1"/></g><g display="block"><path fill="#ECECEB" d="M492.70898438 210.18699455l27.42399597-42.875 163.60100555 8.19799996 28.26099396 43.05999946-219.28599548-8.38299942z"/><path fill="#A688BA" d="M512.22298431 178.94499207l80.43199683-3.00799942 91.07999658-.42699814-11.65499878-32.11300052-3.72499847-38.81999814-66.00199938 10.45899773-80.35800123-5.6799984-9.77199555 69.58899689z"/><path fill="#9075A0" d="M512.22298431 178.94399929l73.10599709-16.43999958 98.40599632 13.00499964-25.6689949 7.87900018-84.75500107 3.91599942-60.6289978-.66799927-.45899964-7.69200039z"/></g><g display="block"><path fill="#ECECEB" d="M434.23101044 34.5179993l13.59600013-11.40200008 11.90000016 11.40200009-14.35900009 11.0560001-11.1370002-11.0560001zM470.15801239 8.74499893l101.68899918 6.38800049 20.80700302 71.40800095-115.66600418 22.3240013-15.37600327-58.90600108 8.54600525-41.21400166z"/><path fill="#9075A0" d="M495.28901231 29.7679987l12.67600024 9.04700017-12.67600024 12.08100008-10.1600002-10.56400012 10.1600002-10.56400013zM531.310009 38.54899883l11.79699987-8.78100013 10.02299983 11.62800014-13.0389998 9.50000011-8.7809999-12.34700012zM509.25801182 70.16099691l11.40700003-7.46999979 10.64500001 9.38899982-12.24100005 10.64299977-9.811-12.5619998zM549.22701311 61.43400073l8.1600002-6.15400004 6.03200019 8.01699996-9.7130003 5.85100007-4.47900009-7.71399999z"/><g><path stroke-miterlimit="10" stroke="#B3889D" stroke-width="3" d="M496.54701233 40.33099842l23.69200039 17.11200047 21.6260004-16.24199963 14.45800019 21.01399994M520.23901367 57.4430008v16.23299789" fill="none"/></g></g><g display="block"><path fill="#C3987B" d="M404.90802169 280.97399473l-3.76799989-7.9840002 13.08199978 3.9930001-9.3139999 3.9910001z"/><path fill="#DFBDA5" d="M426.59402132 262.8779974l-21.6869998 18.09500027 27.94199944 2.12900066 2.42399978-16.49800062-8.67899942-3.72600031z"/><path fill="#8B6651" d="M424.87802124 264.30999756l7.97200012 18.79300022 4.73600006-13.306-7.8390001-6.91999983-4.86900008 1.4329996z"/><g><path fill="#785D88" d="M442.7750206 211.5189972l-18.52899933 2.30700015 7.09599972 16.3210001 9.75600004 10.2880001 8.10799933-8.43300008-1.54399968-10.19300032-4.88700008-10.28999996z"/></g><g><path fill="#594165" d="M424.24502182 213.8259964l-7.80599976 43.64200115 22.53100014 18.27200031 2.12899971-35.30400085-16.85400009-26.61000061z"/></g></g><g display="block"><path fill="#C3987B" d="M423.44300255 299.07001066l-7.00400004-7.9840002 14.92000008 3.9910001-7.91600004 3.9930001z"/><path fill="#DFBDA5" d="M439.90000236 280.97401047l-16.45799911 18.09600067h34.15599823l-2.29099941-13.5720005-15.40699971-4.52400017z"/><path fill="#8B6651" d="M437.93200302 283.64501095l19.66600037 15.42500019-2.29100037-13.5720005-15.40699959-4.52400017-1.9680004 2.67100048z"/><g><path fill="#9075A0" d="M444.98900318 218.57000732l-14.47500038 5.15300084 18.69300032 30.1090002 6.1010003-2.39500046v-21.28900003l-10.31900024-11.57800055z"/></g><g><path fill="#785D88" d="M430.51400185 223.7230091l2.33599949 59.37899972 22.45700073 2.39499855 2.29099941-9.75699997-2.29099941-24.30399919-24.79300022-27.7129991z"/></g></g><path fill="#96637C" d="M466.5069933 208.85900116l-23.7319994 2.6609993 12.53199958 39.91500091 25.44199944-23.41600012-3.95099926-11.17700029-10.29100037-7.9829998z" display="block"/><g display="block"><path fill="#734D60" d="M464.20999193 151.5559845L447.024992 173.91898453l-1.49100018 9.4680003 3.54800034 9.90499973 16.2619996-13.44000006 4.42999983-18.1340003-5.56399965-10.1619997z"/><path fill="#543042" d="M449.08299255 193.2909851l-39.7480011-20.04900073 2.15100098-8.20300007 7.79899979-5.54400063 27.73999977 14.42300082 2.05800056 19.37300062z"/></g><g display="block"><path fill="#B3889D" d="M485.40798855 130.23999023l-18.00599957 22.73600007-2.50699997 15.69699955 1.61199952 40.18599987 14.24200058 19.1590004 31.9319992-6.91799928-4.5229988-65.72900009-22.75000096-25.13100052z"/><path fill="#96637C" d="M471.31598854 178.56498876l23.86800003-4.29999986-1.06400013 5.85399985-22.8039999 3.26799989v-4.82199988z"/></g><g display="block"><path fill="#6F7173" d="M492.70903015 309.97898388l21.33799935-14.90200019-1.36499978-9.58000016-17.49699974.5550003-6.3959999 11.68599987 3.92000007 12.24100018zM682.7240367 312.95798016l-17.22400046-18.81899953V280.9729805l18.28800058 4.52400017 2.66200018 13.57299995-3.7260003 13.88799954z"/><path fill="#8F8F8F" d="M455.30603027 285.49698353l2.27599907 23.11100006 35.12599945 1.37100029 2.47599984-23.92700005-39.87799836-.5550003zM683.78903389 285.49698639l-1.06400108 27.4619999 38.31900024.21299934 3.1930008-28.95999909-40.44799996 1.28499985z"/><path fill="#A688BA" d="M696.02902985 173.62098694l-229.5220108 35.23699856-2.2979889 17.11899995-8.90400696 25.45800066 78.91500473 14.63599778 195.87100602-21.2879982 1.06399536-14.63600064 6.3869934-16.2329998-5.67700195-7.27299976-7.55899048-5.57299996-28.27700042-27.4469986z"/><path fill="#A688BA" d="M466.50602996 208.858984l14.24199975 19.16000008-25.44199944 23.41600013 11.1999997-42.57600022z"/><path fill="#9075A0" d="M480.74903107 228.01798365l-25.44199372 23.418 20.71299744-29.7800002 230.12200165-17.58799982 31.40099335 9.84700012-1.95199585 16.2329998-5.49899292 14.63500023-22.88600922-23.34000015-159.11599732 8.70499992-67.34100341-2.1299999zM455.3070221 251.43598747v34.06199932l58.74100494 9.58000088 11.14099884-5.05700111h9.75800323l50.38199997 9.04800033 7.2739997-3.99099922 7.37700009.42099953 41.0550015-10.0010004 4.78899765-2.39499951 4.78900146 2.94900036 89.0589981 5.03399944-9.58000182-46.3029995-195.87099839 18.09499932-78.91400528-11.44199944z"/><path fill="#785D88" d="M514.0480318 295.07798195l20.17400075-32.20000076.72399997 27.14400005-20.89800071 5.0560007zM585.32903767 299.06898308l8.51599979-29.71500015 6.13399982 26.1449995-14.64999961 3.57000065zM641.03402853 285.49798203l3.58100009-32.81900025 5.99699998 33.37400055-9.57800007-.5550003zM707.20603561 221.44298363l25.98600007 10.4920001-3.10000039 12.84800005-22.88599968-23.34000015z"/><path fill="#2B2B2B" d="M548.0900383 238.46998215l-9.42000198 5.6260004 69.18800067 11.9800005 36.75699902-3.39599991 15.57900238-28.95700073v-15.92900086l-63.769001 4.33400154-48.33499909 26.34199906z" opacity=".2"/><path fill="#96637C" d="M544.75502396 230.1469841l35.7840004-54.02000046 72.97600173-4.6119995-23.21500015 52.24500083-85.54500198 6.38699913z"/><path fill="#FFF" d="M630.30003357 221.63098717l3.68799972 16.10100038-1.83300018 16.09900038-86.03300094-9.70000029-1.36800003-13.98300027 85.54600143-8.5170002z"/><path fill="#C4C4C4" d="M653.51502419 171.51498413l6.6789999 36.27900076-28.03799916 46.03700113-1.85599994-32.1990013 23.2149992-50.11700059z"/><path fill="#9DA1A2" d="M643.60702324 215.4659853l-12.7229997 16.27499962-16.54899966 2.79600048 16.80599976 1.66299915 12.4659996-20.73399925zM655.72103214 183.49498463l-17.50899982 31.2180004 18.20999908-27.40900039-.70099926-3.80900001z"/><path stroke-miterlimit="10" stroke="#734D60" stroke-width="5" d="M607.8150301 207.97398472c.49100017 2.7709999-3.3119998 5.76399994-8.49299985 6.68300009-5.1829998.92000007-9.78199977-.58200026-10.2749998-3.35300017-.49100018-2.77199995 3.31099987-5.76399994 8.49399984-6.68400001 5.1819998-.91900015 9.78200018.58300018 10.2739998 3.35400009z" fill="none"/><path stroke-miterlimit="10" stroke="#734D60" stroke-width="3" d="M597.56402636 194.340985c.25199985 1.41899997-1.69500018 2.95199996-4.35000024 3.42299992-2.65399995.47099995-5.01099983-.29799986-5.26300016-1.71799994-.25099992-1.41899997 1.69700027-2.9519999 4.35100016-3.4230001 2.65499988-.46999978 5.0099999.29900003 5.26200024 1.71800012zM577.65103197 211.27598256c.25199986 1.41899997-1.69600034 2.95199996-4.35100022 3.42299992-2.6539999.47099995-5.00899991-.29799986-5.26100024-1.71799994-.25199986-1.41899997 1.69500017-2.9519999 4.34900024-3.4230001 2.65499994-.46999979 5.01099989.29900003 5.26300022 1.71800012zM626.19402409 196.3389842c.25099992 1.41899996-1.6960001 2.95199995-4.35100016 3.42299991-2.65399996.47099996-5.0099999-.29799986-5.26200024-1.71699995-.25199985-1.41999996 1.69600034-2.95299989 4.35000024-3.42299992 2.65499988-.47099995 5.01099982.29799986 5.26300016 1.71699995z" fill="none"/><path stroke-miterlimit="10" stroke="#734D60" stroke-width="2" d="M593.21402872 197.76298428l2.16199994 6.8579998M589.04803658 211.30398566l-11.39599991-.028M607.0370226 206.46298385l10.95400046-6.5619998" fill="none"/><path stroke-miterlimit="10" stroke="#734D60" d="M603.42503643 183.04698396l28.73800087-2.92799998M601.82802582 186.50498396l18.3600006-1.33000004" fill="none"/></g><path fill="#2B2B2B" d="M507.09497413 234.53800201l-3.8579999-5.72099971-8.0510001-5.09400034 6.92399978-9.89699984 2.04100013-10.74600029 13.05500054.98900032 1.09899998 21.90899992-11.21000043 8.55999994z" opacity=".2" display="block"/><g display="block"><path fill="#734D60" d="M502.10995293 174.68599415l2.5899992 36.0350008 9.34900039.79799843 10.87499958-1.86199951-6.61899948-43.26599884-10.50099993 3.61699867-5.69399976 4.67800045z"/><path fill="#96637C" d="M474.18295288 150.31399322l27.927001 24.37199997 7.90499973-3.23399925 8.29000092-5.06200027-28.91700077-32.6420002-15.20500088 16.56599975z"/></g><g display="block"><path fill="#C3987B" d="M504.69896078 210.72099781l-11.98899984 9.65899992 2.4749999 3.34299994 9.51399994-3.87699986 1.68499994-4.37900007-1.68499994-4.74599993z"/><path fill="#DFBDA5" d="M504.69896126 210.72099781v9.125l9.3499999 1.43099976 12.33799982-3.47099996-1.4630003-8.14899993-20.22499942 1.06400013z"/><path fill="#C3987B" d="M504.69896126 219.84699726l2.3959999 14.69099999 17.40299988-5.13600016 1.88899994-11.5960002-21.68799972 2.04100037z"/></g><g display="block"><path fill="#DFBDA5" d="M411.65398598 147.55998611l2.83800125-.58799743 38.5029993-3.30400086 14.4060011 5.76099778.3979988-5.86299897 8.94600106-4.58499908-4.56299973-8.65600014 1.26099777-6.09200096-2.00299835-8.93999958 4.61600113-1.22200012 2.60099793-14.55299998-8.68700028-2.50099992-7.02899933 12.36000013-6.47500038-1.90700006 5.09300041-37.58300114-13.6420002-6.05999756-34.51300048 10.9679985-12.26299858-2.56900024 4.04700088 44.6600008 6.4659977 30.67399883z"/><path fill="#C3987B" d="M406.11898804 94.14598751l14.65299964 6.4280001 8.9729998 17.51600014 3.58100034-21.5880003 9.44699955-10.15799999-14.0489998 4.0670004-9.44099998-.16800023-5.50899982-1.62800026-7.65499973 5.53100014z"/><path fill="#734D60" d="M415.52398682 83.26598597l-9.40600014 10.88000011 13.16600037-3.90200007-3.76000023-6.97800004zM428.72498894 90.41098833l14.04800033-4.06599998-9.44700026 10.15799999-4.60100007-6.092z"/><path fill="#E8CAB6" d="M419.283988 90.24298859l4.15699994 28.83399963 6.30499995-.98699951-1.02199983-27.6789999-9.44000006-.16800022z"/><path fill="#8B6651" d="M423.44198656 119.07598531l3.62899995 3.80400002 2.67499995-4.78999996-6.3039999.98599994zM422.66698742 129.62198967l17.2319994-1.361.14799976 2.601-16.60499954 1.35900003-.77499962-2.59900003zM473.20098662 101.62698722l-5.79900002 7.6539998 6.30000019-1.99099993-.50100017-5.66299987zM472.41298795 115.0359869l-6.31200004 1.52200007 7.342 7.67599988-1.02999996-9.19799995z"/><path fill="#C3987B" d="M447.91798782 63.8269844l-5.1439991 22.51800156 9.27899933 52.83099938 6.78500033 1.02800178 5.37099978 11.35300064 13.34599975-9.75600052 7.85299968-11.56000137-12.99499988-15.20499992-6.31199956 1.5220003-3.15900004-7.18100022-6.47500002-1.90599995 5.09300017-37.5820014-13.64200044-6.06200027z"/><path fill="#474747" d="M391.73098755 69.76898766l9.40899968 2.45800018 12.34899974 4.0159998-1.51699925-15.37000001-6.69900035-13.1680001-13.54199982 22.06400013z"/><path fill="#858686" d="M405.27398682 47.70398712l56.33599853 2.25500012-6.07899856 9.34399986-8.210001 5.73300004-33.83199882 11.20600009-8.21500015-28.5380001z"/><path fill="#6F7173" d="M447.31998444 65.03498697l12.87500023 5.37999964 6.76400018-2.71899986 4.49900007-5.03499985-9.84800028-12.70199966-14.2900002 15.07599973z"/><path fill="#474747" d="M460.19598484 70.41498947l-4.89000034 38.18499947 7.92200088 1.8199997 6.90599966-12.51799966 7.88400007 2.10099984-1.03100014 8.8619995 16.06700063-16.9489994-21.59600044-29.2539997-11.26200032 7.75300025z"/><path fill="#8B6651" d="M466.1009903 116.55798721l12.55599975 5.78600002-6.24499988-7.3080001-6.31099987 1.52200008zM414.49298668 146.97199082l37.55800056-7.79499983 9.80399895-1.81200028 2.3520012 14.19200039-12.47300054-6.48100018-37.24100017 1.8959999z"/><path d="M418.45198727 101.0859871c0 1.61800002-1.31099987 2.9289999-2.9289999 2.9289999s-2.9289999-1.31099988-2.9289999-2.9289999c0-1.61800004 1.31099987-2.92899991 2.9289999-2.92899991s2.9289999 1.31099987 2.9289999 2.9289999zM438.14298916 100.0499878c0 1.61800002-1.31199992 2.9289999-2.9289999 2.9289999-1.61800003 0-2.9289999-1.31099988-2.9289999-2.9289999 0-1.61800004 1.31099987-2.9289999 2.9289999-2.9289999 1.61699998 0 2.9289999 1.31099986 2.9289999 2.9289999z"/><path fill="#D1A1B8" d="M489.38598919 133.74898624L464.894989 168.67198563l-.68699932-17.11499954 21.1989994-21.31699967 3.9790001 3.50899982z"/></g><g display="block"><path fill="#8B6651" d="M419.28396893 159.49499798l-4.79100025-12.52400017-1.92399996-3.57600021-6.7530002 11.56000018 13.4680004 4.5400002z"/><path fill="#C3987B" d="M419.28396893 159.4949975l-12.40299988-8.79799986-2.12899971 18.77799988 4.5829997 3.76799965 9.94899989-13.74799967z"/><path fill="#E8CAB6" d="M404.7519691 169.47399902l-6.20899987-18.45000076 10.8039999-14.40800095 5.1459999 10.35500098-9.74099993 22.50300073z"/></g><g display="block"><path fill="#8F8F8F" d="M761.49198723 282.48199558l12.12999964 18.71600056 27.25399923-7.71700048-29.8039999-14.50299979-4.52399922-1.7300005-5.05599975 5.23400021z"/><path fill="#4F5253" d="M761.75898886 301.99699497l10.64399957 7.9829998 3.19299984-5.45499992-1.9739995-5.45499969-12.13000011-16.58799958-2.12999964 10.9989996 2.39699984 8.5159998z"/><path fill="#6F7173" d="M773.6219883 299.06999516l27.25400066-5.58799958v8.5149996l-28.47400093 7.9829996 1.22000027-10.90999962z"/><path fill="#8F8F8F" d="M751.73498821 279.46599579l-20.04699993 19.60499954 15.90899986 4.52299976 14.16099984-1.59699916-.2659998-19.5140009-5.17300033-3.50499916-4.58399964.48799992z"/><path fill="#6F7173" d="M731.68798828 299.06999397v7.45099998l28.47399998 3.45899987 1.59599972-7.98300004-30.0699997-2.9269998z"/><path fill="#D1A1B8" d="M765.03998852 230.6799984v21.99999904l-3.54799938 29.8019991-9.75700021-3.01599884-2.135-12.49900055 1.24800015-4.39599991-3.25-7.31999982-1.52400017-8.91899955-.28199958-7.55799961 19.24799919-8.09399986z"/><path fill="#B3889D" d="M765.03998661 230.6799984l-3.54800034 51.80199814 9.5800003-3.50399971 2.87399994-11.96399975-.32399988-4.44299984 2.96200013-6.53999978 2.84499979-11.8420002 1.48900032-13.50899886h-15.87800026z"/><path fill="#96637C" d="M744.46098804 236.88899732l20.57800007-6.20899988 1.50800038 8.09399987-2.61600018 8.09399986-17.8579998-.53599978-1.61200047-9.44300007zM747.59698772 255.2499957l15.61899949 2.04900027 1.82299995 5.5789999-2.68499994 7.01200018-12.75499964-2.92400026-2.00199986-11.71600008z"/><path fill="#734D60" d="M765.03998661 230.67899704l18.27199936-2.65999985-3.88299942 16.16899967-15.49699974 2.6789999 1.1079998-16.18799972zM763.21698666 257.29899931l13.36699962-1.26900005-2.63799953 10.9829998-11.59200001 2.87699985.86299992-12.5909996z"/><path fill="#2B2B2B" d="M746.07398987 246.33199692l30.50999927 9.6989994 6.72900105-28.01199913-38.8520012 6.5199995 1.61300088 11.79300023z" opacity=".2"/></g><g display="block"><path fill="#D1A1B8" d="M723.17299652 113.83200073l-28.66400146-7.20599937-12.31599999-1.17200089-15.25700092-5.75900078-26.1789999 20.79000092-6.4640007 8.8959999-8.86999894 3.28200007-26.0039997-3.66799998-19.59000016-.85599995-1.06400299 11.88599992 19.30500412 5.9420004 33.73999786 5.83600043 9.93400002-11.77800083 9.25900038-5.3210001 18.64900057-16.61399984 11.0719986-.41799974 9.42199897 6.56099963 26.6400032 7.98700022 6.38700104-18.388z"/><path fill="#96637C" d="M690.14599895 124.2329998l4.36600018-17.60500002-27.57600021-6.93300009 2.71600055 18.39400006 20.49399948 6.14400005zM651.0029974 134.70300102l-10.24499989-14.21899986-15.33500004 12.1789999 6.38700009 19.1409998 19.19299984-17.10099984zM598.07099056 145.96700096l1.34899998-16.97300005-23.67100048-3.33900022-4.967 9.22600013 3.19299983 6.91899985 24.09600067 4.1670003z"/><path fill="#734D60" d="M575.74999046 125.65600061l-16.1449995-3.3130002-1.6409998 16.1750002 6.78599954 5.94299983 9.227-2.66100025 1.77299976-16.14399958z"/><path fill="#96637C" d="M575.74899006 125.65499997l-6.03099966-10.61899972L559.60499096 122.343l5.4989996 8.98899979 10.6449995-5.6769998z"/><path fill="#B3889D" d="M552.50899076 122.34299946h14.0159998l-1.42000008 8.98999977h-12.59599972v-8.98999977zM552.50999308 137.36399889l12.9499998-1.22000027-.71000003 8.31599999-12.23999977.17800045v-7.27400017z"/><path fill="#785D88" d="M559.6059928 122.34200048l-12.24199963.65199995v-6.73999977h12.24199962v6.08799982zM546.12299252 131.01000047l13.12800025.32200002-.2670002 5.4230001-12.86100005 1.49699998v-7.2420001z"/><path fill="#594165" d="M512.68199158 110.41899958l19.95800078-7.29400006 17.20600068 8.19800008-20.04400074 7.36600005-17.12000072-8.27000007z"/><path fill="#96637C" d="M518.30399132 113.13500011l13.80399978-3.44599998 10.91199982 4.143-13.21799981 4.857-11.4979998-5.55400002z"/><path fill="#785D88" d="M549.84699154 111.3239994l-2.30499935 33.31400013-18.09500027 6.06000042-1.95199966-19.36500027L529.80299186 117.625l20.04399968-6.3010006z"/><path fill="#9075A0" d="M512.6819911 110.41900063l17.12000036 7.20499992-.35599994 33.07299995-21.11200047-8.93700027 4.34800005-31.3409996z"/></g><g display="block"><path fill="#D1A1B8" d="M831.2119751 128.2590065l13.8039999 13.50299835 4.35299969 6.36400032 13.77700042 11.36999941-13.05300045 19.6340003-18.17099952 25.20499802-9.22499943-16.44399834 9.57499933-16.81899976 6.03699994-9.22700024-3.24600005-5.2569995-5.8000002-3.54400062-12.69299983-12.34899902 14.6420002-12.43599892z"/><path fill="#96637C" d="M809.92397308 107.22600555l21.28800011 21.0329994-22.35199928 22.23299944 1.06399917-43.26599884z"/><path fill="#734D60" d="M831.92197418 206.46400738l-27.37400055-7.36200011 16.02000022-10.14800012 8.69600034 8.75600011 2.658 8.75400012z"/><path fill="#96637C" d="M829.26397514 153.0450052l15.75-11.2850002 18.13199997 17.73500013-24.83699989 2.35100031-9.04500008-8.80100024zM832.27197456 171.07000542l17.8210001 8.05900097-18.17200017 27.33500003-11.352-17.5090005 11.70300007-17.8850005z"/></g><g display="block"><path fill="#96637C" d="M723.17299843 113.83200073L708.4469986 142.3320017l18.58399963 11.88600063-3.8579998-40.38600159z"/><path fill="#ECECEB" d="M723.17299652 113.83200264l20.35700035-16.16400051 45.1040001-2.88099957 21.28899955 12.43999958-43.64199999 8.2279997-43.108-1.6229992z"/><path fill="#858686" d="M795.55399704 209.6570015l-1.06399918 20.48999977-64.3979988 14.63599968 7.4509983-30.86899949 58.01099968-4.25699996z"/><path fill="#2B2B2B" d="M737.54400063 213.91400051l56.94499969 16.2329998 1.06499863-20.48999977-58.00999832 4.25699997z" opacity=".2"/><path fill="#A3A3A3" d="M723.17299652 113.83200073l86.75-6.60499954v107.48600006l-72.37999916-.79800033L724.23599625 201l-1.06299973-87.16799927z"/><path fill="#A688BA" d="M737.18799782 128.25900269l57.125-4.02600098 1.06299972 64.72200012-57.125 1.27600098-1.06299972-61.97200012z"/><path fill="#FFF" d="M742.33199787 133.99300158l10.29000044-.53199995.17799997 4.07999993-10.4680004.53399992v-4.0819999zM742.33199787 140.55700076l10.29000044-.53199995.17799997 4.07999992-10.4680004.53399992v-4.0819999zM742.33199787 147.65300143l10.29000044-.53199995.17799997 4.07999993-10.4680004.53399992v-4.0819999zM742.33199787 154.74900258l10.29000044-.53199995.17799997 4.08000004-10.4680004.53199995v-4.08000004zM768.0569973 131.86400199l20.93400001-1.41799998v3.19200003l-21.1119995 1.24199998.17799949-3.01600003z"/></g><g display="block"><path fill="#785D88" d="M785.04301405 151.80200243l-11.9749999-1.1340003v14.80900001l10.2459998 1.5130005 3.19199992-3.90300036-9.92199993-.58599997v-7.26399994h8.45900011v-3.43499994z"/><path fill="#6F7173" d="M724.04101563 184.9040016l62.59899854-19.42600096 56.07299853 24.75200105-58.3349985 17.56400084-60.33699858-22.89000094z"/><path fill="#594165" d="M781.3170166 141.79900312l19.15900022-7.09600019 17.22900027 7.0960002-18.95900023 7.09600019-17.42900026-7.0960002z"/><path fill="#2B2B2B" d="M743.63501358 178.82400179l-2.36699676 6.08499989 18.3599987 6.38599983 13.99399948-1.06399966 30.9260006 8.86999989 20.33599853-16.74000001-26.572999-11.7309997-23.38000012 1.54799937-31.29600143 6.64600039z" opacity=".2"/><path fill="#96637C" d="M789.59601212 145.17000298l10.17999994-3.3710001 9.084 3.3710001-10.11499999 3.7250001-9.14899995-3.7250001z"/><path fill="#785D88" d="M817.705019 141.7990036l-5.93300057 19.16999912 3.07499886 7.97300005 5.18900108 5.32200003-6.14000034 12.3720007-15.1499999 6.3049984-16.36399909-7.36999894-4.73400116-10.88500023 8.99200058-12.84000015-5.32299995-20.04699898 17.42899962 6.03099823 18.95900087-6.03099823z"/><path fill="#9075A0" d="M798.74601841 147.82900238l2.13000011 17.64900088-2.56599998 17.90700078.43599987 9.55399895-17.4289999-6.30399895-4.7329998-11.95000076 10.056-12.83899975-5.3230002-20.04699993 17.4289999 6.02999878z"/><path fill="#9075A0" d="M811.77201939 160.96800232l-10.89599991 4.50899982-2.0340004 8.82899976-.53199959 9.07999969 21.72599984-9.12199974-8.26399994-13.29599953z"/><path fill="#A688BA" d="M800.87601852 165.47800112l-14.23599982-3.63200045-10.056 12.8400004 21.72700024 8.70000052 2.56499958-17.90800047z"/><path fill="#734D60" d="M741.2680149 173.24200195l17.29699937-5.87300008 16.36499939 4.80900013-16.89599938 7.80700004-16.76599937-6.74300009z"/><path fill="#ECECEB" d="M748.37501526 176.1000038l5.13399982-3.48299988 2.92799998 1.74199986 2.6609999-2.84500003 2.5719999 1.862 5.23300028-.75899983 2.8619995 1.9469999-11.73199963 5.42200006-9.65799975-3.88600007z"/><path fill="#C4C4C4" d="M753.96801758 178.3500036l2.46899986-3.99199998 3.28099999 1.39199996 1.95200005-2.37299991 3.6179998 3.2559999-7.25499988 3.3519999-4.06499982-1.63499987z"/><path fill="#D1A1B8" d="M741.2680149 173.24200249l3.59300042 8.47300017 13.23899984 5.5890001 1.52800036-4.65800023-1.59400034-3.7249999-16.76600027-5.67900014z"/><path fill="#96637C" d="M774.93101788 172.17700148l-3.06200028 9.00500023-13.77000046 6.12100017-.06599998-8.3830002 16.89800072-6.7430002z"/></g><g display="block"><path fill="#96637C" d="M725.96700716 66.8890009l-5.1889999-2.79400016-1.86300015 5.58800024 2.79400003 4.52400023 4.65699995-3.72500026.6650002-1.46399997-1.06400013-2.12900009z"/><path fill="#B3889D" d="M720.7780087 64.0960002l.931 10.11200046-4.92199994-4.52400023 3.99099994-5.58800024z"/><path fill="#785D88" d="M734.08300924 66.2240007l-8.11600017.66499995.39900017 3.59299994 7.717-.66599989v-3.592z"/><path fill="#9075A0" d="M742.33200693 60.23700047l-10.91000032 1.33099985.93100023 13.30499982 10.64499998-.26599979-.66599989-14.36999988z"/><path fill="#96637C" d="M804.54800391 62.90100074l4.98800016-3.13800025 2.23699999 5.45000022-2.48399997 4.7020002-4.89700008-3.40300023-.763-1.415.9189999-2.19599994z"/><path fill="#B3889D" d="M809.53601003 59.76300049l-.24600005 10.15200043 4.60599994-4.84600021-4.3599999-5.30600022z"/><path fill="#785D88" d="M796.4060049 62.78400266l8.1420002.11699999-.15700006 3.61099994-7.74399996-.143-.24100017-3.58499993z"/><path fill="#9075A0" d="M787.77001095 57.36800194l10.97599983.59100008-.03200006 13.33799982-10.63700009.45300007-.30699968-14.38199997z"/><path fill="#96637C" d="M739.6720066 45.57400227l25.36800004-22.81299973V48.9970026h-11.296l-14.07200003-3.42300033z"/><path fill="#734D60" d="M765.0400114 22.76000214l23.59500027 17.03100013-13.09000013 6.1420002-12.72200014 1.77099991 2.217-24.94400024z"/><path fill="#9DA1A2" d="M739.67200851 45.57400131l3.85800076 52.09399986 21.50999927 6.6420002 1.24200058-32.25900006-3.45900058-24.34700084-23.15100003-2.12999916z"/><path fill="#858686" d="M765.0400114 104.30900192l23.59500027-9.52199936V39.79100418l-25.81200027 7.91199875 2.217 56.605999z"/><path fill="#96637C" d="M758.21000624 62.7650032c0 2.20499993-1.78800011 3.9920001-3.9920001 3.9920001-2.20499993 0-3.9920001-1.78700017-3.9920001-3.9920001 0-2.20499992 1.78700017-3.9920001 3.9920001-3.9920001 2.20399999 0 3.9920001 1.78700018 3.9920001 3.9920001z"/><path fill="#FFF" d="M756.08100617 62.7650032c0 1.02900005-.834 1.86300004-1.86200004 1.86300004-1.03000004 0-1.86400003-.834-1.86400003-1.86300004 0-1.02900004.83399999-1.86300003 1.86400003-1.86300003 1.02800005 0 1.86200004.83399999 1.86200004 1.86300003z"/><path fill="#96637C" d="M784.08300972 62.21800232c0 4.842-3.92599964 8.76799965-8.76799965 8.76799965-4.84100008 0-8.76799965-3.92599964-8.76799965-8.76799965 0-4.842 3.92699957-8.76799965 8.76799965-8.76799965 4.842 0 8.76799965 3.92599964 8.76799965 8.76799965z"/><path fill="#FFF" d="M779.5580101 62.21800232c0 2.34299993-1.89899993 4.24300003-4.24300003 4.24300003s-4.24300003-1.9000001-4.24300003-4.24300003c0-2.3440001 1.89899993-4.24300003 4.24300003-4.24300003s4.24300003 1.89899993 4.24300003 4.24300003z"/><path fill="#734D60" d="M748.58600426 82.72300029l15.74299979 3.46300002 16.98699975-5.32600018v5.32200018l-16.77899978 5.31800017-15.95099976-3.85400021v-4.92299998z"/><path fill="#FFF" d="M812.76300526 56.8220005l9.93500018 8.51500014-8.87100005 9.93499967 1.77399993 3.1930008 10.64400029-13.66000045-10.46600008-12.06400048-3.01600027 4.08100032z"/><path fill="#FFF" d="M818.7940054 48.8380022l14.01400041 14.3710003-10.99800015 15.43400001 2.12799979 2.30600071 14.19200039-18.80500072-16.14300013-17.74100071-3.19300032 4.43500041z"/><g><path fill="#FFF" d="M718.8580079 60.65100193l-9.11300015 9.39099953 9.7440002 9.07899978-1.4760003 3.34200001-11.84999991-12.6259998 9.31800007-12.97199977 3.3770001 3.78600025z"/><path fill="#FFF" d="M712.12000751 53.25400066l-12.6400001 15.59399975 12.36700034 14.36199963-1.9090004 2.49199962-15.85599994-17.42599928 14.45000028-19.14599931 3.58799982 4.1239996z"/></g></g></g></svg>